<?xml version="1.0" encoding="utf-8"?>
<!-- Generator: Adobe Illustrator 28.3.0, SVG Export Plug-In . SVG Version: 6.00 Build 0)  -->
<svg version="1.1" id="Layer_2_00000025430712298651690520000018376473433341418930_"
	 xmlns="http://www.w3.org/2000/svg" xmlns:xlink="http://www.w3.org/1999/xlink" x="0px" y="0px" viewBox="0 0 1079.9 539.8"
	 style="enable-background:new 0 0 1079.9 539.8;" xml:space="preserve">
<metadata><?xpacket begin="﻿" id="W5M0MpCehiHzreSzNTczkc9d"?>
<x:xmpmeta xmlns:x="adobe:ns:meta/" x:xmptk="Adobe XMP Core 9.1-c002 79.dba3da3, 2023/12/13-05:06:49        ">
   <rdf:RDF xmlns:rdf="http://www.w3.org/1999/02/22-rdf-syntax-ns#">
      <rdf:Description rdf:about=""
            xmlns:xmp="http://ns.adobe.com/xap/1.0/"
            xmlns:xmpGImg="http://ns.adobe.com/xap/1.0/g/img/"
            xmlns:xmpTPg="http://ns.adobe.com/xap/1.0/t/pg/"
            xmlns:stDim="http://ns.adobe.com/xap/1.0/sType/Dimensions#"
            xmlns:xmpG="http://ns.adobe.com/xap/1.0/g/"
            xmlns:illustrator="http://ns.adobe.com/illustrator/1.0/"
            xmlns:dc="http://purl.org/dc/elements/1.1/"
            xmlns:xmpMM="http://ns.adobe.com/xap/1.0/mm/"
            xmlns:stRef="http://ns.adobe.com/xap/1.0/sType/ResourceRef#"
            xmlns:stEvt="http://ns.adobe.com/xap/1.0/sType/ResourceEvent#"
            xmlns:pdf="http://ns.adobe.com/pdf/1.3/">
         <xmp:CreatorTool>Adobe Illustrator 28.3 (Windows)</xmp:CreatorTool>
         <xmp:CreateDate>2024-03-13T11:24:12-05:00</xmp:CreateDate>
         <xmp:ModifyDate>2024-03-13T11:24:12-05:00</xmp:ModifyDate>
         <xmp:MetadataDate>2024-03-13T11:24:12-05:00</xmp:MetadataDate>
         <xmp:Thumbnails>
            <rdf:Alt>
               <rdf:li rdf:parseType="Resource">
                  <xmpGImg:width>256</xmpGImg:width>
                  <xmpGImg:height>128</xmpGImg:height>
                  <xmpGImg:format>JPEG</xmpGImg:format>
                  <xmpGImg:image>/9j/4AAQSkZJRgABAgEASABIAAD/7QAsUGhvdG9zaG9wIDMuMAA4QklNA+0AAAAAABAASAAAAAEA&#xA;AQBIAAAAAQAB/+4ADkFkb2JlAGTAAAAAAf/bAIQABgQEBAUEBgUFBgkGBQYJCwgGBggLDAoKCwoK&#xA;DBAMDAwMDAwQDA4PEA8ODBMTFBQTExwbGxscHx8fHx8fHx8fHwEHBwcNDA0YEBAYGhURFRofHx8f&#xA;Hx8fHx8fHx8fHx8fHx8fHx8fHx8fHx8fHx8fHx8fHx8fHx8fHx8fHx8fHx8f/8AAEQgAgAEAAwER&#xA;AAIRAQMRAf/EAaIAAAAHAQEBAQEAAAAAAAAAAAQFAwIGAQAHCAkKCwEAAgIDAQEBAQEAAAAAAAAA&#xA;AQACAwQFBgcICQoLEAACAQMDAgQCBgcDBAIGAnMBAgMRBAAFIRIxQVEGE2EicYEUMpGhBxWxQiPB&#xA;UtHhMxZi8CRygvElQzRTkqKyY3PCNUQnk6OzNhdUZHTD0uIIJoMJChgZhJRFRqS0VtNVKBry4/PE&#xA;1OT0ZXWFlaW1xdXl9WZ2hpamtsbW5vY3R1dnd4eXp7fH1+f3OEhYaHiImKi4yNjo+Ck5SVlpeYmZ&#xA;qbnJ2en5KjpKWmp6ipqqusra6voRAAICAQIDBQUEBQYECAMDbQEAAhEDBCESMUEFURNhIgZxgZEy&#xA;obHwFMHR4SNCFVJicvEzJDRDghaSUyWiY7LCB3PSNeJEgxdUkwgJChgZJjZFGidkdFU38qOzwygp&#xA;0+PzhJSktMTU5PRldYWVpbXF1eX1RlZmdoaWprbG1ub2R1dnd4eXp7fH1+f3OEhYaHiImKi4yNjo&#xA;+DlJWWl5iZmpucnZ6fkqOkpaanqKmqq6ytrq+v/aAAwDAQACEQMRAD8A9U4q7FXYq7FXYq7FXYq7&#xA;FXYq7FUp8zebPLflfTDqnmHUYNMsOYjWe4biGkILBEH2nYqpPFQTQHFWC6T+fvl/zHPfQ+UdI1TW&#xA;Y7S0urmPU/qz2+nvLbxs6QmeQc0MrLxFY+vbFXkkn/OYt1q3k3XI4LaLy/5tgVJdGlP+lW0yCVPV&#xA;jPNRxl9LkV5Di3saAqpT5u/Mfz35jk/KyYeab7RdO82WsVlqtxYSi1pdw3zWtzc/u/TA+0pIrSgx&#xA;Vmv/ADj/AOZ/NUH5veb/ACLeeZLjzVoWnwSXNnqd1M104eOaGNVWVmfqsxDqGpyXYdcVYZ/zltou&#xA;pal+b+kLYsVmj8vSXUTLXkP0e17eScad+Ee2KsR8s6trvnH88PKXnjUo+La5rkUUUYPRdOW3DMOg&#xA;48WHTuDiqXeUzqms+ZfMN3E090/10vDEnmG20O5HqTSH939a5iXtuB8J+eKvXtf8xfmhffmPof5S&#xA;eUPMM2jQWWlwyz6ldul7cyy/VfrRM90qkyAVVAUCqetKUxVk93+YX5w/lp+XWu6n58/R2t3tlc29&#xA;toN7C4H1lpJSkqTrEsVOEa81PEN2bFU8b/nJTyPp3lDyzrmuPW78wIPUsdLeO9a1k4hnEwDI68eQ&#xA;BHEtU0pir1iS7tYpIYpZkjluCRBG7BWcgVIVTuSB4Yqq4q7FXYq7FXYq7FXYq7FXYq7FXYq7FXj/&#xA;AOdv/OQbflhrWmac3l2XVItQhNwbw3At4wFco0aH05eTr8LN02I8dlWQflp+efkD8wY0i0m8+rau&#xA;VLS6Pd0juRT7RQVKyr3qhO3WmKvQMVdirsVdirE/zM/MfSPy/wDKsnmLUra4vLZJVt1itFDN6kle&#xA;PNmKqi1WhY99uu2KvC/zX/5yiaz1XylfeStZhudJmWO78waQkKtcKvJHMEszqyqXRmQqh5Ky7nfF&#xA;Xqn55eW7Xz5+TWp/o6l2/wBVTV9HkQci7Qr6y+mPGWEsg/1sVeDfkr5e/MUT6Dqtp5M1TUdT0wlY&#xA;NY13UZbbT7a3blHSytGWFivoPx+04rX4adFXpPl7/nFHQY9O80aT5hnjudN1O+F15fezUx3OnqrS&#xA;DaRwQS8bRqycSvw99iFWSwf840fls3lbRvLeqLearZaHJczWbzzmN63jK0yk24h+EtGCB+OKs18m&#xA;/l35K8l20tv5Y0mHTUn4+u6cnlk4V485ZC8jUqaVbFUyu/L2gXmpQ6pd6ZaXGp28bw299LBG88cU&#xA;gZXjSVlLqrK7AgGhqcVQtr5I8l2hsTa6BptudMZ300xWkCfVnlNZGg4oPTLkVYrSuKsf1D8i/wAo&#xA;NQLNc+U9P5OWZmii9BiWNSaxFDiqD86/kH+X/muTT7iaO60nUNMgS0s9R0ub0LhbeJeKRFmWVWCq&#xA;aAla074qw3zb/wA4s6XceQrPyj5V1SSxt01IanqNzf1uJbmT02iDEx+milEcgcUAPfxxVifnj8gY&#xA;9I/NnRdc8v8AlaRPI2kQpfakLJzcy3FxZ85zGts0jy8peEcQVUoSa+JxV5B+bWvefPNl7ceb/N2m&#xA;arpcEjCHyzAbd0sYUWSkiGWTh8YC7lVqzb7AAYq9z/Nb/nJHVvI0Xk2x0KO31G4udMt9Q1cXYduU&#xA;U0SiJQysrI7UdyT/AJO2KvXdN/N3yLqHm2z8p298Trl/ZRahawcGKtFNCbhV9RQVV/RHOjU2Ipir&#xA;MwQRUbg9DirsVdirsVedfmV+fX5eeQVkt9SvfrusqKro9lSWevb1TUJEP9cg06A4qkf5H/n9d/mh&#xA;rOr2f+Hzplnp0KTJdiczirvxWOT93GAzAFh8jir2HFXYq7FXYqwP86fyvs/zF8kXOjtxj1SCtzo9&#xA;023p3KAgKx/kkHwt9/UDFX553drqui6tLa3CS2OqafMY5UNUlhmiahFRuGVh2xV9Yf8AON//ADkj&#xA;ea3d2/kzzpcCTUpAI9H1d9nuG7QTkbGSn2X/AGuh+LdlX0xiqS+cfOPl/wAn6Bca9r1z9W062oGc&#xA;KzszsaIiKoJLMdhirwL89/zfGqnyPpej61No3k3zaEudV1y3rHMLVpliki5DdPSHL1R47HaoKrCf&#xA;J1lHF+YGo/lPo9lBf+T/ADH9Zh1Ca3u49TuRbqG+rX73EZW3jMLhZVjVVb9l6txxV6V+Vn/OOE8H&#xA;5ca75R8+Wtmn6RvFmtb+wKG+VIivGsxjIC8o6oPi2ZgaVpir3Dyz5e07y5oFhoWm+oLDToVgthK5&#xA;kfgvSrNuf86bYqmeKsE/Of8AM2b8uPJv+IotL/SzG5jtTB6voKnqq5EjNwkNAUAoB3xV8x61/wA5&#xA;m/mdecl02y03TIz9lliknlH+ykfh/wAJirFrr/nKD88bjkD5kMSEghIrSySlPBhDy/HFX0N5f/5y&#xA;+/LI6Dpx1me9XWPq0I1EJa1X6yEAl4lDx4l60p2xVgH54/8AOUkerWekwflvq99YSxySvqcnoiEs&#xA;vFREoZuTd22H9MVeb2X/ADk9+eFpQDzI0yDqk9raSV2p9ow8/wAcVZTo3/OZv5n2kq/pKz03U4Kj&#xA;mDFJBIR34vG/EfShxV9rqysoZSGVhVWG4IPcYqlWpebfK2l6nbaXqer2djqN4pe1tLieOKWVQaVR&#xA;XILb+GKu8z+VfL3mrRpdH1+yj1DTJ+LPA5YbqaqyshVlI7FSDirynzN/zjJ5bupfMurWM89zqOpa&#xA;MdN0myu2V4raaGFI7dkk2airAiDlWgrua7KvBV8v+Yfyl8i6xqvmK2ktfPHmQt5f0KKRxJJb2Mca&#xA;i8uUZS6mqMkMZVqr22xVn/kr82L38ptI0v8ALaLRNS83+cCgvNSsIpnpZtcRiYWcCCO4c+jAAzqq&#xA;8QxY160Ve6/lf+anlv8AMXRJNS0b1IZrWQQ6hp9wAs0EpFQGAJBVv2WHX5ggKsyxV8xf85If85JX&#xA;WlXdz5L8l3Bi1CEmLWdYT7UTdGt7c9nH7b/snYb1oq+VtO0/Vdc1i3sLKOS91TUZ1ihjryeWaVqC&#xA;pPcsdycVfoj+UH5aaf8Al55KtNCt+Mt837/Vbtf93XTgcyK0+BacU/yR41xVmuKuxV81/kV+ces2&#xA;/nNfKnnHVpdR/wAT21tqujXty28V1dQh5rMVJ4x8+SxKNgVoB8WKvpTFXYq+Ef8AnLS60G4/OK7/&#xA;AEVxM0NpbxasyUobxeXLcdSIjGre4xV5PotxLa6nBdQSLDc2zevbzMePGWH95HQ1WlWQDr3xV+gn&#xA;nD89PIflK58vQaxPKh8xJHNBKiExQ28gFJ5nNKJUgfDU96UxV81ah+bUU35leYV17UL3zF+Vfmma&#xA;TTJLm4jeOKKJSGjltFI4q1m0gI4gMw+IryIxV6L+VH5A6n9W1zyl590+21fyPb3BufLWoesy3Hqy&#xA;hay2xhbnHHLFxMilgOY6N8RxV7X5K/LbyN5HtZYfLWlQ6csoH1ierSTSBf55pS7kDrTlQYq8j/MP&#xA;/nMTyborSWXlK2bzDfLVTdsWgslI22Yj1Jaf5KhT2bFXzl51/P781fNzut/rctnZMSRp+nE2kAB/&#xA;ZPA+pIP+Mjtiqb+T/wDnJz8yPKflCPy1pxtZkgkdre/u0knnjSQ8vTWrhKBiSOSnrTFWG+cfzQ8/&#xA;+cqL5l1u41CFX9RLViI7dXpQMIIgkQYA0rxrirFsVdirsVdirsVdirJvLX5l/mB5ZKDQvMF9YxR0&#xA;42yTM0G3SsDloj9K4qoedfPXmnzrrA1jzLe/XtQWFLdZeEcQWKMkqoSJUUfEzHp1OKpr5J/OP8yP&#xA;JbxjQtbnjs4yP9x859e1IH7PoyclWvilD74q+qfyO/5yaPn/AFqHyzq2jNaa3JFJKLuzJktGWJeT&#xA;F1c84fAbsK0Fd8Ve2ajpGlamkSajZwXqQSpPAtxGkoSWM8kkUODxZSKgjfFXi3n78tvzI0D8z7n8&#xA;zfy1tNP1bUdTtRZ6jpGofDxaiKZoWaW3XdYVr+8U9ftcjRVh/nbztqvkny7fy+XrG18sfm9qQtNQ&#xA;85afagXUZtY/rBa4gWQS23qcmV5AnLijEkniWCrNvyS/PXUfMiappXmf0Z73SrD9LQ61Zo8dvd2Q&#xA;oJGKMFCSxO3BwNuXIUHE4q+JNWu5r3UJ72dg8925uJpASeUkx9RySe/JiP8AOuKvWP8AnE/UtAsP&#xA;zisjq5VZbm2nttJlelFvZeITc9C8fqIvuwGKvvHFXYq+Zfz0/ODWdQ86y+UfKOqzabF5XtrrVNWv&#xA;rRiGlvbOBpIrQ0IDRrIFSRTsWalKruq8a/O/RbrRNehaEtDLot9faVHIhKuqw3J1Czk2+zW3v0CH&#xA;/I26Yq+o/wAnP+cgPKXmzyfay69rFlpnmO0QRapb3c0dvzdNvXj9QoCkn2jx+ydvDFWD/nR/zlnp&#xA;mmxT6H+X8qX+pMCk2ugBraDsfq4O0z/5X2B/ldlXyHcTz3E8lxPI0s8zNJLK5LMzsaszE7kknfFW&#xA;4ZPTZnIJqroO27KV/ANir7Y0LyXoX5y/847eW7W6YR6pY2QttP1EjlJb3VmPqzcu5SX0hzXuKHqA&#xA;cVZL+U35U3umfltpflv8wYLDWbjS7trrToPTE0dstaxLyZR6jqzOeVOh470rirIdS/Nz8utM84Wn&#xA;k671mGPXrthGlqoZlSRvsRyyKDHG7/sqxr08RVVLvzR/PDyF+X1s8OrXH13VnWsWi23GSdg3QyAn&#xA;jGh8X69gcVfn1rV5Z3usX15ZWi6fZXNxLNbWCMXWCJ3LJEGIHIIp41piqCxV2KtqrMwVQWZjRVG5&#xA;JOKs28v/AJJ/mxr6o+meV79opKGOaeP6rEwPdZLkxIR7g4qz3S/+cOPzbvApupNM04ftLPcu7Abd&#xA;BBHMpO/82Ksitv8AnCDzQ3H615msYqj4/SgmkofbkY64qqz/APOD2uqlbfzVayPX7MlrIgp8xI/6&#xA;sVSDUP8AnDD807cFrW+0m8XsqzzxudvCSFV/4bFWIa5/zjb+dGjqXl8tzXcQ6PYyRXRPyjidpP8A&#xA;hcVee6lpWqaXdNaanZz2N0v2re5jeGQfNHCnFUJirsVZn+Vn5p+Yfy48wvrGjxwT+vH9XvLW4Wqy&#xA;w8g3EMKOhqoIIPzB6Yq+stE/5y3/ACzv/Kl5q140mnavZQmRtDl3kmkp8KW8qjg4ZtqmhHUgDFUZ&#xA;+Uf/ADk15Q8+3P6LvohoGvu5FtZTyiSKdSfhEM5WMNJTqhUE/s17Kp3+aX5MWfnO9ttd0vU5fL3m&#xA;yyie3g1aBRIslvIGVoJ4iV5qQ7Dr3NajbFWCah5Gh/Jf/nHnzbaT6p+kr2+SeKK5Efo8H1FY7QRw&#xA;qWdhsA7b9q9sVfGcpeQCXiaKFjLdvhWg3+S4qsjkkikWSNikiEMjqSGDA1BBHQjFX1j+S3/OWtk9&#xA;rbaB+YTtDcRqI4PMQBdJANlF0qjkrdvUFQf2qbkqs5/OL/nIzyb5f8l3L+VdcstW8x3yGLTY7OVL&#xA;gQl9mnl9Msqempqqv9pqbUrRV81fkVodzrevXLTFppNWu7HSmkclnb6xdC+u5KndiLTT5g3+tv1x&#xA;V7N/zk/5Hln1R54o6weZ4YY7dwCeGt6aHNshP/L5aSSQKB1dUr0xV8hkEGh2IxVrFUbp+mSXSS3M&#xA;jejYW3H61dGlF5V4ogJHOR6Hig8CTRQzBVEvfaZe6pZxXEb2OhROsZjgpJMkBYepIS3ASzEfESaA&#xA;nYcVChVXuf5OfmRefk5rY0TX5l1DyD5gYXWn63acnhDEBPrMQpy6BVniI5oR0qKMqnf53/8AOWMs&#xA;xuPL35eTGOHeO68xiodqj4ltAQCo7eqd/wCWmzFV8vSSyyytNI7PK7F3kYkszE1LEncknFXSyySy&#xA;NJK7SSMas7Ekk+JJxVZirIfJv5f+cfOd/wDUvLelzahICBLKg4wxV7yzNxjT/ZHFX0n5D/5wrsYl&#xA;juvPGrNcy9Tpmm1SIez3Eg5t7hUX/WxV735T/LTyF5SjRPL2h2lg6Dj9ZWMPcEUp8U8nKVvpbFWS&#xA;4q7FXYq7FXYq7FUDrGg6JrVobPWNPttRtD1gu4kmSp2rxcMMVeL+eP8AnED8udcWS48vvN5cv2qQ&#xA;sJM9oWO+8Mh5L/sHUDwxV80/mP8AkD+Y/kNZbrUbEXujxnbVrEmWEL4yLQSRf7NQK9CcVeb4q7FW&#xA;1ZlYMpKspqrDYgjFX0h+Sn/OV+o6ObfQPPryX+kjjHb63u91AOg9fvNGP5vtj/K6BVK/zm/NLUPz&#xA;f1ptK0V/0f5C0BzcXeqXAZYyd0F1OKVHUrBEBzYnpyNFVeMwanY2N9eW9usl7oVy3pyQzhYpZIlP&#xA;7uX4TIIpl+0pBbj9k8lLBlUPqulizMc1vL9a065q1pdAcSQPtJIlW9OVK/GlfcEqVYqoDFWwCTQb&#xA;k4q+vf8AnFzyJLb3y3s0ZFv5djmjmcjZ9avwn1lVP/LnaxxwMD0dnp1xV9Aea/K2i+atAu9C1mH1&#xA;rC8UK4U8XRlIZJI2/ZdGAZT44q+V/Ov/ADiR54m1WWfS3s9TEzE/XvrBs5HJNfUuIHilT1D+0Yno&#xA;3XiDirH7j/nDX824rcSxz6TcSEE/V47mUPUdqyQom/8ArYq8086/lx+YXk30bfzPpNzY24ZhbytS&#xA;S2LNu3CaIvEWNNxyrirFMVZR5T85JplpcaHrNp+lvKt+4kvNOLcJIpgKLdWcm/pTqNq0KuvwuCOi&#xA;rH79LKO+uUsZXnskldbWaVBHI8QYhGdAzhWZaEryNPHFUPiq+KKWWVIokaSWRgscagszMxoAANyS&#xA;cVfTH5Pf84i3l+sGtfmFzs7RqPDoEZK3DjqPrLj+6H+QvxeJUimKvqvRNB0XQtNi0zRrKHT7CAUi&#xA;trdFjQe9B1Y9ydz3xVHYq7FXYq7FXYq7FXYq7FXYq7FXEBgQRUHYg9CMVeE/mz/zin5S80rNqflY&#xA;R+X9eNWMaLSxnbr+8jUfuif5ox81JxV8d+bfJ3mTyjrMujeYbGSwv4t+Diquh2DxuKq6HsymmKpL&#xA;iqpbiAzxi4ZkgLKJnjUO6pX4iqlkDEDoCw+eKsj8z+ck1DT7fQNGtRpfliyf1YLIENNcT8eJuryU&#xA;AerMVNB+yg+FABWqrGMVZj5G/Kz8xvOisnlvSLi5snYCa7akNpyTxmkKRllr0BLe2KvS4P8AnC78&#xA;15IVke/0WF2FTC9xcl19jwtnX7mxVkfkv/nEPzba6lDPqtxZWPpFW+vR3D3kiEGvO3t/Qt0Egp8L&#xA;SSMF68WPRV9ReW/Lmj+W9EtdF0iAW9haLxjSpZiSas7sd2d2JZmO5OKpnirsVdiqH1HTrDUrGaw1&#xA;C3ju7K5Uxz20yh43U9QytUHFX56fnr5d8keXfzH1HSvJ1y8+nQUFxCx5pb3NT6tvHJUl1TbruDVd&#xA;6VxV59irsVRmj6Pqms6pbaVpVtJeajeSCK2tohV3c9h+sk7AbnFX2N+S35Vfll+WpF95m13Sbnzw&#xA;m0wmu4AtixG8UKOwbnv8UhFewoOqr3qw1HT9RtEvNPuYry0kr6dxbussbcSVPF0JU0IpiqIxVB6p&#xA;rOj6TAtxqt9b6fbswRZrqVIULkEhQ0hUVoDtiqF07zd5T1O6FpputWF9dMCy29tdQyyELuSERmbb&#xA;FVbVfMOgaP6X6W1O0071q+j9bnjg58acuPqMtaVFaYql/wDysPyB/wBTNpX/AEnW3/NeKu/5WH5A&#xA;/wCpm0r/AKTrb/mvFXf8rD8gf9TNpX/Sdbf814qmumavpOq2xutLvYL+2DFDPbSpMnIUJXkhYVFe&#xA;mKoG986+TbG6ktL7XtOtbqE0lt57uCORDStGRnDDY98Vas/O3ky9uY7Sz1/Trm6mPGKCG7gkkdvB&#xA;VVySfliqdYq7FUr1TzV5Y0mdbfVNYsrCdl5rDdXMULlTtyCyMppirCvzEg/Jbz/oT6Rr+u6S4FWt&#xA;LyO9tVuLeQ/txOWNPcHY9xir4p/NL8qfMf5d62LHU1Fxp9zyfS9ViH7i5iB2IO/FwCOSV29wQSqw&#xA;rFXYqyv8rR5HPnrSl87rIfLrSgXRjbioY/YM23L0uX2+JBpir9IrC1sbWygt7CKOCyiRVt4oFVYl&#xA;jA+EIq/CBTpTFVfFXYq7FXYq7FXYq8a/5yX/ADkfyF5XTTNIl4eZ9aVktXUjlbQDaS4/1v2Y/ep/&#xA;Zpir4RZmZizEszGrMdyScVaxVWs7S6vLuG0tImnurh1ighjBZ3dzxVVA6kk0xV93/wDOP35E2H5e&#xA;6Mmp6pEk/m++j/0yfZhbI2/1eE9Nv22H2j7AYq+NfzZJP5qecq/9XzUv+ouTFX2V/wA4n/8AkktI&#xA;/wCM95/1Evir1/FXzr/zm1/ygOhf9tUf9Q0uKvFf+cT/APyduj/8YLz/AKhpMVegf85x/wDHV8o/&#xA;8YL3/icOKvAfI3kDzV551h9H8s2Yvb6KFrqVGlihCwo6ozlpWQbNIooN98VZ9/0Kf+dv/Vng/wCk&#xA;y2/6qYq7/oU/87f+rPB/0mW3/VTFX0Z/zjB+WHm/yD5d1m18zQR21xfXaSwQxypMeCRhSxMZZRUn&#xA;xrtir5I/Ov8A8m55v/7at1/ydOKsMjkkikWSNikiEMjqSGDA1BBHQjFX6F/kH+Z6fmB5Btb64cHW&#xA;7ClnrEY6mZB8MtPCZfi+dR2xVm3mPX9M8vaFf65qkvo2GnQvcXD9+KCtFHdmOyjucVfmv5182al5&#xA;u81an5j1E1utRnaUpWojTpHEtf2Y0AUfLFUkxV+iKeQfL3nr8m9C0DXIfUt5dJsWgnX+9gmFqgSa&#xA;JuzLX6RsdicVfCv5jfl7r3kLzTdeX9YT44jztboAiO4gJPCaPrs3cV+E1B3GKsYxV2Kvu3/nFXUP&#xA;Plx+XC2nmiymgs7Jlj0C7uQUlmtCtQvBvi4RUojHYqQBsuKvZ8VdirsVdirsVdiryv8A5yH8kfl5&#xA;rPka/wBe82RtFNolrK9hqED8J1kenpxLX4H9STioVh32p1xV+f8AirsVfWP/ADiL+TaRwD8xNcgD&#xA;Sy8o/L0Ei/YUfDJd0Pdt0j9qnuDir6jxV+a35sf+TT85f9tzUv8AqMkxVBaR5989aLZLY6P5j1TT&#xA;bJWLLa2d7cQRBmNWISN1Wp77Yqjf+Vsfmn/1OWuf9xK8/wCqmKpZrnnDzdr8cUeu63f6tHAS0CX1&#xA;1NcqjMKEoJWfiTTtir0j/nE//wAnbo//ABgvP+oaTFXoH/Ocf/HV8o/8YL3/AInDir5+8l+fPNfk&#xA;nVpNW8sX50/UJYWtpJhHFNWF2V2QrMkifajU9O2Ks2/6Gj/Pb/qZv+nHT/8AsnxV3/Q0f57f9TN/&#xA;046f/wBk+KvrT/nHfzj5n83/AJY2mteZJ/rWpSXFxH9Z9JIfUjjkop4xqibbrVV7eOKviv8AOv8A&#xA;8m55v/7at1/ydOKs61n8pY9U/wCcbvK/n3Sbf/cnpa3sesrGN5bP9IXAWZgOrQHqf5DvsuKsd/5x&#xA;8/NBvIHn63ubqTjoWp8bPWFP2VjY/BP84WPL/V5Dvir1P/nMT81Uup7byBpNwHt4fTvNbeM1DSMO&#xA;VvBUdlUiQ/NfDFWGf84s/lQnnHzmdb1SD1PL/l8rLIjiqT3Z3hi32YLT1HHsAdmxV41qEUcN/cxR&#xA;jjHHK6Iu5oFYgDfFX6Wfl5/ygHln/tlWP/UMmKsZ/PP8o7H8x/KEloirHr9iGm0a7NBSWm8Lt/vu&#xA;WlD4GjdsVfnxe2V3Y3k9leRNb3dtI0NxBIOLpIhKsrA9CCKYqpxSPFIksZ4yIwZG8CDUHFX6N/k5&#xA;+Ylv5/8AIOna8CovuP1bVYVp8F3EAJNh0D1DqP5WGKszhngniWWCRZYmrxkQhlNDQ0I264qvxV2K&#xA;uxV2KvFf+cifz61D8tX0fT9Et7W71e/53FxHdh2SO1QhQeMbxmsr8gpr+ycVfPf51/8AORl7+ZXl&#xA;zS9Fj0w6TDbym51JBN6qzTKpSLgeKEIoZjQ9yP5a4q8ZxVmP5R+QJ/Pnn7TPLqlktZXM2oTKP7u1&#xA;hHKU+xYfAv8AlMMVfo7Y2VpYWUFjZxLBaWsaw28CCipHGAqqo8ABTFVbFX5rfmx/5NPzl/23NS/6&#xA;jJMVfVn/ADjH5C8jat+Tum3mreXtN1G7nuLozXF3ZwTyN6c7olWkRj8KigxV6n/yqf8AKz/qTdD/&#xA;AO4bZ/8AVPFXgn/OX/kfyZoXkzRLzQ9CsNJun1EwyS2NtDbM8bQOxV/SVOQqgO/TFXmH/OJ//k7d&#xA;H/4wXn/UNJir0D/nOP8A46vlH/jBe/8AE4cVeRfkp+aVj+XPmO81a90ddZhu7RrX0S6xshMiScwW&#xA;SQf7rpSmKvZ/+hzfK3/Ui/8ATxD/ANUMVd/0Ob5W/wCpF/6eIf8Aqhir1v8AI/8AOzTfzOg1ZLPR&#xA;30g6KbcNE0iSoy3PqceJVY6UMLVFPDFXxf8AnX/5Nzzf/wBtW6/5OnFX2N/zjLbW93+QHl61uYlm&#xA;tp01CKeFwGR0e/uVZWB2IINDir5B/Ov8tZ/y+8+3ujBWOlzf6Vo8xqeVrITxUk9WjIKN7ivfFWH6&#xA;Xpupa1q1rptjG11qN/MkFvEN2eWRgqip8SeuKv0c/K7yBYeQvJOn+XLTi8kC+pfXC/7uupN5ZN96&#xA;E7L4KAMVfm/qTpJqN06EMjzSMrDoQWJBxV+lf5ef8oB5Z/7ZVj/1DJirIMVfH3/OY35ZJput2nnn&#xA;TYeFpqxFtqwQfCt2i1jlP/GWNaH3WvVsVfNmKplp/mXzFp2nXem6fqd1aaff0+vWkE0kcU3EED1E&#xA;UgP174q+kP8AnCvz56V7q/ki7l+C4H6S0xT09RAEuEH+snBgP8lsVfWWKuxV2KuxV8E/nrY/mD5v&#xA;/NHXNUHlzVWs4JjZWFLO4Zfq9qTGrKQlKOQZP9lirAf+Ve+fv+pa1X/pBuf+aMVd/wAq98/f9S1q&#xA;v/SDc/8ANGKvrT/nEb8rr/yz5cv/ADLrdnJZ6vrLCG2t7hGjlis4T+0jAMvqyb0I6Kp74q+gMVdi&#xA;rwnzT/ziH5F8weZNU12bVtStp9VupbyeGJoCiyTuZJOPKMtTkx6nFXqP5deQ9L8ieU7Ty1pk01xa&#xA;WjSOJrgqZGaaRpGJ4Ki9W2oMVZLirCPzY/KfRPzK0S00nVru5s4rO5F1FLalAxYI0fFvUVxSj4qx&#xA;T8tv+cY/KPkPzZb+ZdP1S/u7u1jljjhuDD6f75DGxPCNW+yx74qnf5ufkZ5b/M2XTZtWvryyl0xZ&#xA;UhNoY6MsxUtyEiP0KClMVeef9CS+Qf8Aq+6r99t/1SxV3/QkvkH/AKvuq/fbf9UsVd/0JL5B/wCr&#xA;7qv323/VLFXo/wCUX5KeXfywj1RdIvLu9fVjAbh7sxniLYScAgjRP9/NWuKsQ84f84k+R/M3mfUv&#xA;MFxq2pW1xqk7XM0ERgMaySbvx5xs1C2/XFXqP5feSdO8keUNP8r6dNNcWeniX05rgqZWM0zzty4B&#xA;V+1IabdMVSr80vyh8pfmTplvZ66ssU9mzPY39qypPEXA5qOSurI3EclI7dsVYz+Wf/OM/kbyD5iX&#xA;zDaXN5qWpQoyWjXhi4QmQFXdFjRPjKkrUnoTir1zFXzxN/zhP+Xryu0etarGjMSkYa3IUE7LUxVN&#xA;MVe+aRpltpWk2Wl2pY21hBFbQFzVuEKBF5EAVNF3xVF4qxn8y/Jtv5z8i6z5clC8763YWrt0S4T4&#xA;4H/2MirX2xV+ek35cfmFDK8UnljVVkjYo6/Urg0KmhGyYqs/5V75+/6lrVf+kG5/5oxVPvImkfmV&#xA;5S84aR5ktPLWrGXTLlJmQWVyC8X2ZY/sf7sjZlPzxV+iqPzRXoV5AHiwoRXsRireKuxV2KuxV4N5&#xA;/wD+cpbDyn+aSeURpqXOlWssMOsamZirxNMFZzGnEqfRVxyqdzUbdcVe8ghgCDUHcEdCMVeZ/ml+&#xA;cb+RvNvlLQRpYvo/Mtx6EtwZvTMI9WKIMq8H5/31eo6Yq9MxV5n+eP5yt+WGl6VerpX6UOo3LQMh&#xA;l9EIka8mNeMlWNdhTFVD82fzP/MHyudIPlHyZc+ZYdQhaa4nhjnmEJHHjGy26OVJDVqx+WKvJdc/&#xA;5y5/M3QJ44Nd8irpM8y84or5bu2d0rTkqyqhIrtUYqmNt/zkx+dU8saRfljczF9wkdvfEsOppSM9&#xA;sVeofm7+eeh/lvo9nLeWjXev6ige10NZFWRRT4nmkHMIit8NQDyPTuQq81v/APnJj83tEsodZ1/8&#xA;tZbXQ34s9w31iEBXPFeUjxusZJ6c13xV7n+X/n3y/wCe/LFt5h0ORmtZiY5YZKCWGZKc4pVBIDLU&#xA;HruCCNjiryCf/nLGztPzbufJ17o4h0S31FtJfVTLSVJY5PQaZ46cfT9UfzV479fhxV9BYqsuJ4be&#xA;CS4ndYoIVaSWRjRVRRVmJPQADFXgH5f/APOVieb/AMz4PKsOhiHSNQmli0/UPWPr0ijd1eSIrx/e&#xA;cPsg/DX9rFXq/wCZn5k+X/y98sS69rJaReQhtLOLj6s8zAlUTkQOgJY9gPoxV4aP+clfztu7H9P6&#xA;b+XDP5bIMiXHpXctYhuXEyBFKgfthKYq9K/L/wDPjT/PXkXWNb0TS5ZfMWi27yXPlsOGlkl4M0Sw&#xA;yKtXSUqVB4Vrtx6VVeb33/OSn532FrNe3v5X3VpZwKZJ7ie2v4440HVndo1VQPE4qgtD/wCcrvzX&#xA;1+OWTQvy+OrRwELO9jHeXKozCoDmJH4k074q9J0H85PO7flp5m82+afJs+hXehIXtLO49WAXXw12&#xA;WZFkVVYirUIPbcHFVS0/PHULz8i5fzNttCEt1By9XSROeIWO69CST1eFeKpVz8P9cVZd+Vn5g2fn&#xA;/wAk2HmW2h+rPcc47u05c/RniYq6cqLUftLt0IxVlpIUEk0A3JPQDFXk/wCT/wCeUv5k+Z/MNhZ6&#xA;OLbRdGp9X1T1i5mDyskPKPgoQyIjPTkaUpirzuP/AJy782ahqd/baB5Bm1SGykZWaCWaZ1j5lUaV&#xA;YoHCcqYqmehf85HfmxqfmCwsG/LG8itbqaOGVit2GQO1Gk9RoFRVVdzyHbrir6JxV2KuxV2KpZ5n&#xA;1+y8veXdS129NLXTLaW6lFaFhEhbiPdqUHvir4y8vflZe+dvyc88fmNqCet5guL1tQsJN6lLUtLe&#xA;lfFZBM4A/mjGKvpX/nHTzv8A4u/KnSLmaT1NQ01f0ZfkmrepbAKjMa1JeEoxPiTirzb/AJyg/wDJ&#xA;p/lZ/wAxw/6jLbFX0pir5q/5zeI/wt5ZHf69Nt/zxGKvovSf+OVZf8YIv+IDFXy//wA5z/8ATE/9&#xA;vT/sTxV9VYq+VtDso/Pf/OYOry6mv1iz8sCSW3t3oUX6h6dvFsfC4l9X/W9sVfUGp6bZapp11pt/&#xA;Es9leRPBcwuKq8cilWU/MHFXzR/zhubvTNe89+WpZKxWM8FIydxJFJPDIwH+VxXl8hiryDzN5Km8&#xA;zee/zbuLYM15oN3qWqRxr+3HFqRScH5ROz/7HFX13+QXn3/Gv5YaVqU0nqalaL9Q1Mk1Y3FuAObe&#xA;8kZST/ZYqxn/AJyv8+t5c/LdtFs5Kar5nc2MSL9v6soBuWA91Kx/7PFXifkLyMfJP/ORPkbQpRS+&#xA;WziuNRqSf9JuLSaSRfkhPAfLFWWf85DRv5w/5yD8meR53LaVGtsbmCpArczs9wRTuYIlAxV9Twwx&#xA;QQxwwoscMShI41ACqqigUAdABir5Y/L2xbyp/wA5g69olmphsdRW6cwr8KencQLfqAo2or7AdsVf&#xA;RX5h/wDKAeZv+2Vff9Qz4q8V/wCcJf8AlAdd/wC2qf8AqGixV6X+f3/kmvNn/MC3/ElxVin/ADjN&#xA;pdlq3/OPtppV8nq2V/8ApG2uY/5opp5EcfSrYqwn/nFDUrzyv5284flhqbfvrWaS5tj0VpbZxbzl&#xA;a9fUj9N19lxV6z/zkL5z/wAJ/lPrd7E/C+vo/wBHWJrQ+rd1Qsp/mSLm4/1cVST/AJxU8lny5+VF&#xA;neTx8L7zBI2pSkjcQuAluK/ymJQ4/wBY4q81/wCcPda0fTtY8+x6hfW9nJPNZNCtxKkRcRvdhyvM&#xA;ivHmtaeIxV9PWevaHfTehZaja3U1C3pQzRyNQdTxUk4qjsVdirsVdir57/5zL86/ovyNY+V7eTjc&#xA;6/cc7lR1+qWhDsDTpymMdPkcVYx5G/5yp/LTyv5H0rysmg6nLDYWi28542xSWRhWd6GXpJIzN9OK&#xA;pT/ziP5606w/MfXPK9qZItE1/wBS40eGcj1FktmZ40YAleTWzNzpXdRirKv+cpZY4vzP/K+WRgsc&#xA;d7ydj0Ci7tiScVfS+Kvl/wD5zjZf0Z5QWo5Ga+IXuQEgqfxxV9M6fC8NhbQyCkkcSI467qoBxV8u&#xA;f85z/wDTE/8Ab0/7E8VfVWKvlv8AKGYWf/OW/nmCccZLyPUUiFRuWuoJx/wiVxV9SYq+ZP8AnFkx&#xA;335p/mbqsG8D3R9MqPg43F5PIu/yj2xVQ/ISGKf/AJyM/NKGZFkhll1RJI2AKsranQqQeoIxVR/I&#xA;64l/LL89/Mf5aXjsml6q5bSS5qC6KZrVuR/nt3ZWp+2AMVX2bD83v+coGuaifyr5JH7vvHI1q5C0&#xA;/ZPq3TFv8qNcVVvNn/raXl//AIwRf9Qc2KqX5ls2l/8AOYXlG7kfgl6lkI2NOkxmtOO/8zAjFX1J&#xA;ir5otp47v/nNmf6uOQtLMxzuNxyGmiv3FwvzxV7v+Yf/ACgHmb/tlX3/AFDPirxX/nCX/lAdd/7a&#xA;p/6hosVel/n9/wCSa82f8wLf8SXFWP8A/OJ//kktI/4z3n/US+KvOPz4if8ALz8/PKv5kW4aOw1J&#xA;kTVGXuYQLe5H+ytJFp7gnFUR/wA5MXU3nj8yfJP5ZaZLzindby9eI8gBcniHNK/3NvHJJ8mxV9M2&#xA;lpbWdrDaW0YitreNYoIl+yqIAqqPYAUxV8Uf84/fkz5U/MnWPNzeYZbtE0maAW6WkiR1Ny9xyLlk&#xA;k6egKfPFX0P5E/5xr/LnyV5ntfMmkNfyajZrItv9ZnV4x60bRMSqRx1+ByNzir1XFXYq7FXYq+Xd&#xA;Q0PVPzG/5yuLX9hMfLflPijNNEREVs19RVPIcG9W6lrTuntir6ixV8u/85TaJe+U/PflX80tFtyJ&#xA;IZ44tQaMcVae3f1IfUI/39FzjPstMVZx/wA5IflXqf5jeT9M1by9Ex17SCbi0tJKRSSwXCqZIviI&#xA;4yqURlqexHU4qwjQv+cvtS8v2KaP5+8r3sevWUfpTTR0heZ0FA0kM4Qxs1PiIJFdwO2Kpbp+jeff&#xA;z9/MrS/MmtaRJonkTRmRoYp+XGSNXEjRxlghlknZQHdV4qo8QOSr6zxV8v8A/ObOmajfy+RYrK2k&#xA;uHlmv7aMRqWrNN9VEUdR+0/E8R3ocVfUGKvl/wDPbyn5w8j/AJsWP5weVbB9QtKI2rwxKzCN44vq&#xA;8nqhASsU0G3OmzVJ7VVU9d/5y71DzJoM+j+SvK9+PMt/G0Ecin6x6HMUMkSwqXkcb8ahaGh36Yq9&#xA;F/5xl/KvUfIXkiZ9Zi9DXdamFzdwVBaGKNeMELEEjkKsx8OVO2KsJ/IHS9Sj/wCchvzQvZLWVLRb&#xA;q/jM7Iypzm1H1Y15EUq8alh4jfFV3/OXfkPWpJNC8/eXIZzqmluLW7ls1czRorGa3nHpiqiJ+YLf&#xA;5S4qzP8A5xe/Lqfyf+XKXWowNBrevSfXb2ORSsscQBW3icHfZKvQ9C5GKsJ806ZqT/8AOZXl+5S1&#xA;ma2+rI/riNvT4raTqzcqUoDt88VTj/nKf8rvMuvxaN5x8qQSXOteXyRNbwDlM0IcSxyRL1ZopAfh&#xA;G55e2KpJbf8AOZq/oxbKfyleP5vC+k1lGwEDTgUJAIM6gnfhwJ7V74qnH/ONv5Y+bbfXNZ/MzztE&#xA;1vruviQW1nKpSVEnkEssskZ/u+RVVRDuFr44q9k8+QzT+RvMUEEbSzS6ZeJFEgLMzNbuFVVG5JPQ&#xA;Yq8Z/wCcLrC9tvy91iS5t5IUn1VzCZFK8wkESsVrSoDCnzxV6P8Anvbz3H5P+a4oI2llNg5EaKWY&#xA;hSGJoN9gK4qkH/OK9rc235K6OlxE8Lma8YLIpUlTcyUNDTbFUR/zkr5Fl83flVqMVnA1xqmlMuo2&#xA;EaKWkYw1EqKACxLQs9FHU0xV5F/ziL5T1zWvNWoef9fWeYWNpHpul3dwp/eOqC3JRiPi9CCERE/5&#xA;W++KvrDFXw/+U/5oav8AlB5j822moeWLvUJNSuI0kjBaB4ntJJvGOTkG9c/dir1XS/8AnMFb3UrS&#xA;zbyPqKrczRwlo5fVceowWqx+inI77DkK4q+i8Vdir//Z</xmpGImg:image>
               </rdf:li>
            </rdf:Alt>
         </xmp:Thumbnails>
         <xmpTPg:NPages>1</xmpTPg:NPages>
         <xmpTPg:HasVisibleTransparency>False</xmpTPg:HasVisibleTransparency>
         <xmpTPg:HasVisibleOverprint>False</xmpTPg:HasVisibleOverprint>
         <xmpTPg:MaxPageSize rdf:parseType="Resource">
            <stDim:w>1079.910034</stDim:w>
            <stDim:h>539.809998</stDim:h>
            <stDim:unit>Points</stDim:unit>
         </xmpTPg:MaxPageSize>
         <xmpTPg:PlateNames>
            <rdf:Seq>
               <rdf:li>Cyan</rdf:li>
               <rdf:li>Magenta</rdf:li>
               <rdf:li>Yellow</rdf:li>
               <rdf:li>Black</rdf:li>
            </rdf:Seq>
         </xmpTPg:PlateNames>
         <xmpTPg:SwatchGroups>
            <rdf:Seq>
               <rdf:li rdf:parseType="Resource">
                  <xmpG:groupName>Default Swatch Group</xmpG:groupName>
                  <xmpG:groupType>0</xmpG:groupType>
               </rdf:li>
            </rdf:Seq>
         </xmpTPg:SwatchGroups>
         <illustrator:CreatorSubTool>Adobe Illustrator</illustrator:CreatorSubTool>
         <dc:format>image/svg+xml</dc:format>
         <dc:title>
            <rdf:Alt>
               <rdf:li xml:lang="x-default">Asset 1</rdf:li>
            </rdf:Alt>
         </dc:title>
         <xmpMM:RenditionClass>default</xmpMM:RenditionClass>
         <xmpMM:DocumentID>xmp.did:b444067e-f9a7-2d41-afe8-0a26d9550398</xmpMM:DocumentID>
         <xmpMM:InstanceID>xmp.iid:b444067e-f9a7-2d41-afe8-0a26d9550398</xmpMM:InstanceID>
         <xmpMM:OriginalDocumentID>uuid:59b3881d-e8c7-443e-a4d8-5bc8fee87827</xmpMM:OriginalDocumentID>
         <xmpMM:DerivedFrom rdf:parseType="Resource">
            <stRef:instanceID>uuid:e38aa3fd-6848-46af-9566-40a7c96e5d4f</stRef:instanceID>
            <stRef:documentID>uuid:59b3881d-e8c7-443e-a4d8-5bc8fee87827</stRef:documentID>
            <stRef:originalDocumentID>uuid:59b3881d-e8c7-443e-a4d8-5bc8fee87827</stRef:originalDocumentID>
            <stRef:renditionClass>default</stRef:renditionClass>
         </xmpMM:DerivedFrom>
         <xmpMM:History>
            <rdf:Seq>
               <rdf:li rdf:parseType="Resource">
                  <stEvt:action>saved</stEvt:action>
                  <stEvt:instanceID>xmp.iid:b444067e-f9a7-2d41-afe8-0a26d9550398</stEvt:instanceID>
                  <stEvt:when>2024-03-13T11:24:12-05:00</stEvt:when>
                  <stEvt:softwareAgent>Adobe Illustrator 28.3 (Windows)</stEvt:softwareAgent>
                  <stEvt:changed>/</stEvt:changed>
               </rdf:li>
            </rdf:Seq>
         </xmpMM:History>
         <pdf:Producer>Adobe PDF library 17.00</pdf:Producer>
      </rdf:Description>
   </rdf:RDF>
</x:xmpmeta>
                                                                                                    
                                                                                                    
                                                                                                    
                                                                                                    
                                                                                                    
                                                                                                    
                                                                                                    
                                                                                                    
                                                                                                    
                                                                                                    
                                                                                                    
                                                                                                    
                                                                                                    
                                                                                                    
                                                                                                    
                                                                                                    
                                                                                                    
                                                                                                    
                                                                                                    
                                                                                                    
                           
<?xpacket end="w"?>
	</metadata>
<path d="M876.8,196.3c0.9,0,1.3-0.4,1.7-0.8c3.5-3.4,7-6.9,10.6-10.3c7-6.8,11.7-15,14.5-24.3c1.6-5.1,2.6-10.4,3.5-15.6
	c2.1-12,4.1-23.9,6.1-35.9c0.8-5.1,2.7-9.7,5.8-13.9c1.3-1.7,2.6-3.5,4.1-5c10.2-10.8,21.7-19.9,34.8-27c6.8-3.6,13.5-7.2,20.4-10.6
	c3.1-1.6,6.4-2.7,9.8-3.3c2.3-0.4,4.6-0.3,6.8,0.7c1.5,0.7,2.7,1.7,3.5,3.2c1,1.9,1.1,3.9,0.1,5.8c-1,1.8-2.1,3.4-3.2,5.1
	c-6.1,9.2-12.2,18.3-18.2,27.5c-2.8,4.2-5.6,8.4-8.4,12.7c-0.4,0.6-0.8,1.2-1.2,1.8c-1.5,2.4-2.2,5-2.1,7.8
	c0.2,4.6,1.3,8.9,3.5,12.8c1.2,2.1,2.6,4.2,4,6.1c6.2,8.1,13.4,15.1,22,20.7c3,2,6,4,9.1,5.9c2.3,1.4,4.8,2.7,7.2,4
	c3.9,2.1,8,2.4,12.2,1.7c2.3-0.4,4.5-1.1,6.6-2.1c2.3-1.1,4.1-2.6,5.5-4.7c0.1-0.1,0.2-0.2,0.2-0.4c4-7.4,9-14.1,13.5-21.2
	c6-9.4,12.1-18.7,18.2-28c0.7-1.1,1.5-2.2,2.3-3.2c0.8-1.1,2.3-1.3,3.5-0.5c0.2,0.1,0.5,0.3,0.7,0.5c3.8,2.9,5.9,6.7,6,11.4
	c0.1,2.9-0.1,5.8-0.3,8.7c-1,11.3-3.1,22.3-6.2,33.2c-1.9,6.8-4,13.6-6,20.4c-1,3.2-2.3,6.2-3.8,9.2c-2.7,5.4-5.8,10.7-9.2,15.7
	c-2.6,3.9-5.5,7.4-9,10.5c-4.3,3.8-9.1,6.7-14.6,8.2c-4.9,1.4-9.9,1.9-15,1c-4.6-0.8-9.1-1.4-13.8-1.5c-8.9-0.3-17.6,0.9-26.1,3.2
	c-9.6,2.6-18.5,6.5-26.9,11.8c-3.3,2.1-6.4,4.4-9.3,7.1c-2.4,2.3-4.8,4.6-7,6.8c0,1,0.5,1.6,1,2.1c2,2.5,4.1,4.9,6.1,7.4
	c6.8,8.3,12.9,17,19.2,25.7c0.6,0.8,1.1,1.7,1.6,2.6c0.9,1.8,0.6,3.4-0.9,4.7c-1.1,0.9-2.3,1.7-3.6,2.5c-3.2,1.9-6.5,3.8-9.7,5.7
	c-1,0.6-2,1.2-2.9,1.9c-1.2,0.9-1.6,2.6-1.1,3.9c0.3,0.8,0.6,1.6,1.1,2.4c5.3,9.8,10.6,19.6,15.9,29.4c0.3,0.6,0.7,1.3,1.1,1.9
	c0.7,1,1.6,1.6,2.8,1.8c1.2,0.2,2.3,0.2,3.4-0.3c2.1-0.9,4.3-1.8,6.4-2.7c2.6-1.2,5.2-2.5,7.8-3.7c0.7-0.3,1.3-0.7,2-0.8
	c3-0.7,4.7-0.3,6.2,2.5c0.5,0.9,0.9,1.8,1.2,2.8c7.2,17.5,14.5,35,21.7,52.5c0.5,1.3,1,2.7,1.4,4.1c0.4,1.3-0.5,2.7-1.9,2.9
	c-0.6,0.1-1.1,0.2-1.7,0.2h-92.9c-2.1-0.1-3.6-1.1-4.5-2.9c-0.7-1.3-1.2-2.6-1.6-4c-2.3-6.5-4.9-13-7.7-19.3
	c-10.5-23.8-23.8-45.9-39.9-66.3c-9.7-12.3-19.7-24.2-30.4-35.6c-16.4-17.6-34.5-33.3-54.3-47.1c-17.1-12-35-22.5-53.7-31.7
	c-23.6-11.7-48.2-20.9-73.7-27.7c-12.3-3.3-24.7-5.9-37.3-7.9c-5.4-0.9-10.9-1.4-16.4-2c-7-0.8-14.1-1.5-21.1-2.3
	c-6.8-0.7-13.5-1.3-20.3-1.7c-3.5-0.2-6.9,0-10.4,0c-8.5-0.1-17.1,0.4-25.6,0.9c-7.9,0.4-15.8,1.2-23.7,2.2
	c-10.9,1.3-21.8,3-32.5,5.2c-18.3,3.6-36.3,8.5-53.9,14.7c-38.8,13.5-74.7,32.5-107.5,57.2c-12.7,9.6-24.8,19.9-36.3,30.9
	c-25.9,24.8-47.7,52.7-65.2,83.9c-4.6,8.2-8.7,16.7-12.5,25.2c-3.3,7.4-6.6,14.8-9.9,22.2c-0.6,1.3-1.2,2.6-2,3.8
	c-1,1.5-2.4,2.5-4.3,2.6c-1.2,0.1-2.3,0.2-3.5,0.1c-2.7,0-5.5-0.1-8.2-0.1H85.9c-2.5,0-4.9,0.1-7.4,0.1c-1.9,0-3.8-0.1-5.6-0.3
	c-1.5-0.2-2.5-1.7-2.3-3.2c0.1-0.4,0.1-0.9,0.2-1.3c0.3-0.8,0.5-1.6,0.9-2.5c5.1-12.9,10.2-25.8,15.2-38.7c0.4-1.1,0.9-2.1,1.5-3.1
	c1.3-2.4,4.2-3.4,6.3-2.5c0.9,0.4,1.9,0.7,2.8,1.1c4.3,1.8,8.5,3.6,12.7,5.5c1.1,0.5,2.2,0.8,3.3,0.9c1.4,0.1,2.6-0.4,3.4-1.5
	c0.7-0.9,1.3-1.9,1.7-3c4.4-9.6,9.2-19,14.1-28.3c0.6-1.1,1.1-2.3,1.6-3.6c0.5-1.5,0.1-2.9-1.1-3.9c-0.8-0.6-1.6-1.2-2.5-1.6
	c-3.6-1.9-7.2-3.7-10.8-5.5c-0.9-0.5-1.8-1-2.6-1.5c-2.3-1.7-2.8-3.8-1.5-6.5c0.3-0.6,0.8-1.2,1.1-1.9c4.5-7.4,9.5-14.5,14.8-21.4
	c5.3-6.8,10.6-13.8,15.8-20.6c0.7-0.9,1.4-1.9,2-2.8c-0.2-0.5-0.3-1-0.5-1.2c-7.4-7.6-15.5-14.3-24.8-19.4c-8-4.4-16.6-7.4-25.6-9.3
	c-7.4-1.6-14.9-2.2-22.4-2c-1.7,0-3.5,0.2-5.2,0.4c-2.6,0.4-5.1,0.9-7.7,1.2c-4.8,0.6-9.5,0-14.2-1.2c-3.1-0.8-6-2.2-8.6-3.9
	c-5.4-3.4-10-7.8-13.8-13c-5.6-7.6-10.1-15.8-13.2-24.8c-4.1-12-7.7-24.2-10.3-36.7c-1-4.8-1.6-9.7-2.3-14.6
	c-0.3-2.4-0.5-4.9-0.7-7.3c-0.1-1.9-0.3-3.8-0.1-5.6c0.4-4.7,2.3-8.6,6.2-11.4c0.3-0.2,0.7-0.5,1.1-0.6c0.9-0.4,2.2-0.2,2.8,0.6
	c0.6,0.7,1.1,1.3,1.6,2.1c9.2,14.7,19.1,28.9,28.1,43.8c1.3,2.2,2.8,4.4,4.3,6.5c2.6,3.7,6.2,5.9,10.7,6.9c4.2,0.9,8.3,1.1,12.4-0.1
	c2.1-0.6,4.1-1.5,5.9-2.7c5.6-3.8,11.3-7.6,16.7-11.6c5.3-3.8,10.1-8.2,14.3-13.2c3.3-3.9,6.1-8.1,8.2-12.7c1.1-2.4,1.9-4.8,2.2-7.5
	c0.4-3.5,0-6.9-1.7-10.1c-0.8-1.5-1.6-3.1-2.7-4.4C101.2,91.3,93.1,78.7,85,66c-1-1.6-2-3.2-3-4.8c-0.4-0.6-0.8-1.2-1.1-1.9
	c-0.7-1.6-0.6-3.1,0.3-4.5c1.9-2.9,4.7-4.2,8-4.5c2.9-0.3,5.8,0.3,8.5,1.3c1.8,0.7,3.5,1.4,5.2,2.2c7.9,4.2,15.8,8.4,23.5,13
	c7.8,4.7,15.3,9.9,22.1,16c4,3.6,7.7,7.4,11.1,11.6c4.1,5.1,6.6,10.8,7.7,17.2c0.9,5.4,1.7,10.8,2.6,16.3c1.4,8.4,2.8,16.8,4.3,25.2
	c0.7,4.1,2,8.1,3.4,12.1c2.8,7.6,6.8,14.4,12.5,20.1c4.2,4.2,8.6,8.2,12.9,12.2c0.3,0.3,0.8,0.4,1.2,0.6c0.6-0.4,1.2-0.8,1.7-1.3
	c6-5.6,12.7-10.6,19.3-15.5c8.7-6.5,17.4-13,26.1-19.5c0.8-0.6,1.7-1.2,2.5-1.7c1-0.7,2.1-0.9,3.3-0.9c1,0,2,0.3,2.8,1
	c0.8,0.8,1.6,1.6,2.4,2.5c1.2,1.5,2.2,3,3.4,4.5c0.8,1,1.7,2,2.6,2.9c1.6,1.5,3.5,1.9,5.6,1c1.1-0.5,2.1-1,3.1-1.6
	c1.3-0.7,2.5-1.5,3.7-2.3c7.8-5,15.7-9.8,23.9-14.1c0.9-0.5,1.8-1,2.6-1.6c0.5-0.3,0.9-0.7,1.3-1.1c1-1.2,1.5-2.5,0.8-4
	c-0.5-1-1.1-2.1-1.7-3c-1.1-1.8-2.4-3.6-3.5-5.5c-0.4-0.6-0.8-1.2-1.1-1.9c-0.8-1.9-0.7-4.2,1.7-5.7c1-0.6,2-1.1,3.1-1.6
	c14.6-7.4,29.6-13.7,44.9-19.6c3-1.1,5.9-2.3,8.9-3.4c3.7-1.3,7.4-2.5,11.3-3c0.6-0.1,1.2-0.2,1.7-0.2c1.5,0.1,2.8,0.6,3.7,2
	c0.7,1.1,1.3,2.3,1.8,3.4c0.7,1.4,1.2,2.9,1.9,4.4c0.4,0.8,0.8,1.5,1.3,2.3c0.6,0.9,1.5,1.4,2.6,1.4c1.3,0,2.6-0.2,3.8-0.6
	c4.7-1.3,9.5-2.5,14.2-3.9c6.1-1.7,12.2-3.4,18.4-5.1c1.5-0.4,3-0.9,4.4-1.8c2-1.3,2.8-3.2,2.5-5.6c-0.3-2-0.9-3.9-1.6-5.9
	c-0.5-1.4-0.8-2.8-1-4.2c-0.1-1.3,0.7-2.6,1.9-3.1c1.2-0.4,2.5-0.8,3.7-1.1c10.9-2,21.9-4.1,32.9-5.9c6.3-1.1,12.6-1.8,19-2.1
	c6.2-0.3,12.4-0.8,18.6-1.3c1.2-0.1,2.3,0,3.4,0.4c1.2,0.4,2,1.2,2.3,2.4c0.2,0.8,0.4,1.7,0.4,2.6c0.2,1.7,0.3,3.5,0.5,5.2
	c0.1,1,0.3,2,0.7,2.9c0.7,2,1.8,2.8,3.9,2.8c1,0,2,0,3-0.2c4.5-0.7,8.9-0.6,13.4-0.6h16.9c1.6,0,3.2,0,4.8,0.2
	c1.5,0.1,2.9-0.2,4.3-0.5c0.9-0.2,1.5-0.9,1.8-1.7s0.6-1.6,0.7-2.5c0.1-1.3-0.1-2.6-0.1-3.9c0-1.7,0-3.5,0.2-5.2
	c0.1-1.5,1.3-2.7,2.8-2.9c0.6-0.1,1.2-0.1,1.7-0.1c2.3,0.1,4.6,0.1,6.9,0.2c6.1,0.4,12.1,0.9,18.2,1.5c3.9,0.3,7.8,0.7,11.7,1.1
	c4.5,0.5,8.9,1,13.4,1.5c4.6,0.5,9.2,1.1,13.7,2c2.8,0.5,5.7,1,8.5,1.6c0.9,0.2,1.7,0.4,2.5,0.6c1.5,0.4,2.9,1.6,2.9,3.8
	c0,1.3-0.2,2.6-0.3,3.9c-0.2,1.7-0.4,3.4-0.6,5.2c-0.1,0.7,0,1.4,0,2.2c0.1,1.8,1,3,2.6,3.7c0.7,0.3,1.3,0.5,2,0.7
	c1.5,0.4,3.1,0.8,4.6,1.2c8.9,1.9,17.7,4.4,26.4,6.8c1.7,0.5,3.3,1,5,1.3c2.6,0.4,4.4,0.2,5.8-3.2c0.6-1.5,1-3,1.3-4.6
	c0.4-1.8,0.9-3.6,1.8-5.3c0.2-0.5,0.6-1,0.9-1.4c0.5-0.6,1.1-0.9,1.9-0.9c0.9,0.1,1.7,0.2,2.5,0.4c2.2,0.7,4.4,1.5,6.6,2.2
	c6.9,2.3,13.7,4.5,20.6,6.9c7.5,2.6,14.8,5.7,22.1,8.9c6.1,2.7,12.2,5.4,18.2,8.1c1.1,0.5,2.1,1,3.1,1.6c1.1,0.7,1.6,2.3,1.2,3.5
	c-0.3,0.8-0.6,1.6-1.1,2.4c-1.2,2.1-2.5,4.2-3.8,6.3c-0.5,0.9-1,1.8-1.3,2.7c-0.6,1.6-0.1,3.2,1.2,4.3c0.4,0.4,0.9,0.7,1.4,1
	c0.7,0.5,1.5,0.8,2.3,1.3c9.2,5.2,18.4,10.4,27.6,15.6c1.1,0.6,2.3,1.3,3.4,1.8c0.5,0.3,1.1,0.5,1.6,0.6c1.7,0.3,3.2,0,4.4-1.3
	c0.7-0.7,1.2-1.6,1.8-2.4c1.8-2.5,3.5-5,5.3-7.4c1.6-2.2,3.8-2.9,6.4-1.1c0.6,0.4,1.2,0.8,1.8,1.2c17.1,12.4,34.1,24.9,51.2,37.3
	c0.9,0.7,1.8,1.4,2.8,2.1C874,192.8,875.8,194.3,876.8,196.3L876.8,196.3z M106.8,210.7c0.6,0.1,1.1-0.1,1.6-0.4
	c3.1-1.9,6.2-3.7,9.2-5.6c1.1-0.7,2.1-1.5,3-2.4c8.5-8.3,16.9-16.6,25.3-24.8c3.3-3.3,5.7-7.2,7.9-11.3c0.1-0.2,0.2-0.5,0.2-0.8
	c0-0.1-0.1-0.3-0.1-0.3c-0.3,0-0.6-0.1-0.8,0c-0.4,0.2-0.7,0.5-1,0.8c-5.5,5.6-11,11.1-16.3,16.7c-5.3,5.5-10.7,10.9-16.3,16.1
	c-3.8,3.5-7.7,6.9-11.6,10.4C107.5,209.5,106.8,209.9,106.8,210.7c-0.2-0.1-0.4-0.2-0.5-0.1c-0.7,0.3-0.8,0.8-0.3,0.8
	c0.3,0,0.5-0.1,0.8-0.3C106.9,211.1,106.9,210.9,106.8,210.7L106.8,210.7z M1012.1,219.1c4.5,0.4,9,0.5,13.5,0.1
	c2.1-0.2,4.3-0.8,6.3-1.4c4.7-1.3,8.6-4,11.8-7.7c1-1.2,2.1-2.4,3-3.7c7.2-10.3,13.3-21.3,17.7-33.2c4.7-12.9,8.2-26.2,10.1-39.8
	c0.6-4.4,1-8.9,1.4-13.3c0.2-2.2,0.1-4.3-0.3-6.5c0-0.2-0.3-0.5-0.5-0.6s-0.6,0-0.8,0.2c-2.4,2.1-3.5,4.9-3.9,8
	c-0.3,2.1-0.5,4.3-0.8,6.4c-0.4,3.3-0.7,6.6-1.2,9.9c-2.1,13-5.7,25.6-10.5,37.9c-3.5,8.9-7.7,17.4-12.6,25.6
	c-4.8,8.2-11.7,13.4-20.9,15.6c-3.5,0.9-7.1,1.5-10.7,1.7C1013.2,218.6,1012.6,218.5,1012.1,219.1L1012.1,219.1z M68.9,219.1
	c-1-0.7-1.7-0.6-2.4-0.6c-3.9-0.2-7.8-0.7-11.5-1.8c-8-2.2-14.4-6.6-18.9-13.6c-1.1-1.7-2.1-3.5-3.1-5.2c-4.4-7.8-8.1-16-11.3-24.3
	c-6.2-16-10.2-32.4-11.5-49.6c-0.1-1.6-0.3-3.2-0.7-4.7c-0.5-2.4-1.7-4.6-3.8-6.1c-0.3-0.2-1,0-1.1,0.4c-0.1,1-0.4,2-0.3,3
	c0.3,4.9,0.7,9.8,1.1,14.7c0.2,2.3,0.6,4.6,1.1,6.8c2.1,10.5,4.9,20.8,8,31c4.1,13.5,10.6,25.9,18.8,37.3c0.6,0.8,1.2,1.6,1.9,2.4
	c5.3,6.5,12.3,9.8,20.6,10.5C60.1,219.7,64.3,219.6,68.9,219.1z M162.4,182.1c-0.3,3.3,0.7,5.6,2.8,7.5s4.1,4.1,6.1,6.1
	c5.5,5.3,11,10.6,16.5,16c2.2,2.1,4.5,4.1,6.9,5.9c3,2.3,5.9,4.7,8.8,7c0.6,0.5,1.1,0.9,1.7,1.4c0.4,0.3,0.9,0.3,1.2,0
	c0.5-0.5,1.1-1,1.5-1.6c0.9-1.3,0.7-2.9-0.4-4c-0.5-0.5-1.1-1-1.6-1.5c-5.2-4.8-10.4-9.5-15.6-14.3c-7.1-6.5-14.2-13.1-21.4-19.6
	c-1.3-1.2-2.6-2.3-4-3.4c-0.4-0.3-1-0.5-1.5-0.7c-0.2-0.1-0.6,0.2-0.7,0.4C162.4,181.8,162.4,182.3,162.4,182.1L162.4,182.1z
	 M872.6,221.5c0.6,1.2,1.6,2,2.6,2.8c0.4,0.3,1.1,0.3,1.6,0c0.3-0.3,0.7-0.5,1-0.8c2.4-1.9,4.7-3.9,7.1-5.6c5-3.5,9.4-7.7,13.5-12.1
	c5.4-5.8,10.7-11.8,16.9-16.8c0.3-0.3,0.6-0.6,0.9-0.9c1.3-1.2,1.7-2.7,1.5-4.3c-0.1-0.8,0-1.8-0.9-2.3c-1-0.5-1.6,0.4-2.2,0.9
	c-0.5,0.4-0.8,0.8-1.3,1.2c-6.6,6-13.2,12.1-19.8,18.1c-6.5,5.9-13,11.9-19.5,17.9C873.5,220,872.8,220.5,872.6,221.5L872.6,221.5z
	 M974.5,211c-0.8-0.7-1.5-1.4-2.2-2c-4.9-4.1-9.6-8.3-14.1-12.8c-8-7.9-15.9-15.9-23.6-24.2c-2.5-2.6-5-5.2-7.6-7.8
	c-0.1-0.1-0.5-0.1-0.7-0.1c-0.1,0-0.2,0.2-0.2,0.3c0.2,0.8,0.3,1.7,0.6,2.5c1,2.6,2.4,4.9,4.3,7c1.8,2,3.7,4.1,5.6,6
	c5.9,5.9,11.8,11.9,17.8,17.8c2.3,2.2,4.6,4.4,7.3,6.2c3.9,2.5,7.8,4.9,11.8,7.3c0.2,0.1,0.5,0.1,0.8,0
	C974.3,211.3,974.3,211.2,974.5,211L974.5,211z M165.8,128.4c-0.1-0.8-0.3-2.2-0.5-3.7c0-0.1-0.2-0.1-0.3-0.1s-0.3,0.1-0.3,0.1
	c-0.2,1.7-0.3,3.4-0.5,5.1c-0.6,7.4-2.2,14.5-5.1,21.3c-0.6,1.3-1.1,2.6-1.6,4c-0.2,0.5-0.2,1.1-0.2,1.7c0,0.1,0.1,0.3,0.2,0.4h0.3
	c1.5-1.2,2.2-3,2.9-4.7C164,145,165.3,137.1,165.8,128.4L165.8,128.4z M162.2,122.8c-0.1-4-0.5-8.3-1.6-12.5
	c-0.2-0.8-0.6-1.6-0.9-2.4c-0.1-0.3-0.4-0.5-0.7-0.4c-0.2,0.1-0.4,0.5-0.4,0.7c0.1,2,0.1,4,0.8,6c0.9,2.8,1,5.6,0.7,8.5
	c-0.3,2.4-0.5,4.9,0.1,7.3c0.2,0.8,0,1.7-0.1,2.6c-0.3,1.6-1,3-2,4.3c-0.4,0.5-0.3,1.4,0.1,1.5s1.1-0.3,1.3-0.8
	c0.3-0.8,0.7-1.6,0.9-2.4C161.7,131.2,162.2,127.2,162.2,122.8L162.2,122.8z M915.3,125.1c-0.6,1.9-1.1,3.8-0.6,5.9
	c0.1,0.4,0,0.9,0.1,1.3c0.2,5.4,1.4,10.6,3,15.7c0.7,2.2,1.7,4.3,2.7,6.4c0.3,0.6,0.8,1.2,1.3,1.7c0.1,0.1,0.2,0.1,0.4,0.2
	c0.1-0.2,0.3-0.5,0.2-0.7c-0.5-1.5-1-3-1.6-4.5c-2.8-7.9-4.7-16-5.2-24.5C915.6,126.1,915.8,125.5,915.3,125.1L915.3,125.1z
	 M921.3,107.6c-0.2,0.2-0.5,0.3-0.7,0.5c-0.7,1.1-1.1,2.3-1.4,3.6c-1,5.1-1.6,10.2-1,15.4c0.4,3.5,1.1,6.8,2.2,10.1
	c0.2,0.5,0.4,1.1,1.1,1.2h0.4c0.1-0.1,0.3-0.2,0.3-0.3c0-0.4-0.1-0.9-0.3-1.2c-1.5-2.4-1.7-5.1-1.7-7.9v-2.2c0-1.9,0-3.7-0.6-5.6
	c-0.3-1-0.2-2,0-3c0.7-3.2,1.4-6.5,2.1-9.7c0.1-0.3,0-0.6-0.1-0.8C921.6,107.7,921.4,107.7,921.3,107.6L921.3,107.6z M156.8,151.6
	c-0.1-0.4,0-0.8-0.2-0.9c-0.1-0.1-0.6-0.2-0.7-0.1c-2.2,1.2-2.6,2.1-1.9,4.5c0.1,0.3,0.3,0.5,0.7,0.4c0.1,0,0.3-0.1,0.4-0.2
	C155.6,154,156.2,152.7,156.8,151.6z M926.5,153.3c0-1.7-0.7-2.6-2.3-3.4c-0.1-0.1-0.4-0.1-0.4,0c-0.2,0.2-0.4,0.5-0.3,0.7
	c0.5,1.3,1,2.6,1.5,3.9c0,0.1,0.2,0.2,0.3,0.3c0.3,0,0.7,0.1,0.7,0C926.2,154.2,926.3,153.7,926.5,153.3z M921,183.1
	c0-0.6,0-0.9-0.1-1.1s-0.3-0.4-0.4-0.6c-0.2,0.2-0.5,0.3-0.6,0.5c-0.4,0.7-0.5,1.6-0.2,2.4c0.1,0.2,0.4,0.2,0.7,0.3
	c0.1,0,0.3-0.1,0.3-0.1C920.8,183.9,921,183.3,921,183.1L921,183.1z M160.6,183.1c-0.1-0.4,0-0.7-0.2-1c-0.1-0.2-0.4-0.2-0.6-0.3
	c0,0-0.2,0.2-0.2,0.3c0,0.7,0.1,1.4,0.2,2.1c0,0.1,0.2,0.2,0.4,0.2c0.1,0,0.2-0.1,0.2-0.2C160.5,183.7,160.6,183.3,160.6,183.1
	L160.6,183.1z M79.7,218.1c-0.6-0.4-1.3-0.2-1.9-0.2c-0.1,0-0.2,0.2-0.3,0.3c0.1,0.1,0.2,0.2,0.3,0.2
	C78.4,218.4,79.1,218.6,79.7,218.1z M1001.7,218.3c0.2-0.1,0.4-0.2,0.6-0.3c-0.2-0.1-0.5-0.2-0.7-0.2s-0.4,0.1-0.6,0.2
	C1001.3,218.2,1001.5,218.3,1001.7,218.3z"/>
<path d="M812.6,325.9v51.2c0,1.3,0,2.6-0.1,3.9c-0.1,1.9-1.3,3.2-3.3,3.4c-1.1,0.1-2.3,0.1-3.5,0.1h-21.2c-1.4,0-2.9-0.1-4.3-0.3
	c-1.2-0.2-2.1-1-2.5-2.1c-0.3-1.1-0.6-2.2-0.6-3.4c-0.1-2.2,0-4.3,0-6.5c0-2.6,0.2-5.2,0.2-7.8v-51.6c0-2.9-0.3-5.8-0.5-8.6
	c0-0.2-0.3-0.5-0.5-0.6c-0.3-0.2-0.9-0.2-1.2,0.1c-1.8,1.9-3.3,4-4.6,6.3c-5.4,9.4-10.8,18.8-16.3,28.2
	c-7.7,13.4-15.5,26.8-23.3,40.1c-0.4,0.8-0.9,1.5-1.3,2.2c-1.3,2.3-3.5,3.4-6,3.9c-1,0.2-2,0.2-3,0.2c-3.9,0-7.8-0.1-11.7-0.2
	c-2,0-4-0.3-6-0.8c-2.6-0.7-4.8-2-6.5-4.1c-0.8-1-1.6-2.1-2.3-3.1c-0.9-1.3-1.7-2.7-2.5-4.1c-9.6-17.3-19.8-34.3-29.7-51.4
	c-2.9-5-5.9-9.9-9.3-14.7c-0.5-0.7-1-1.4-1.6-2c-0.2-0.2-0.5-0.2-0.8-0.2c-0.1,0-0.2,0.2-0.2,0.3c-0.2,0.5-0.4,1.1-0.5,1.6
	c-0.1,1.7-0.2,3.5-0.2,5.2v66.3c0,1.4,0,2.9-0.1,4.3c-0.1,1.5-1.1,2.4-2.5,2.6c-1,0.1-2,0.1-3,0.1c-5.4,0-10.7-0.1-16.1-0.1
	c-2.5,0-4.9,0.1-7.4,0.1c-1.2,0-2.3-0.1-3.5-0.2c-1.2-0.2-2.1-0.9-2.5-2.1c-0.3-0.8-0.5-1.7-0.6-2.5c-0.1-1,0-2,0-3V274.7
	c0-1-0.1-2,0-3c0.1-0.9,0.3-1.7,0.6-2.5c0.4-1.2,1.3-1.9,2.6-2c1-0.1,2-0.2,3-0.2h38.6c2.2,0,4.3,0.2,6.5,0.2c3,0,5.2,1.5,7,3.7
	c0.9,1.1,1.5,2.4,2.2,3.7c11,19.3,22,38.7,33.1,58c0.8,1.4,1.5,2.8,2.4,4.1c0.6,1,1.2,1.9,1.9,2.9c0.5,0.7,1.3,0.8,1.9,0.3
	c1.4-1.3,2.6-2.7,3.6-4.3c0.5-0.7,0.9-1.5,1.3-2.2c7.1-12.6,14.3-25.1,21.4-37.7c2.6-4.5,4.9-9.2,7.2-13.8c1.3-2.6,2.5-5.2,3.8-7.8
	c0.8-1.5,1.7-3,2.9-4.3c1.6-1.6,3.5-2.6,5.7-2.7c1-0.1,2-0.1,3-0.1c14.8,0.1,29.5,0.1,44.3,0.2c1,0,2,0.1,3,0.2
	c1.2,0.2,2.4,1.4,2.5,2.7c0.1,1.3,0.1,2.6,0.1,3.9v40.3C812.6,318,812.6,321.9,812.6,325.9L812.6,325.9z"/>
<path d="M522.6,384.3h-40.8c-6.4,0-12.7,0.1-19.1,0.2c-1.4,0-2.9-0.1-4.3-0.3c-1.6-0.2-2.6-1.2-3.1-2.7c-0.3-1.1-0.5-2.3-0.5-3.4
	v-13c0-2,0.1-4,0.1-6.1v-61.6c0-7.5-0.1-15-0.1-22.5c0-1.2,0-2.3,0.1-3.5c0.1-0.7,0.2-1.4,0.5-2.1c0.4-1.1,1.3-1.9,2.5-2.2
	c0.7-0.1,1.4-0.2,2.1-0.3h118.9c1.4,0,2.9,0,4.3,0.1c2.6,0.1,4.9,1.5,5,5.4c0,0.9,0,1.7-0.1,2.6c-0.4,3.6-0.3,7.2,0,10.8
	c0.1,1.4,0,2.9-0.2,4.3c-0.3,1.9-1.5,3.1-3.3,3.6c-1.1,0.3-2.3,0.4-3.4,0.4h-11.3c-5.4,0-10.7-0.1-16.1-0.1h-26
	c-9,0-17.9,0.1-26.9,0.1c-2.2,0-4.3,0.4-6.4,1c-0.9,0.3-1.5,0.9-1.6,1.9c-0.4,4.5-0.3,8.9,0.2,13.4c0.1,0.8,0.6,1.3,1.3,1.6
	c0.5,0.2,1.1,0.3,1.7,0.4c2,0.1,4,0.2,6.1,0.2h72c1.2,0,2.3-0.1,3.5,0c1,0.1,2,0.2,3,0.5c1.7,0.4,2.7,1.6,3.1,3.2
	c0.3,1.1,0.2,2.3,0.1,3.4c-0.4,4-0.6,8.1-0.1,12.1c0.1,0.4,0.1,0.9,0,1.3c-0.3,2.3-1.2,4.2-4.4,4.5c-1.4,0.1-2.9,0.1-4.3,0.1h-79
	c-0.7,0-1.4,0.2-2.1,0.4c-0.8,0.2-1.2,0.8-1.4,1.5c-0.1,0.6-0.2,1.1-0.2,1.7v11.3c0,2.4,1,3.4,3.5,3.5c1.2,0.1,2.3,0.1,3.5,0.1h29.1
	c5.2,0,10.4,0.2,15.6,0.2c12.6,0,25.2-0.1,37.7-0.2c1.2,0,2.3,0,3.5,0.1c0.7,0,1.5,0.2,2.1,0.4c1.3,0.5,2.2,1.4,2.5,2.8
	c0.2,0.8,0.3,1.7,0.3,2.6c-0.4,5.5-0.3,11,0,16.5c0,0.7,0,1.4-0.2,2.2c-0.4,1.9-1.6,3.1-3.4,3.5c-1,0.2-2,0.3-3,0.3
	c-3.8,0-7.5-0.1-11.3-0.1c-1.4,0-2.9-0.1-4.3-0.1L522.6,384.3L522.6,384.3z"/>
<path d="M429.2,326.1v50.7c0,1.4,0,2.9-0.2,4.3c-0.2,1.8-1.3,2.9-3.1,3.1c-1.1,0.1-2.3,0.2-3.5,0.2h-24.3c-1.2,0-2.3-0.1-3.5-0.2
	c-1.7-0.2-2.8-1.5-3-3.2c-0.1-1.1-0.1-2.3-0.1-3.5V348c0-1.3,0-2.6-0.1-3.9c-0.2-1.9-1.5-3.2-3.4-3.3c-1.3-0.1-2.6-0.1-3.9-0.1H332
	c-3.5,0-6.9-0.2-10.4-0.2c-1.9,0-3.8,0.1-5.6,0.2c-1.7,0.2-2.9,1.3-3.3,3c-0.1,0.4-0.1,0.9-0.2,1.3v1.3c0,10.5,0,21.1,0.1,31.6
	c0,1,0,2-0.1,3c-0.2,1.8-1.3,3-3,3.2c-1.3,0.2-2.6,0.2-3.9,0.2c-7.7-0.2-15.3-0.2-23,0c-1.3,0-2.6,0-3.9-0.1
	c-2.1-0.2-3.3-1.6-3.5-3.7c-0.1-0.6-0.1-1.2-0.1-1.7V275.2c0-1.3,0-2.6,0.1-3.9c0-0.7,0.2-1.4,0.5-2.1c0.5-1.1,1.3-1.9,2.6-2.1
	c0.7-0.1,1.4-0.2,2.1-0.3h27.7c0.7,0,1.4,0.1,2.1,0.3c1,0.3,1.8,1,2,2s0.3,2,0.3,3c0,9.4,0,18.8-0.1,28.2c0,1.2-0.1,2.3,0.1,3.5
	c0.1,0.8,0.3,1.7,0.6,2.5c0.3,0.7,0.8,1.2,1.5,1.5c1.1,0.5,2.2,0.8,3.4,0.8h6.1c3,0,6.1-0.2,9.1-0.2h39.1c3.3,0,6.6,0.1,10,0.2
	c1.2,0,2.3,0.1,3.5,0c1-0.1,2-0.3,3-0.6c1.5-0.5,2.4-1.6,2.7-3.1c0.1-1,0.2-2,0.2-3c0-9.5-0.1-19.1-0.1-28.6c0-1,0-2,0.1-3
	c0.2-2,1.5-3.2,3.4-3.4c0.9-0.1,1.7-0.1,2.6-0.1h25.2c1.2,0,2.3,0.1,3.4,0.3c1.2,0.2,2.1,1.1,2.4,2.2c0.3,0.8,0.4,1.7,0.4,2.5
	c0.1,1.3,0,2.6,0,3.9C429.2,292.6,429.2,309.3,429.2,326.1L429.2,326.1z"/>
<path d="M476.7,480.4v-37.3c0-4.9,0.2-9.8,0.2-14.7c0-4.2,2.2-7,6.4-8c7.2-1.6,14.9,2.1,17.9,8.9c2,4.5,3.8,9.1,5.7,13.6
	c9.3,22.1,18.6,44.2,27.9,66.3c0.6,1.5,1.4,2.9,2.1,4.3c0.3,0.6,1,0.7,1.3,0.1c0.6-1.2,1.2-2.3,1.7-3.5
	c8.9-20.4,17.9-40.7,26.8-61.1c2.6-6,5.2-11.9,7.8-17.9c0.6-1.3,1.1-2.7,1.9-3.9c2.2-3.8,5.5-6.2,9.9-7.1c3.3-0.7,6.3,0,9.2,1.5
	c1.7,0.9,2.9,2.4,3.4,4.3c0.3,1.1,0.5,2.3,0.6,3.4c0.1,1,0,2,0,3V529c0,1.2,0.1,2.3,0,3.5c-0.1,1.1-0.4,2.3-0.8,3.3
	c-0.6,1.5-1.8,2.5-3.5,2.9c-2.5,0.6-4.9,0.2-7.2-0.6c-1.6-0.6-2.6-1.8-2.9-3.5c-0.2-1.3-0.3-2.6-0.3-3.9c0-2,0-4,0.1-6.1
	c0.1-15.2,0.2-30.3,0.2-45.5c0-10.7-0.1-21.4-0.2-32.1c0-0.9-0.1-1.7-0.2-2.6c0-0.1-0.2-0.2-0.3-0.2c-0.3,0-0.7-0.1-0.8,0.1
	c-0.6,1-1.2,2-1.6,3c-4.2,9.7-8.3,19.4-12.5,29c-7.8,17.9-15.5,35.8-23.3,53.6c-0.5,1.1-0.9,2.1-1.4,3.2c-1.1,2.4-2.9,4-5.2,5
	c-2.8,1.2-6.4,0.9-9-2.2c-1-1.2-1.7-2.7-2.3-4.2c-1.5-3.7-3-7.5-4.6-11.2c-9.6-23.5-19.2-47.1-28.8-70.6c-0.5-1.2-1.1-2.4-1.7-3.5
	c-0.1-0.2-0.4-0.4-0.7-0.5c-0.2,0-0.6,0.1-0.8,0.3s-0.2,0.5-0.2,0.8v84.9c0,0.7-0.1,1.4-0.3,2.1c-0.8,3-3.1,5-6.2,5.2
	c-1.6,0.1-3.2,0-4.7-0.6c-2-0.7-3-2.1-3.4-4.1c-0.2-1-0.1-2-0.1-3v-14.3C476.7,505,476.7,492.7,476.7,480.4L476.7,480.4L476.7,480.4
	z"/>
<path d="M456.8,473.3c-0.1,6.8,0,12.5-0.3,18.1c-0.3,6.5-1,13-2.5,19.3c-0.9,3.7-2.2,7.2-3.9,10.5c-4.1,8-10.4,13.3-19.1,15.9
	c-6.6,2-13.3,2.9-20.1,2.6c-9.5-0.4-17.3-4.4-23.1-11.9c-3-3.8-5.1-8.1-6.6-12.6c-1.9-5.6-3.3-11.4-3.6-17.3
	c-0.3-5.2-0.8-10.4-0.9-15.6c-0.1-8.8,0.1-17.6,1.8-26.3c1.4-7,3.7-13.6,7.5-19.7c2.3-3.7,5.1-7,8.6-9.7c5.2-4,11-6.2,17.5-6.8
	c4.2-0.4,8.4-0.4,12.6,0.1c6.2,0.7,11.9,2.6,16.7,6.6c1.3,1.1,2.6,2.3,3.8,3.6c6.4,7.3,10.1,15.8,10.7,25.5
	C456.3,461.8,456.6,468.1,456.8,473.3L456.8,473.3z M391.5,479.6c0.2,3.1,0.5,7.7,0.8,12.3c0.4,7.3,2,14.3,4.3,21.1
	c0.4,1.2,0.9,2.4,1.5,3.6c2.3,4.5,5.9,7.4,10.6,9c3.8,1.2,7.7,1.3,11.6,0.9c5.4-0.5,9.9-3,13.3-7.3c1.1-1.5,2.1-3.1,3-4.8
	c2.1-4.1,3.5-8.5,4.4-13.1c1.4-7,1.8-14,2.1-21.1c0-1-0.1-2-0.2-3c-0.4-4.3-0.7-8.6-1.2-12.9c-0.4-3.6-0.9-7.2-1.5-10.7
	c-0.6-3.4-1.6-6.7-3.2-9.8c-2.5-4.8-6.3-8.2-11.4-10c-1.6-0.6-3.3-1-5-1.3c-6.5-1.3-12.3,0.5-17.3,4.8c-2.3,2-4.1,4.4-5.5,7.2
	c-1.1,2.2-2,4.5-2.7,6.8C392.2,459.9,391.5,468.9,391.5,479.6L391.5,479.6z"/>
<path d="M698.8,473.3c0.3,10.3,0,19.4-0.9,28.4c-0.5,5.6-1.9,11.1-4.4,16.2c-5.2,10.8-13.6,17.8-25.3,20.6
	c-7.9,1.8-15.8,1.8-23.5-0.9c-9.9-3.4-16.7-10.1-20.5-19.8c-1.1-2.8-1.8-5.8-2.4-8.8c-0.8-4.4-1.4-8.8-2-13.3
	c-0.5-3.6-0.9-7.2-1.4-10.7c-0.3-1.9-0.4-3.7-0.3-5.6c0.4-6.5,0.8-13,1.7-19.4c0.9-6,2.4-11.9,4.9-17.5c1.9-4.2,4.3-8.2,7.4-11.7
	c6-6.8,13.6-10.6,22.7-11.3c4-0.3,8.1-0.3,12.1,0.1c8.5,0.9,15.8,4.4,21.3,11.2c5,6.1,8.1,12.9,9.5,20.6c0.2,1.3,0.3,2.6,0.4,3.9
	C698.4,461.8,698.9,468.2,698.8,473.3z M633.6,477.7c0.3,4.6,0.6,9.2,0.9,13.8c0.4,7.4,2.1,14.6,4.5,21.6c0.4,1.1,0.8,2.2,1.3,3.2
	c3,6.1,7.9,9.5,14.6,10.2c2.3,0.2,4.6,0.3,6.9,0.1c6.5-0.4,11.5-3.4,15.2-8.8c1.3-1.9,2.3-4,3.2-6.1c2-4.8,3.2-9.9,4-15
	c0.5-3.7,0.9-7.5,1.4-11.2s0.7-7.5-0.3-11.2c-0.1-0.6-0.1-1.1-0.2-1.7c-0.9-5.7-1.8-11.4-2.8-17.1c-0.6-3.1-1.3-6.2-2.1-9.3
	c-1.8-6.3-6-10.4-12.2-12.5c-3.2-1.1-6.4-1.6-9.8-1.5c-6,0.2-10.9,2.6-14.8,7.1c-2.1,2.5-3.6,5.2-4.7,8.2c-1.3,3.4-2.3,6.8-3,10.4
	C634.1,464.4,633.6,471,633.6,477.7L633.6,477.7z"/>
<path d="M121.5,420.6h3.5c1.5,0,2.8,0.8,3.8,1.9c1.1,1.2,1.7,2.7,2.3,4.2c1.1,2.8,2.1,5.7,3.1,8.5c11.6,31,23.2,61.9,34.7,92.9
	c0.4,0.9,0.8,1.9,1,2.8c0.3,1.1,0.5,2.3,0.5,3.4c0.1,1.4-0.5,2.6-1.6,3.4c-4.3,3.1-9.9,2.3-12.8-2.4c-0.6-1-1-2.1-1.4-3.1
	c-2.3-6.4-4.7-12.7-7-19.1c-0.4-1.2-0.8-2.5-1.4-3.7c-0.7-1.7-2-2.8-3.9-3.2c-0.7-0.1-1.4-0.3-2.1-0.3c-2.5,0-4.9-0.1-7.4,0
	c-5.3,0.3-16.5,0.3-22.1,0c-2.7-0.1-5.5-0.1-8.2,0c-0.6,0-1.1,0.1-1.7,0.2c-1.7,0.3-2.9,1.3-3.6,2.8c-0.4,0.8-0.6,1.6-0.9,2.4
	c-2.4,6.8-4.7,13.6-7.1,20.5c-0.7,2.1-1.7,4-3.3,5.5c-3.1,2.9-7.8,2.7-10.5,1.1c-1.8-1.1-2.6-2.7-2.3-4.8c0.1-1,0.4-2,0.7-2.9
	c1-3,2-6,3.1-9c7.5-20.3,15-40.6,22.5-60.9c3.9-10.6,7.7-21.1,11.6-31.7c0.5-1.4,1-2.7,1.6-4c0.4-0.8,0.8-1.6,1.3-2.2
	c1.1-1.4,2.6-2.3,4.5-2.3C119.4,420.6,120.4,420.6,121.5,420.6L121.5,420.6L121.5,420.6z M121.7,492.9h15.2c1,0,2-0.1,3-0.2
	c0.3,0,0.7-0.7,0.6-1c-0.2-0.7-0.4-1.4-0.7-2.1c-5.5-14.9-11.1-29.7-16.6-44.6c-0.3-0.7-0.5-1.3-0.8-2c-0.2-0.4-0.5-0.7-1-0.8
	s-1.1,0.3-1.4,0.8c-0.4,1.1-0.8,2.2-1.2,3.2c-3.1,8.7-6.3,17.4-9.4,26c-2.1,5.8-4.2,11.7-6.3,17.5c-0.2,0.7-0.3,1.4-0.5,2.1
	c-0.1,0.3,0.1,0.6,0.5,0.6c0.9,0.1,1.7,0.3,2.6,0.3C111,492.9,116.3,492.9,121.7,492.9z"/>
<path d="M184.7,465.5c0.1-6.6,0.2-13.3,0.2-19.9c0-5.8-0.1-11.6-0.1-17.3c0-1.3,0-2.6,0.2-3.9c0.2-1.7,1.3-2.9,3-3.4
	c2.4-0.7,4.9-0.6,7.3,0c1.5,0.4,2.6,1.4,2.9,2.9c0.2,1.1,0.5,2.3,0.5,3.4c0,2.3-0.1,4.6-0.2,6.9c0,1.2-0.1,2.3-0.1,3.5
	c0,13.3-0.1,26.6,0,39.9c0,5.1,0.3,10.1,0.3,15.2c0.1,4.8,0.8,9.5,2,14.1c1.1,4.7,3.2,9,6.7,12.4c2,1.9,4.2,3.5,6.8,4.6
	c3.6,1.6,7.4,2.5,11.3,2.6c1.3,0,2.6,0.1,3.9,0c10.8-0.4,18.3-5.5,22.6-15.3c0.6-1.4,1.1-3,1.5-4.5c1.1-4.4,1.7-8.8,1.7-13.3
	c0-19.8,0.1-39.6,0.1-59.4c0-1.6-0.1-3.2-0.1-4.8c0-1.4,0.1-2.9,0.4-4.3c0.5-2.4,2.1-3.8,4.5-4.1c1.7-0.2,3.5-0.2,5.2,0
	c2.6,0.3,4.4,2.2,4.7,4.9c0.1,1,0.1,2,0.1,3v62c0,4.8-0.2,9.5-0.9,14.3c-0.7,4.3-1.8,8.5-3.6,12.4c-3.8,8.2-9.9,14.1-18,18
	c-5.7,2.7-11.7,4-18,4.3c-6.9,0.3-13.6-0.4-20-2.8c-13.8-5.3-21.7-15.3-24.3-29.7c-0.5-2.7-0.4-5.5-0.4-8.2
	C184.7,487.8,184.7,476.6,184.7,465.5L184.7,465.5L184.7,465.5z"/>
<path d="M946.6,479v-47.2c0-2,0.1-4,0.4-6c0.4-2.6,1.9-4.2,4.4-4.7c0.8-0.2,1.7-0.3,2.6-0.3c1-0.1,2,0,3,0h26.5
	c5.5,0,11-0.1,16.5-0.1c1.4,0,2.9,0.1,4.3,0.2c1.2,0.1,2.3,0.5,3.3,1.1c0.9,0.5,1.6,1.3,2,2.2c0.9,2.2,0.9,4.5,0,6.7
	c-0.5,1.3-1.4,2.2-2.7,2.7c-1.2,0.5-2.5,0.9-3.8,0.9h-31.2c-1.4,0-2.9-0.1-4.3-0.1c-1.2,0-2.3,0.1-3.4,0.3c-1.2,0.2-2,1.1-2.4,2.3
	c-0.4,1.1-0.3,2.3-0.4,3.4V466c0,0.7,0.2,1.4,0.4,2.1c0.3,1,1,1.7,2,2.1c1.7,0.5,3.4,0.6,5.1,0.5c5.5-0.5,11-0.3,16.5,0
	c1.6,0.1,3.2,0,4.8,0c2.2-0.1,4.3-0.2,6.5-0.2c1.1,0,2.3,0.2,3.4,0.5c2,0.5,3.2,1.9,3.6,3.9c0.3,1.4,0.3,2.9,0.1,4.3
	c-0.2,1.9-1.4,3.1-3.2,3.7c-0.8,0.3-1.7,0.3-2.6,0.3c-1.9,0.1-3.8,0-5.6,0h-26.9c-2.6,0.1-3.9,1.5-4.1,4.1v31.2c0,0.9,0,1.7,0.1,2.6
	c0.2,1.7,1.3,2.9,3,3.3c0.6,0.1,1.1,0.2,1.7,0.2h36c1.2,0,2.3,0,3.5,0.1c2.3,0.3,4,1.5,4.9,3.8c0.7,1.8,0.8,3.7,0.5,5.5
	c-0.4,2.2-1.8,3.6-4,4c-1,0.2-2,0.2-3,0.2h-46.8c-2,0-4-0.1-6-0.6c-2.1-0.6-3.5-1.9-4-4.1c-0.4-2.1-0.6-4.3-0.5-6.5v-32.5
	C946.6,489.4,946.6,484.2,946.6,479L946.6,479z"/>
<path d="M883.1,516.2c0.7-0.1,1-0.6,1.2-1.1c1-2.4,2-4.8,2.8-7.3c5.5-16.3,11-32.6,16.6-48.8c3.1-9.3,6.3-18.6,9.4-27.9
	c0.6-1.8,1.2-3.6,1.9-5.3c0.4-0.9,0.8-1.9,1.4-2.7c0.8-1.3,2-2.1,3.5-2.3c2.7-0.3,5.5-0.3,8.2,0.1c0.3,0,0.5,0.2,0.8,0.3
	c1.6,0.6,2.5,2,2.1,3.8c-0.5,1.8-1,3.6-1.7,5.4c-5.2,14.4-10.4,28.8-15.6,43.2c-6.8,18.9-13.6,37.8-20.4,56.7c-0.3,1-0.7,1.9-1,2.8
	c-1.4,3.5-4,5.6-7.8,6.2c-1.1,0.2-2.3,0.2-3.5,0.2c-3-0.2-5.3-1.5-6.7-4.1c-0.8-1.5-1.5-3.1-2-4.8c-3.2-9-6.4-18-9.6-26.9
	c-9-25-18-50-27.1-75c-0.3-0.9-0.7-1.9-0.9-2.9c-0.3-1.6,0.2-2.9,1.4-3.8c0.6-0.4,1.2-0.8,1.9-1c3-0.7,6-0.6,8.9,0.8
	c1.4,0.7,2.4,1.7,2.9,3.1c1.4,3.8,2.9,7.5,4.3,11.4c7,19.8,13.9,39.5,20.8,59.3c1.6,4.5,3.1,9,4.7,13.5
	C880.6,511.4,881.5,514,883.1,516.2L883.1,516.2z"/>
<path d="M739.8,485.5c-0.1-6.9-0.2-13.9-0.2-20.8c0-7.5,0.1-15,0.1-22.5c0-1.2,0-2.3-0.1-3.5c0-0.6-0.2-1.1-0.4-1.7
	c-0.5-1.3-1.5-2.2-2.8-2.4s-2.6-0.3-3.9-0.3c-7.2,0-14.5,0.1-21.7,0.1c-1.3,0-2.6-0.3-3.8-0.8c-1.4-0.6-2.4-1.6-2.9-3
	c-0.6-1.8-0.8-3.6-0.3-5.5c0.6-2.4,2.2-3.7,4.5-4.2c1.1-0.3,2.3-0.3,3.4-0.3h7.8c20.1,0,40.2,0.1,60.3,0.1c1.3,0,2.6-0.1,3.9-0.1
	c1,0,2,0,3,0.2c2.3,0.5,3.9,1.9,4.5,4.2c0.4,1.5,0.4,3.2,0,4.7c-0.5,2.1-1.8,3.6-3.9,4.2c-1.1,0.4-2.3,0.5-3.4,0.5
	c-7.4,0-14.8-0.1-22.1-0.1c-0.9,0-1.7,0-2.6,0.1c-2,0.2-3.2,1.2-3.6,3.2c-0.2,1-0.4,2-0.4,3c-0.1,1.9,0,3.8,0,5.6
	c0,2.5,0.2,4.9,0.2,7.4v73.3c0,1.9-0.1,3.8-0.2,5.6c0,0.6-0.1,1.2-0.3,1.7c-0.6,2.4-2,4.1-4.6,4.7c-2.2,0.6-4.3,0.5-6.4-0.2
	c-1.8-0.6-3-1.8-3.6-3.5c-0.4-1.2-0.6-2.5-0.8-3.8c-0.1-1.1,0-2.3,0-3.5C739.7,513.8,739.7,499.6,739.8,485.5L739.8,485.5
	L739.8,485.5z"/>
<path d="M321,485.6v-43.3c0-1.6,0.1-3.2-0.4-4.7c-0.6-1.9-1.7-3-3.7-3.2c-1-0.1-2-0.1-3-0.1c-7.2,0-14.5,0.1-21.7,0.1
	c-1.2,0-2.3-0.2-3.4-0.5c-2.3-0.8-3.6-2.4-4-4.7c-0.2-1.3-0.2-2.6,0-3.9c0.2-1.7,1.1-3,2.6-3.7c1-0.5,2.1-0.9,3.3-0.9H367
	c1.2,0,2.3,0.5,3.3,1.1c0.9,0.5,1.6,1.3,1.9,2.3c0.7,1.9,0.9,3.9,0.2,5.9c-0.6,1.8-1.7,3-3.4,3.7c-0.8,0.3-1.7,0.5-2.5,0.6
	c-1.6,0.1-3.2,0.2-4.8,0.2h-19.1c-1,0-2,0-3,0.1c-1.4,0.2-2.3,1.1-2.7,2.5c-0.2,0.7-0.3,1.4-0.3,2.1v89.3c0,2,0,4-0.5,6
	c-0.7,2.5-2.2,4-4.7,4.6c-2,0.5-4,0.5-6-0.2c-1.8-0.6-3-1.7-3.6-3.5c-0.3-0.9-0.6-1.9-0.7-2.9c-0.1-1.4-0.1-2.9-0.1-4.3
	C321,514,321,499.8,321,485.6L321,485.6L321,485.6z"/>
<path d="M804.2,479.2v-50.7c0-1.3,0-2.6,0.1-3.9c0.2-2.2,1.7-3.8,3.9-3.9c1.9-0.1,3.8,0,5.6,0.1c0.7,0,1.4,0.3,2.1,0.6
	c1.4,0.5,2.1,1.5,2.5,2.8c0.2,0.5,0.2,1.1,0.3,1.7c0.1,2,0.3,4,0.3,6.1v98c0,1.6-0.1,3.2-0.3,4.7s-1.1,2.7-2.4,3.4
	c-2.7,1.3-5.5,1.8-8.4,0.8c-1.6-0.6-2.7-1.7-3.1-3.3c-0.2-0.8-0.4-1.7-0.4-2.6c-0.1-1.2,0-2.3,0-3.5
	C804.2,512.7,804.2,495.9,804.2,479.2L804.2,479.2z"/>
<path d="M548.4,36.9c-3,0.2-5.6,0.1-8.2,0.1c-1,0-1.6-0.7-1.8-1.6c-0.3-1.1-0.7-2.2-1-3.3c-1.7-5.7-3.5-11.3-5.2-17
	c-0.2-0.5-0.4-1.1-0.7-1.5c-0.1-0.1-0.5-0.1-0.9-0.1v2.2c0.2,5,0.1,10.1,0.5,15.1c0.1,1.7,0,3.5-0.1,5.2c0,0.5-0.6,1.1-1.1,1.1
	c-2.7,0.1-5.5,0.1-8.2,0.2c-0.5,0-1.1-0.6-1.1-1.1c-0.2-3.3-0.3-6.6-0.5-9.9c-0.2-4.8-0.4-9.5-0.6-14.3c-0.1-3.3-0.2-6.6-0.2-10
	c0-1,0.6-1.6,1.6-1.7c2.6-0.1,5.2-0.3,7.8-0.3s4.9,0,7.4,0.1c0.6,0,1.1,0.3,1.3,0.9c1.2,3.8,2.5,7.7,3.7,11.6c0.7,2.2,1.3,4.4,2,6.6
	c0.2,0.5,0.4,1,1.2,1c0.4-1.1,0.7-2.1,1.1-3.2c1.5-4.7,2.9-9.4,4.3-14.1c0.3-0.9,0.7-1.8,1.1-2.8c1-0.1,1.9-0.2,2.7-0.1
	c3.6,0,7.2,0.1,10.8,0.2c1.1,0,2.3,0.3,3.4,0.6c0.2,0,0.5,0.4,0.6,0.6c0.1,0.8,0.3,1.7,0.2,2.6c-0.5,6.3-0.6,12.7-0.9,19
	c-0.2,3.9-0.4,7.8-0.6,11.7c0,0.6-0.1,1.2-0.2,1.7c-0.1,0.4-0.4,0.9-0.8,0.9c-2.7,0-5.5-0.1-8.2-0.1c-0.7,0-1.3-0.7-1.3-1.4
	c0-2.6,0-5.2,0.1-7.8c0.1-4.2,0.2-8.4,0.3-12.5c0-0.6-0.1-1.1-0.2-1.7c0-0.1-0.2-0.2-0.3-0.2s-0.4,0-0.4,0.1
	c-0.4,1.1-0.8,2.1-1.2,3.2c-1.7,5.4-3.3,10.7-5,16.1C549.3,34.1,548.9,35.3,548.4,36.9L548.4,36.9z"/>
<path d="M763.6,44.6c3.8,1.5,7.6,3.1,11.3,4.9c1.5,4.9,2.6,9.7,3.8,14.4c0.7,2.9,1.5,5.9,2.3,8.8c0,0.1,0.2,0.2,0.3,0.3
	c0.3,0.2,0.5,0.2,0.7-0.1c0.4-0.6,0.7-1.2,1-1.9c1.4-2.8,2.8-5.7,4.2-8.6c0.7-1.4,1.4-2.9,2.1-4.3c0.3-0.5,0.7-0.9,1.1-1.3
	c0.7,0.2,1.3,0.4,1.8,0.6c2.7,1.3,5.4,2.7,8.1,4.1c1.3,0.7,1.5,1.3,1,2.4c-5.1,10-10.3,20-15.4,30c-0.2,0.4-0.5,0.7-0.8,1
	c-2.6-0.7-6.6-2.6-11.1-5.3c-0.4-1.7-0.8-3.5-1.3-5.3c-1.2-5.2-2.4-10.4-3.7-15.6c-0.2-0.8-0.4-1.7-1.1-2.3
	c-0.8,0.5-1.1,1.3-1.4,2.1c-1.8,3.9-3.5,7.9-5.3,11.8c-0.3,0.7-0.6,1.3-0.9,1.9c-0.2,0.4-1,0.7-1.5,0.4c-1.5-0.6-2.9-1.3-4.4-1.9
	c-1.6-0.7-3.2-1.4-4.7-2.1c-0.4-0.2-0.7-1-0.6-1.5c0.1-0.4,0.3-0.8,0.4-1.2c4.2-10,8.4-19.9,12.6-29.9
	C762.4,45.5,762.7,44.9,763.6,44.6L763.6,44.6z"/>
<path d="M430,11.8c0.5-0.3,0.8-0.6,1.2-0.7c3.4-0.9,6.8-1.5,10.2-1.9c0.5-0.1,1.2,0.4,1.3,0.9c0.5,2.3,0.9,4.5,1.3,6.8
	c1.6,8.5,3.1,17,4.6,25.5c0.1,0.4,0.1,0.9,0.2,1.3c0.1,1-0.4,1.7-1.3,1.9c-3.1,0.6-6.2,1.2-9.4,1.8c-0.5,0.1-1.2-0.2-1.6-0.4
	c-0.7-0.5-1.3-1.1-2-1.6c-4.5-3.8-9.1-7.6-13.6-11.4c-0.5-0.5-1.2-0.8-1.8-1.2c-0.3-0.2-0.6,0-0.7,0.3c0,0.7,0,1.4,0.1,2.1
	c0.9,4.1,1.9,8.1,2.9,12.2c0.2,0.7,0.3,1.4,0.4,2.1c0.1,0.8-0.2,1.4-1,1.6c-3.1,0.8-6.2,1.6-9.2,2.3c-0.1,0-0.3,0.1-0.4,0
	c-0.3-0.1-0.6-0.2-0.7-0.4c-0.3-0.6-0.6-1.3-0.8-2c-2.1-8-4.1-15.9-6.2-23.9c-0.7-2.7-1.4-5.3-2-8c-0.2-0.8,0.2-1.5,0.9-1.7
	c3.6-0.9,7.3-1.8,10.7-2.6c1.5,0.5,2.5,1.4,3.5,2.2c4.5,3.6,9,7.3,13.5,10.9c0.7,0.5,1.3,1.1,2.1,1.6c0.2,0.1,0.5,0,0.8,0
	c0.1,0,0.2-0.3,0.2-0.4c-0.1-1-0.2-2-0.4-3c-0.8-4.2-1.7-8.5-2.6-12.7C430.1,12.9,430.1,12.4,430,11.8z"/>
<path d="M218.3,129.7c-0.6,0.4-1.1,0.6-1.6,1c-3,2.3-6,4.6-8.9,6.9c-0.2,0.2-0.3,0.5-0.5,0.8c0.1,0.3,0.2,0.8,0.5,1.1
	c0.8,1.1,1.6,2.1,2.4,3.1c1.4,1.8,2.9,3.6,4.3,5.5c1.4,1.8,1.4,2.2-0.3,3.5c-2.2,1.8-4.5,3.6-6.8,5.4c-0.2,0.2-0.4,0.4-0.7,0.5
	c-0.9,0.7-1.6,0.6-2.3-0.1c-0.3-0.3-0.6-0.7-0.8-1c-6.6-8-13.3-16-19.9-24c-0.5-0.6-0.9-1.1-1.2-1.8c-0.2-0.4-0.2-0.8,0.2-1.2
	l0.3-0.3c3-2.4,6.1-4.9,9.1-7.3c0.6-0.5,1.4-0.4,1.9,0.3c0.9,1.1,1.8,2.2,2.7,3.4c1.3,1.6,2.5,3.2,3.8,4.7c0.3,0.3,0.7,0.4,1.2,0.3
	c0.1-0.1,0.3-0.1,0.4-0.2c3.3-2.5,6.7-5.1,10-7.6c0.2-0.2,0.3-0.5,0.6-0.8c-0.4-0.7-0.9-1.4-1.4-2.1c-1.7-2.3-3.4-4.7-5.1-7
	c-0.5-0.7-0.4-1.3,0.3-1.9c3.3-2.5,6.7-5,10.2-7.3c0.4,0.3,0.8,0.5,1.1,0.8c0.4,0.4,0.7,0.9,1,1.4l18,25.5c0.2,0.4,0.5,0.7,0.7,1.1
	c0.6,0.9,0.5,1.5-0.5,2.2c-2.8,2-5.6,4.1-8.4,6.1c-0.7,0.5-1.5,0.4-1.9-0.2c-1.4-1.8-2.8-3.7-4.2-5.5c-1-1.3-1.9-2.6-2.9-3.8
	C219.3,130.4,218.8,130.1,218.3,129.7L218.3,129.7z"/>
<path d="M344.2,74.9c-0.3,0.4-0.5,0.9-0.8,1c-3.4,1.5-6.9,2.9-10.3,4.3c-0.7-0.2-1.1-0.6-1.4-1.2c-0.8-1.9-1.6-3.7-2.4-5.6
	c-0.6-1.5-1.3-2.9-1.9-4.4c-0.8-1.8-1.3-2.1-3-1.3c-3.2,1.4-6.3,2.8-9.5,4.3c-0.6,0.3-0.9,0.7-1.2,1.4c0.9,2,1.9,4.1,2.9,6.2
	c0.9,2.1,2.1,4.1,2.8,6.3c-0.4,0.4-0.7,0.7-1.1,0.9c-3.1,1.5-6.2,3-9.4,4.5c-0.8,0.4-1.3,0.2-1.8-0.6c-0.2-0.4-0.4-0.8-0.6-1.1
	c-4.5-9.2-9.1-18.4-13.6-27.6c-0.4-0.8-0.8-1.6-1.1-2.4c-0.2-0.4-0.1-0.8,0.3-1.2c0.1-0.1,0.2-0.2,0.3-0.3c3.5-1.7,7-3.4,10.5-5.1
	c0.5-0.2,1.2,0.1,1.5,0.6c1.1,2.2,2.1,4.4,3.2,6.7c0.4,0.9,0.9,1.8,1.3,2.7c0.4,0.8,0.9,1,1.8,0.6c3.6-1.6,7.1-3.2,10.7-4.8
	c0.7-0.3,1-1.1,0.6-1.8c-1-2.4-2-4.8-3-7.2c-0.3-0.8-0.7-1.6-1-2.4c-0.1-0.4,0.1-1,0.4-1.1c0.6-0.3,1.3-0.7,1.9-1
	c2.9-1.2,5.9-2.4,8.8-3.6c0.7-0.3,1.5,0,1.8,0.7s0.6,1.3,0.9,2c3.8,9.4,7.6,18.7,11.4,28.1C343.6,73.3,343.9,74.1,344.2,74.9
	L344.2,74.9z"/>
<path d="M670.1,14.3c2.8,0.7,6.3,1.5,9.8,2.4c1,0.2,1.5,1,1.2,1.9c-0.6,2.5-1.3,5-1.9,7.6c-0.2,0.7-0.3,1.4-0.4,2.1
	c-0.1,0.7,0.3,1.4,1.1,1.6c3.8,1,7.5,2,11.3,3c0.5,0.1,1.2-0.3,1.4-0.8c0.7-2.2,1.3-4.4,1.9-6.7c0.4-1.2,0.7-2.5,1.2-3.7
	c0.1-0.3,0.8-0.6,1.1-0.5c3.8,1,7.5,2.2,11.2,3.3c0.5,0.2,0.9,0.9,0.8,1.4c-0.2,0.7-0.3,1.4-0.5,2.1c-3,9.7-5.9,19.3-8.9,29
	c-0.2,0.7-0.4,1.4-0.7,2.1c-0.2,0.6-1,1-1.8,0.8c-3.3-1-6.6-1.9-10-2.9c-0.5-0.1-0.9-0.9-0.8-1.4c0.9-3.3,1.8-6.7,2.8-10
	c0.2-0.7,0.3-1.4,0.5-2.1c0.1-0.5-0.3-1.3-0.8-1.4c-3.6-1-7.2-1.9-10.9-2.9c-0.9-0.2-1.7,0.3-1.9,1.3c-0.8,3.1-1.5,6.2-2.3,9.2
	c-0.1,0.6-0.3,1.1-0.5,1.7c-0.5,1.6-0.8,1.7-2.5,1.3c-0.7-0.2-1.4-0.3-2.1-0.5c-2.4-0.6-4.8-1.2-7.1-1.8c-0.8-0.2-1.1-0.7-0.9-1.7
	c0.1-0.4,0.2-0.8,0.3-1.3c0.9-4.2,1.9-8.5,2.8-12.7c1.4-6.1,2.8-12.1,4.2-18.1c0.1-0.4,0.2-0.8,0.3-1.3
	C668,14.4,668.6,14,670.1,14.3L670.1,14.3z"/>
<path d="M298.4,90.6c-2.1,4-4.8,7.5-8,10.2c-4,3.4-8.5,6-13.4,7.9c-2.3,0.9-4.7,1.4-7.2,1.5c-2.4,0.1-4.7-0.3-6.8-1.2
	c-7.2-3.2-11.3-8.7-12.3-16.6c-0.4-2.9,0.2-5.8,1.5-8.4c1.3-2.8,3.1-5.2,5.5-7.2c4.4-3.6,9.3-6.3,14.6-8.4c1.6-0.6,3.3-0.9,5.1-1
	c3.6-0.2,6.8,0.8,9.6,3.2c0.6,0.5,0.6,1.3-0.1,1.8c-2.9,2.1-5.8,4.3-8.7,6.4c-0.2,0.2-0.5,0.2-0.8,0.3c-0.9,0.1-1.6-0.5-2.4-0.7
	c-1.1-0.4-2.3-0.4-3.4-0.1c-2.4,0.7-4.5,1.9-6.2,3.8c-1.7,2-2.4,4.3-1.9,6.8c0.7,3.3,2.4,6.2,4.8,8.6s5.3,2.9,8.4,1.9
	c3.7-1.2,6.6-3.5,8.6-6.9c0.5-0.9,0-1.7-0.5-2.4c-0.4-0.6-0.9-0.8-1.5-0.5c-1.5,0.8-3.1,1.6-4.6,2.4c-0.5,0.3-1,0.6-1.6,0.7
	c-0.4,0.1-1-0.1-1.1-0.4c-1-1.6-1.9-3.2-2.8-4.9c-0.2-0.4,0-1.3,0.4-1.6c0.1-0.1,0.2-0.2,0.4-0.2c5.2-2.8,10.4-5.6,15.6-8.4
	c0.2-0.1,0.6-0.2,0.8-0.2c0.5-0.1,0.8,0.2,1.1,0.5c0.2,0.2,0.4,0.4,0.5,0.7c1.9,3.7,3.8,7.5,5.7,11.2
	C298.2,89.8,298.3,90.2,298.4,90.6z"/>
<path d="M458.1,43.7c-1-1.1-1.1-2.2-1.2-3.1c-1.3-7.7-2.5-15.4-3.7-23.1c-0.4-2.6-0.8-5.1-1.3-7.7c-0.1-0.4-0.1-0.9-0.2-1.3
	c-0.1-0.5,0.5-1.2,1-1.3c1.8-0.3,3.7-0.7,5.6-1c4.1-0.6,8.3-1.2,12.4-1.7c2.7-0.4,5.5-0.4,8.2-0.2c5.6,0.5,9.8,3.2,12.4,8.3
	c1,1.9,1.7,4,1.9,6.2c0.3,2.9,0.7,5.7,0.1,8.6c-1,5.5-4.1,9.5-9.2,11.7c-2.7,1.2-5.5,1.8-8.4,2.2c-5,0.8-10,1.4-15,2.1
	C459.9,43.5,459,43.6,458.1,43.7L458.1,43.7z M480.2,25.1c-0.1-1.2-0.1-2.2-0.2-3.2c-0.1-1.6-0.5-3.1-1.1-4.6
	c-0.8-2-2.3-3.3-4.4-3.8c-2.5-0.6-4.9-0.3-7.3,0.4c-0.5,0.1-0.9,0.7-0.8,1.3c0.8,5.6,1.5,11.1,2.3,16.7c0,0.3,0.1,0.6,0.3,0.8
	s0.4,0.5,0.7,0.5c2.5,0.1,4.9-0.3,7.2-1.3c1.7-0.7,2.7-2.1,3.1-3.9C480.2,26.9,480.2,25.9,480.2,25.1L480.2,25.1z"/>
<path d="M395.3,27.3c-0.6,0.7-1.4,0.9-2.2,1.2c-5.1,1.5-10.3,3-15.4,4.5c-1.1,0.3-2.2,0.6-3.1,1.3c-0.3,0.8,0.1,1.4,0.3,2.1
	c0.9,2.9,1,3,4,2.1c5-1.5,10-3,15-4.4c0.4-0.1,0.9-0.2,1.3-0.1c0.3,0,0.6,0.2,0.7,0.4c0.6,1.8,1.1,3.6,1.6,5.4
	c0.2,0.7-0.2,1.4-1,1.7c-5.1,1.5-10.2,3-15.4,4.6c-0.7,0.2-1.4,0.5-2,0.8c-0.2,0.1-0.4,0.5-0.4,0.7c0.1,1.9,0.7,3.7,1.7,5.3
	c0.1,0.2,0.5,0.4,0.7,0.3c1-0.2,2-0.4,2.9-0.7c5-1.5,10-2.9,15-4.4c0.7-0.2,1.4-0.3,2.1-0.3c0.2,0,0.5,0.2,0.7,0.4
	c0.1,0.1,0.2,0.2,0.2,0.4c0.6,1.9,1.1,3.9,1.6,5.8c0.2,0.6-0.2,1.2-0.7,1.4c-0.4,0.2-0.8,0.4-1.2,0.5c-9.8,2.7-19.4,5.7-29,8.9
	c-0.5,0.2-1.1,0.3-1.7,0.4c-0.2,0-0.6-0.2-0.7-0.4c-0.5-1-0.9-2.1-1.3-3.2c-2.6-7.6-5.3-15.3-7.9-22.9c-0.8-2.3-1.6-4.6-2.4-7
	c-0.2-0.6,0.1-1.2,0.6-1.5c0.5-0.2,1.1-0.5,1.6-0.6c9.7-3.3,19.5-6.3,29.4-9c0.7-0.2,1.4-0.4,2.1-0.5c0.5-0.1,1.2,0.3,1.4,0.8
	c0.5,2,1,3.9,1.5,5.9C395.4,27,395.3,27.2,395.3,27.3L395.3,27.3z"/>
<path d="M896.4,136.7c-0.5-0.2-0.9-0.3-1.2-0.5c-2.8-2-5.6-4.1-8.4-6.1c-0.8-0.6-1.1-1.3-0.7-2.2c0.6-2-0.2-3.7-1.5-5.1
	c-1-1.1-2.1-2-3.5-2.6c-0.4-0.2-0.8-0.3-1.2-0.4c-0.8-0.1-1.4,0.1-2,0.7c-0.5,0.6-0.6,1.3-0.3,2c0.4,1.3,1.4,2.2,2.2,3.2
	c1.5,1.8,3.1,3.4,4.6,5.2c1.2,1.4,2.3,3,3.3,4.5c1,1.4,1.7,3,2.3,4.7c1.9,5.7-1.7,11.3-7.3,12.6c-2.8,0.6-5.4,0.4-8.1-0.4
	c-0.3-0.1-0.5-0.2-0.8-0.3c-6.7-2.7-12.2-7.1-16.6-12.8c-3.1-4.1-3.3-8.8-1.1-13.5c0.2-0.5,1-0.8,1.5-0.5c3,1.9,6.1,3.9,9.1,5.9
	c0.5,0.4,0.7,0.9,0.6,1.5c-0.1,0.4-0.2,0.8-0.4,1.2c-0.6,1.8-0.2,3.5,0.8,4.9c1.3,2,3.1,3.4,5.4,4.1c0.7,0.2,1.4,0.2,2.1,0.1
	c1.6-0.3,2.6-2.1,2.1-3.7c-0.4-1.1-1-2.1-1.7-3c-1.1-1.3-2.3-2.6-3.3-4c-1.5-1.9-3.1-3.8-4.5-5.8c-1.1-1.5-1.9-3.2-2.5-5
	c-1.7-5.2,1.6-10.6,7.5-11.2c1.6-0.2,3.2-0.1,4.7,0.4c1.7,0.5,3.3,1.1,4.8,1.9c4.5,2.4,8.5,5.5,11.9,9.3c1.9,2.1,3.3,4.4,3.9,7.1
	C898.6,131.7,898.2,134.3,896.4,136.7L896.4,136.7z"/>
<path d="M577.3,1.2c1.5-0.4,2.9-0.1,4.4,0c5.5,0.4,10.9,0.9,16.4,1.4c4.2,0.4,8.3,0.9,12.5,1.4c0.6,0.1,1.1,0.2,1.7,0.3
	c0.4,0.1,0.7,0.5,0.7,0.9c0,0.7,0,1.4-0.1,2.2c-0.5,5.3-0.3,4.9-5.4,4.3c-5-0.6-10.1-1-15.1-1.5c-2.1-0.2-2.4,0.2-2.7,2.4
	c-0.1,0.6,0,1.1-0.1,1.7c0,0.6,0.4,1.1,1,1.2c0.6,0.1,1.1,0.2,1.7,0.3c4.7,0.5,9.5,1,14.2,1.5c0.7,0.1,1.5,0.1,2.1,0.4
	c0.3,0.1,0.8,0.6,0.8,0.9c0.1,2,0.1,4-0.6,5.9c-0.1,0.2-0.4,0.5-0.6,0.5c-1.1,0-2.3,0.1-3.4-0.1c-3.9-0.4-7.8-0.9-11.6-1.3
	c-0.9-0.1-1.7-0.1-2.6-0.2c-1.3-0.1-1.8,0.4-1.9,1.7c-0.1,1.4-0.1,2.9-0.1,4.3c0,0.2,0.3,0.6,0.5,0.6c0.5,0.2,1.1,0.3,1.7,0.3
	c5,0.5,10.1,1,15.1,1.6c1.1,0.1,2.3,0.4,3.4,0.6c0.5,0.1,0.9,0.8,0.9,1.3v0.9c-0.1,0.6-0.1,1.1-0.2,1.7c-0.8,4.8,0.1,4.5-5.4,4
	c-2.4-0.2-4.9-0.6-7.3-0.8c-4.7-0.5-9.5-0.9-14.2-1.3c-2.3-0.2-4.6-0.3-6.9-0.5c-0.8-0.1-1.3-0.7-1.3-1.5c0.1-2.5,0.3-4.9,0.4-7.3
	c0.1-1,0.2-2,0.2-3c0.4-7.1,0.8-14.1,1.2-21.2C576.6,3.7,576.6,2.4,577.3,1.2L577.3,1.2z"/>
<path d="M702.8,61.1c0.3-1,1.1-1.7,1.7-2.5c6.6-7.7,13.3-15.2,20.2-22.6c1.3-1.4,2.6-2.7,3.9-4c0.4-0.4,1-0.6,1.6-0.4
	c3.9,1.4,7.9,2.8,11.8,4.3c0.9,0.3,1.3,1,1.4,2c0.1,2.2,0.4,4.3,0.5,6.5c0.3,6.3,0.6,12.7,0.8,19c0.1,3.9,0.1,7.8,0.2,11.7
	c0,0.8-0.7,1.4-1.4,1.1c-3.4-1.3-6.7-2.6-10.1-3.9c-0.9-0.4-1.3-1.1-1.2-2.1v-0.4c0.6-4.9,0.2-4.3-3.7-5.8c-2.8-1.1-5.7-2.1-8.5-3.1
	c-0.7-0.3-1.4-0.1-1.9,0.6c-0.1,0.1-0.2,0.2-0.3,0.3c-3.3,4.2-2.5,3.8-7.4,2.3c-1.9-0.6-3.8-1.2-5.8-1.9
	C703.9,62,703.2,61.8,702.8,61.1z M732.5,55.9c0.2-3.5,0.5-7.1,0.2-10.7c0-0.2-0.3-0.4-0.5-0.6c-0.1-0.1-0.3,0-0.4,0.1
	c-2.5,2.5-4.8,5.3-6.8,8.3c-0.2,0.3,0.1,0.9,0.5,1c2,0.7,4,1.5,6.1,2.1C731.8,56.3,732.1,56.1,732.5,55.9z"/>
<path d="M844.7,113.4c0.4,0.2,0.7,0.2,0.9,0.4c2.2,2.5,4.4,4.9,6.6,7.4c0.5,0.6,0.3,1.5-0.3,1.9c-4.8,3.4-10.1,4.3-15.6,2.2
	c-5.6-2.1-10.5-5.4-14.5-9.9c-2.8-3.1-4.1-6.9-4.2-11.1c0-7.2,3.1-12.8,8.7-17.1c3.2-2.5,7-3.2,11.1-2.7c3,0.4,5.9,1.3,8.6,2.7
	c3.1,1.6,6,3.5,8.6,5.8c1.6,1.4,3.1,3,4.2,4.9c2.2,3.6,2.8,7.5,1.9,11.7c-0.1,0.3-0.7,0.6-1.1,0.5c-0.1,0-0.3,0-0.4-0.1
	c-3-1.3-6.1-2.7-9.1-4.1c-0.5-0.2-0.9-0.7-0.9-1.4c0.6-4-2.5-7.5-6.7-8.9c-2.5-0.8-4.9-0.4-6.9,1.3c-3,2.5-4.8,5.8-5.8,9.5
	c-0.6,2.1,0,4,1.4,5.7c0.8,1,1.9,1.8,3,2.5c2.7,1.6,5.4,1.8,8.2,0.1C843.3,114.2,844.1,113.8,844.7,113.4z"/>
<path d="M652.6,23h-4.3c-0.6,0-1.1-0.3-1.4-0.9c-0.3-0.5-0.5-1.1-0.7-1.6c-1.8-3.9-7.9-5.3-11.3-3.3c-1.3,0.7-2.4,1.7-3,3
	c-1.8,3.8-2.5,7.7-1.6,11.8c0.4,1.8,1.6,3.1,3.2,3.9c1.6,0.8,3.2,1.2,5,1.2s3.4-0.7,4.7-1.9c0.3-0.3,0.6-0.6,0.9-1
	c2.3-3.4,2.2-2.7,5.5-1.1c1.7,0.8,3.4,1.6,5.1,2.5c1.9,1,1.9,1.4,0.7,3.3c-1.9,2.9-4.4,4.9-7.6,6.1c-1.2,0.5-2.5,0.8-3.8,0.9
	c-5.9,0.5-11.6-0.4-16.9-2.9c-5.7-2.6-9-7.2-10-13.3c-0.7-4.1-0.2-8.1,1.3-11.9c2.3-5.9,6.7-9.3,12.9-10.3
	c5.7-0.9,11.2-0.2,16.6,1.8c1.5,0.5,2.9,1.3,4.3,2.1c3.7,2.4,5.9,5.8,6.7,10.2c0.1,0.5-0.4,1.2-1,1.2C656,23,654.3,23,652.6,23
	L652.6,23L652.6,23z"/>
<path d="M246.2,127.6c-0.8-0.2-1.2-0.8-1.6-1.4c-2.6-3.8-5.2-7.7-7.8-11.5c-3.2-4.8-6.5-9.6-9.7-14.3c-0.5-0.7-0.9-1.4-1.4-2.2
	c-0.2-0.4-0.2-0.8,0.1-1.2c0.1-0.1,0.2-0.2,0.3-0.3c3.2-2.2,6.5-4.3,9.8-6.4c0.6-0.4,1.4-0.2,1.9,0.4c0.3,0.4,0.5,0.7,0.7,1.1
	c5.8,9,11.5,18,17.3,27c0.4,0.6,0.8,1.2,0.7,2C254.3,122.7,249,126.2,246.2,127.6L246.2,127.6z"/>
<path d="M822.6,74.1c-0.4,0.8-0.7,1.4-1,2c-5.2,9.1-10.4,18.3-15.6,27.4c-0.4,0.6-0.8,1.2-1.2,1.8c-0.1,0.2-0.5,0.2-0.8,0.2
	s-0.5-0.2-0.8-0.3c-2.9-1.6-5.8-3.2-8.7-4.8c-0.5-0.3-0.8-0.8-1.3-1.2c0.3-0.8,0.6-1.4,0.9-2.1c4.9-9.1,9.8-18.3,14.7-27.4
	c0.3-0.6,0.7-1.2,1.1-1.9c0.3-0.4,1-0.6,1.5-0.4c0.3,0.1,0.5,0.2,0.8,0.3c3,1.7,6.1,3.3,9.1,5C821.8,73.2,822.2,73.7,822.6,74.1z"/>
</svg>
