<?xml version="1.0" encoding="UTF-8"?>
<svg id="Layer_2" data-name="Layer 2" xmlns="http://www.w3.org/2000/svg" viewBox="0 0 1079.91 539.81">
  <defs>
    <style>
      .cls-1 {
        stroke-width: 0px;
      }
    </style>
  </defs>
  <g id="Layer_1-2" data-name="Layer 1">
    <g>
      <path class="cls-1" d="M876.79,196.34c.9,0,1.3-.4,1.7-.8,3.5-3.4,7-6.9,10.6-10.3,7-6.8,11.7-15,14.5-24.3,1.6-5.1,2.6-10.4,3.5-15.6,2.1-12,4.1-23.9,6.1-35.9.8-5.1,2.7-9.7,5.8-13.9,1.3-1.7,2.6-3.5,4.1-5,10.2-10.8,21.7-19.9,34.8-27,6.8-3.6,13.5-7.2,20.4-10.6,3.1-1.6,6.4-2.7,9.8-3.3,2.3-.4,4.6-.3,6.8.7,1.5.7,2.7,1.7,3.5,3.2,1,1.9,1.1,3.9.1,5.8-1,1.8-2.1,3.4-3.2,5.1-6.1,9.2-12.2,18.3-18.2,27.5-2.8,4.2-5.6,8.4-8.4,12.7-.4.6-.8,1.2-1.2,1.8-1.5,2.4-2.2,5-2.1,7.8.2,4.6,1.3,8.9,3.5,12.8,1.2,2.1,2.6,4.2,4,6.1,6.2,8.1,13.4,15.1,22,20.7,3,2,6,4,9.1,5.9,2.3,1.4,4.8,2.7,7.2,4,3.9,2.1,8,2.4,12.2,1.7,2.3-.4,4.5-1.1,6.6-2.1,2.3-1.1,4.1-2.6,5.5-4.7.1-.1.2-.2.2-.4,4-7.4,9-14.1,13.5-21.2,6-9.4,12.1-18.7,18.2-28,.7-1.1,1.5-2.2,2.3-3.2.8-1.1,2.3-1.3,3.5-.5.2.1.5.3.7.5,3.8,2.9,5.9,6.7,6,11.4.1,2.9-.1,5.8-.3,8.7-1,11.3-3.1,22.3-6.2,33.2-1.9,6.8-4,13.6-6,20.4-1,3.2-2.3,6.2-3.8,9.2-2.7,5.4-5.8,10.7-9.2,15.7-2.6,3.9-5.5,7.4-9,10.5-4.3,3.8-9.1,6.7-14.6,8.2-4.9,1.4-9.9,1.9-15,1-4.6-.8-9.1-1.4-13.8-1.5-8.9-.3-17.6.9-26.1,3.2-9.6,2.6-18.5,6.5-26.9,11.8-3.3,2.1-6.4,4.4-9.3,7.1-2.4,2.3-4.8,4.6-7,6.8,0,1,.5,1.6,1,2.1,2,2.5,4.1,4.9,6.1,7.4,6.8,8.3,12.9,17,19.2,25.7.6.8,1.1,1.7,1.6,2.6.9,1.8.6,3.4-.9,4.7-1.1.9-2.3,1.7-3.6,2.5-3.2,1.9-6.5,3.8-9.7,5.7-1,.6-2,1.2-2.9,1.9-1.2.9-1.6,2.6-1.1,3.9.3.8.6,1.6,1.1,2.4,5.3,9.8,10.6,19.6,15.9,29.4.3.6.7,1.3,1.1,1.9.7,1,1.6,1.6,2.8,1.8,1.2.2,2.3.2,3.4-.3,2.1-.9,4.3-1.8,6.4-2.7,2.6-1.2,5.2-2.5,7.8-3.7.7-.3,1.3-.7,2-.8,3-.7,4.7-.3,6.2,2.5.5.9.9,1.8,1.2,2.8,7.2,17.5,14.5,35,21.7,52.5.5,1.3,1,2.7,1.4,4.1.4,1.3-.5,2.7-1.9,2.9-.6.1-1.1.2-1.7.2h-92.9c-2.1-.1-3.6-1.1-4.5-2.9-.7-1.3-1.2-2.6-1.6-4-2.3-6.5-4.9-13-7.7-19.3-10.5-23.8-23.8-45.9-39.9-66.3-9.7-12.3-19.7-24.2-30.4-35.6-16.4-17.6-34.5-33.3-54.3-47.1-17.1-12-35-22.5-53.7-31.7-23.6-11.7-48.2-20.9-73.7-27.7-12.3-3.3-24.7-5.9-37.3-7.9-5.4-.9-10.9-1.4-16.4-2-7-.8-14.1-1.5-21.1-2.3-6.8-.7-13.5-1.3-20.3-1.7-3.5-.2-6.9,0-10.4,0-8.5-.1-17.1.4-25.6.9-7.9.4-15.8,1.2-23.7,2.2-10.9,1.3-21.8,3-32.5,5.2-18.3,3.6-36.3,8.5-53.9,14.7-38.8,13.5-74.7,32.5-107.5,57.2-12.7,9.6-24.8,19.9-36.3,30.9-25.9,24.8-47.7,52.7-65.2,83.9-4.6,8.2-8.7,16.7-12.5,25.2-3.3,7.4-6.6,14.8-9.9,22.2-.6,1.3-1.2,2.6-2,3.8-1,1.5-2.4,2.5-4.3,2.6-1.2.1-2.3.2-3.5.1-2.7,0-5.5-.1-8.2-.1h-74.6c-2.5,0-4.9.1-7.4.1-1.9,0-3.8-.1-5.6-.3-1.5-.2-2.5-1.7-2.3-3.2.1-.4.1-.9.2-1.3.3-.8.5-1.6.9-2.5,5.1-12.9,10.2-25.8,15.2-38.7.4-1.1.9-2.1,1.5-3.1,1.3-2.4,4.2-3.4,6.3-2.5.9.4,1.9.7,2.8,1.1,4.3,1.8,8.5,3.6,12.7,5.5,1.1.5,2.2.8,3.3.9,1.4.1,2.6-.4,3.4-1.5.7-.9,1.3-1.9,1.7-3,4.4-9.6,9.2-19,14.1-28.3.6-1.1,1.1-2.3,1.6-3.6.5-1.5.1-2.9-1.1-3.9-.8-.6-1.6-1.2-2.5-1.6-3.6-1.9-7.2-3.7-10.8-5.5-.9-.5-1.8-1-2.6-1.5-2.3-1.7-2.8-3.8-1.5-6.5.3-.6.8-1.2,1.1-1.9,4.5-7.4,9.5-14.5,14.8-21.4,5.3-6.8,10.6-13.8,15.8-20.6.7-.9,1.4-1.9,2-2.8-.2-.5-.3-1-.5-1.2-7.4-7.6-15.5-14.3-24.8-19.4-8-4.4-16.6-7.4-25.6-9.3-7.4-1.6-14.9-2.2-22.4-2-1.7,0-3.5.2-5.2.4-2.6.4-5.1.9-7.7,1.2-4.8.6-9.5,0-14.2-1.2-3.1-.8-6-2.2-8.6-3.9-5.4-3.4-10-7.8-13.8-13-5.6-7.6-10.1-15.8-13.2-24.8-4.1-12-7.7-24.2-10.3-36.7-1-4.8-1.6-9.7-2.3-14.6-.3-2.4-.5-4.9-.7-7.3-.1-1.9-.3-3.8-.1-5.6.4-4.7,2.3-8.6,6.2-11.4.3-.2.7-.5,1.1-.6.9-.4,2.2-.2,2.8.6.6.7,1.1,1.3,1.6,2.1,9.2,14.7,19.1,28.9,28.1,43.8,1.3,2.2,2.8,4.4,4.3,6.5,2.6,3.7,6.2,5.9,10.7,6.9,4.2.9,8.3,1.1,12.4-.1,2.1-.6,4.1-1.5,5.9-2.7,5.6-3.8,11.3-7.6,16.7-11.6,5.3-3.8,10.1-8.2,14.3-13.2,3.3-3.9,6.1-8.1,8.2-12.7,1.1-2.4,1.9-4.8,2.2-7.5.4-3.5,0-6.9-1.7-10.1-.8-1.5-1.6-3.1-2.7-4.4-9-12.1-17.1-24.7-25.2-37.4-1-1.6-2-3.2-3-4.8-.4-.6-.8-1.2-1.1-1.9-.7-1.6-.6-3.1.3-4.5,1.9-2.9,4.7-4.2,8-4.5,2.9-.3,5.8.3,8.5,1.3,1.8.7,3.5,1.4,5.2,2.2,7.9,4.2,15.8,8.4,23.5,13,7.8,4.7,15.3,9.9,22.1,16,4,3.6,7.7,7.4,11.1,11.6,4.1,5.1,6.6,10.8,7.7,17.2.9,5.4,1.7,10.8,2.6,16.3,1.4,8.4,2.8,16.8,4.3,25.2.7,4.1,2,8.1,3.4,12.1,2.8,7.6,6.8,14.4,12.5,20.1,4.2,4.2,8.6,8.2,12.9,12.2.3.3.8.4,1.2.6.6-.4,1.2-.8,1.7-1.3,6-5.6,12.7-10.6,19.3-15.5,8.7-6.5,17.4-13,26.1-19.5.8-.6,1.7-1.2,2.5-1.7,1-.7,2.1-.9,3.3-.9,1,0,2,.3,2.8,1,.8.8,1.6,1.6,2.4,2.5,1.2,1.5,2.2,3,3.4,4.5.8,1,1.7,2,2.6,2.9,1.6,1.5,3.5,1.9,5.6,1,1.1-.5,2.1-1,3.1-1.6,1.3-.7,2.5-1.5,3.7-2.3,7.8-5,15.7-9.8,23.9-14.1.9-.5,1.8-1,2.6-1.6.5-.3.9-.7,1.3-1.1,1-1.2,1.5-2.5.8-4-.5-1-1.1-2.1-1.7-3-1.1-1.8-2.4-3.6-3.5-5.5-.4-.6-.8-1.2-1.1-1.9-.8-1.9-.7-4.2,1.7-5.7,1-.6,2-1.1,3.1-1.6,14.6-7.4,29.6-13.7,44.9-19.6,3-1.1,5.9-2.3,8.9-3.4,3.7-1.3,7.4-2.5,11.3-3,.6-.1,1.2-.2,1.7-.2,1.5.1,2.8.6,3.7,2,.7,1.1,1.3,2.3,1.8,3.4.7,1.4,1.2,2.9,1.9,4.4.4.8.8,1.5,1.3,2.3.6.9,1.5,1.4,2.6,1.4,1.3,0,2.6-.2,3.8-.6,4.7-1.3,9.5-2.5,14.2-3.9,6.1-1.7,12.2-3.4,18.4-5.1,1.5-.4,3-.9,4.4-1.8,2-1.3,2.8-3.2,2.5-5.6-.3-2-.9-3.9-1.6-5.9-.5-1.4-.8-2.8-1-4.2-.1-1.3.7-2.6,1.9-3.1,1.2-.4,2.5-.8,3.7-1.1,10.9-2,21.9-4.1,32.9-5.9,6.3-1.1,12.6-1.8,19-2.1,6.2-.3,12.4-.8,18.6-1.3,1.2-.1,2.3,0,3.4.4,1.2.4,2,1.2,2.3,2.4.2.8.4,1.7.4,2.6.2,1.7.3,3.5.5,5.2.1,1,.3,2,.7,2.9.7,2,1.8,2.8,3.9,2.8,1,0,2,0,3-.2,4.5-.7,8.9-.6,13.4-.6h16.9c1.6,0,3.2,0,4.8.2,1.5.1,2.9-.2,4.3-.5.9-.2,1.5-.9,1.8-1.7s.6-1.6.7-2.5c.1-1.3-.1-2.6-.1-3.9,0-1.7,0-3.5.2-5.2.1-1.5,1.3-2.7,2.8-2.9.6-.1,1.2-.1,1.7-.1,2.3.1,4.6.1,6.9.2,6.1.4,12.1.9,18.2,1.5,3.9.3,7.8.7,11.7,1.1,4.5.5,8.9,1,13.4,1.5,4.6.5,9.2,1.1,13.7,2,2.8.5,5.7,1,8.5,1.6.9.2,1.7.4,2.5.6,1.5.4,2.9,1.6,2.9,3.8,0,1.3-.2,2.6-.3,3.9-.2,1.7-.4,3.4-.6,5.2-.1.7,0,1.4,0,2.2.1,1.8,1,3,2.6,3.7.7.3,1.3.5,2,.7,1.5.4,3.1.8,4.6,1.2,8.9,1.9,17.7,4.4,26.4,6.8,1.7.5,3.3,1,5,1.3,2.6.4,4.4.2,5.8-3.2.6-1.5,1-3,1.3-4.6.4-1.8.9-3.6,1.8-5.3.2-.5.6-1,.9-1.4.5-.6,1.1-.9,1.9-.9.9.1,1.7.2,2.5.4,2.2.7,4.4,1.5,6.6,2.2,6.9,2.3,13.7,4.5,20.6,6.9,7.5,2.6,14.8,5.7,22.1,8.9,6.1,2.7,12.2,5.4,18.2,8.1,1.1.5,2.1,1,3.1,1.6,1.1.7,1.6,2.3,1.2,3.5-.3.8-.6,1.6-1.1,2.4-1.2,2.1-2.5,4.2-3.8,6.3-.5.9-1,1.8-1.3,2.7-.6,1.6-.1,3.2,1.2,4.3.4.4.9.7,1.4,1,.7.5,1.5.8,2.3,1.3,9.2,5.2,18.4,10.4,27.6,15.6,1.1.6,2.3,1.3,3.4,1.8.5.3,1.1.5,1.6.6,1.7.3,3.2,0,4.4-1.3.7-.7,1.2-1.6,1.8-2.4,1.8-2.5,3.5-5,5.3-7.4,1.6-2.2,3.8-2.9,6.4-1.1.6.4,1.2.8,1.8,1.2,17.1,12.4,34.1,24.9,51.2,37.3.9.7,1.8,1.4,2.8,2.1,2.1.6,3.9,2.1,4.9,4.1ZM106.79,210.74c.6.1,1.1-.1,1.6-.4,3.1-1.9,6.2-3.7,9.2-5.6,1.1-.7,2.1-1.5,3-2.4,8.5-8.3,16.9-16.6,25.3-24.8,3.3-3.3,5.7-7.2,7.9-11.3.1-.2.2-.5.2-.8,0-.1-.1-.3-.1-.3-.3,0-.6-.1-.8,0-.4.2-.7.5-1,.8-5.5,5.6-11,11.1-16.3,16.7-5.3,5.5-10.7,10.9-16.3,16.1-3.8,3.5-7.7,6.9-11.6,10.4-.4.4-1.1.8-1.1,1.6-.2-.1-.4-.2-.5-.1-.7.3-.8.8-.3.8.3,0,.5-.1.8-.3.1,0,.1-.2,0-.4ZM1012.09,219.14c4.5.4,9,.5,13.5.1,2.1-.2,4.3-.8,6.3-1.4,4.7-1.3,8.6-4,11.8-7.7,1-1.2,2.1-2.4,3-3.7,7.2-10.3,13.3-21.3,17.7-33.2,4.7-12.9,8.2-26.2,10.1-39.8.6-4.4,1-8.9,1.4-13.3.2-2.2.1-4.3-.3-6.5,0-.2-.3-.5-.5-.6s-.6,0-.8.2c-2.4,2.1-3.5,4.9-3.9,8-.3,2.1-.5,4.3-.8,6.4-.4,3.3-.7,6.6-1.2,9.9-2.1,13-5.7,25.6-10.5,37.9-3.5,8.9-7.7,17.4-12.6,25.6-4.8,8.2-11.7,13.4-20.9,15.6-3.5.9-7.1,1.5-10.7,1.7-.5.3-1.1.2-1.6.8ZM68.89,219.14c-1-.7-1.7-.6-2.4-.6-3.9-.2-7.8-.7-11.5-1.8-8-2.2-14.4-6.6-18.9-13.6-1.1-1.7-2.1-3.5-3.1-5.2-4.4-7.8-8.1-16-11.3-24.3-6.2-16-10.2-32.4-11.5-49.6-.1-1.6-.3-3.2-.7-4.7-.5-2.4-1.7-4.6-3.8-6.1-.3-.2-1,0-1.1.4-.1,1-.4,2-.3,3,.3,4.9.7,9.8,1.1,14.7.2,2.3.6,4.6,1.1,6.8,2.1,10.5,4.9,20.8,8,31,4.1,13.5,10.6,25.9,18.8,37.3.6.8,1.2,1.6,1.9,2.4,5.3,6.5,12.3,9.8,20.6,10.5,4.3.4,8.5.3,13.1-.2ZM162.39,182.14c-.3,3.3.7,5.6,2.8,7.5,2.1,1.9,4.1,4.1,6.1,6.1,5.5,5.3,11,10.6,16.5,16,2.2,2.1,4.5,4.1,6.9,5.9,3,2.3,5.9,4.7,8.8,7,.6.5,1.1.9,1.7,1.4.4.3.9.3,1.2,0,.5-.5,1.1-1,1.5-1.6.9-1.3.7-2.9-.4-4-.5-.5-1.1-1-1.6-1.5-5.2-4.8-10.4-9.5-15.6-14.3-7.1-6.5-14.2-13.1-21.4-19.6-1.3-1.2-2.6-2.3-4-3.4-.4-.3-1-.5-1.5-.7-.2-.1-.6.2-.7.4-.3.5-.3,1-.3.8ZM872.59,221.54c.6,1.2,1.6,2,2.6,2.8.4.3,1.1.3,1.6,0,.3-.3.7-.5,1-.8,2.4-1.9,4.7-3.9,7.1-5.6,5-3.5,9.4-7.7,13.5-12.1,5.4-5.8,10.7-11.8,16.9-16.8.3-.3.6-.6.9-.9,1.3-1.2,1.7-2.7,1.5-4.3-.1-.8,0-1.8-.9-2.3-1-.5-1.6.4-2.2.9-.5.4-.8.8-1.3,1.2-6.6,6-13.2,12.1-19.8,18.1-6.5,5.9-13,11.9-19.5,17.9-.5.4-1.2.9-1.4,1.9ZM974.49,211.04c-.8-.7-1.5-1.4-2.2-2-4.9-4.1-9.6-8.3-14.1-12.8-8-7.9-15.9-15.9-23.6-24.2-2.5-2.6-5-5.2-7.6-7.8-.1-.1-.5-.1-.7-.1-.1,0-.2.2-.2.3.2.8.3,1.7.6,2.5,1,2.6,2.4,4.9,4.3,7,1.8,2,3.7,4.1,5.6,6,5.9,5.9,11.8,11.9,17.8,17.8,2.3,2.2,4.6,4.4,7.3,6.2,3.9,2.5,7.8,4.9,11.8,7.3.2.1.5.1.8,0,0,.1,0,0,.2-.2ZM165.79,128.44c-.1-.8-.3-2.2-.5-3.7,0-.1-.2-.1-.3-.1s-.3.1-.3.1c-.2,1.7-.3,3.4-.5,5.1-.6,7.4-2.2,14.5-5.1,21.3-.6,1.3-1.1,2.6-1.6,4-.2.5-.2,1.1-.2,1.7,0,.1.1.3.2.4h.3c1.5-1.2,2.2-3,2.9-4.7,3.3-7.5,4.6-15.4,5.1-24.1ZM162.19,122.84c-.1-4-.5-8.3-1.6-12.5-.2-.8-.6-1.6-.9-2.4-.1-.3-.4-.5-.7-.4-.2.1-.4.5-.4.7.1,2,.1,4,.8,6,.9,2.8,1,5.6.7,8.5-.3,2.4-.5,4.9.1,7.3.2.8,0,1.7-.1,2.6-.3,1.6-1,3-2,4.3-.4.5-.3,1.4.1,1.5s1.1-.3,1.3-.8c.3-.8.7-1.6.9-2.4,1.3-4,1.8-8,1.8-12.4ZM915.29,125.14c-.6,1.9-1.1,3.8-.6,5.9.1.4,0,.9.1,1.3.2,5.4,1.4,10.6,3,15.7.7,2.2,1.7,4.3,2.7,6.4.3.6.8,1.2,1.3,1.7.1.1.2.1.4.2.1-.2.3-.5.2-.7-.5-1.5-1-3-1.6-4.5-2.8-7.9-4.7-16-5.2-24.5,0-.5.2-1.1-.3-1.5ZM921.29,107.64c-.2.2-.5.3-.7.5-.7,1.1-1.1,2.3-1.4,3.6-1,5.1-1.6,10.2-1,15.4.4,3.5,1.1,6.8,2.2,10.1.2.5.4,1.1,1.1,1.2h.4c.1-.1.3-.2.3-.3,0-.4-.1-.9-.3-1.2-1.5-2.4-1.7-5.1-1.7-7.9v-2.2c0-1.9,0-3.7-.6-5.6-.3-1-.2-2,0-3,.7-3.2,1.4-6.5,2.1-9.7.1-.3,0-.6-.1-.8,0,0-.2,0-.3-.1ZM156.79,151.64c-.1-.4,0-.8-.2-.9-.1-.1-.6-.2-.7-.1-2.2,1.2-2.6,2.1-1.9,4.5.1.3.3.5.7.4.1,0,.3-.1.4-.2.5-1.3,1.1-2.6,1.7-3.7ZM926.49,153.34c0-1.7-.7-2.6-2.3-3.4-.1-.1-.4-.1-.4,0-.2.2-.4.5-.3.7.5,1.3,1,2.6,1.5,3.9,0,.1.2.2.3.3.3,0,.7.1.7,0,.2-.6.3-1.1.5-1.5ZM920.99,183.14c0-.6,0-.9-.1-1.1s-.3-.4-.4-.6c-.2.2-.5.3-.6.5-.4.7-.5,1.6-.2,2.4.1.2.4.2.7.3.1,0,.3-.1.3-.1.1-.6.3-1.2.3-1.4ZM160.59,183.14c-.1-.4,0-.7-.2-1-.1-.2-.4-.2-.6-.3,0,0-.2.2-.2.3,0,.7.1,1.4.2,2.1,0,.1.2.2.4.2.1,0,.2-.1.2-.2.1-.5.2-.9.2-1.1ZM79.69,218.14c-.6-.4-1.3-.2-1.9-.2-.1,0-.2.2-.3.3.1.1.2.2.3.2.6,0,1.3.2,1.9-.3ZM1001.69,218.34c.2-.1.4-.2.6-.3-.2-.1-.5-.2-.7-.2s-.4.1-.6.2c.3.2.5.3.7.3Z"/>
      <path class="cls-1" d="M812.59,325.94v51.2c0,1.3,0,2.6-.1,3.9-.1,1.9-1.3,3.2-3.3,3.4-1.1.1-2.3.1-3.5.1h-21.2c-1.4,0-2.9-.1-4.3-.3-1.2-.2-2.1-1-2.5-2.1-.3-1.1-.6-2.2-.6-3.4-.1-2.2,0-4.3,0-6.5,0-2.6.2-5.2.2-7.8v-51.6c0-2.9-.3-5.8-.5-8.6,0-.2-.3-.5-.5-.6-.3-.2-.9-.2-1.2.1-1.8,1.9-3.3,4-4.6,6.3-5.4,9.4-10.8,18.8-16.3,28.2-7.7,13.4-15.5,26.8-23.3,40.1-.4.8-.9,1.5-1.3,2.2-1.3,2.3-3.5,3.4-6,3.9-1,.2-2,.2-3,.2-3.9,0-7.8-.1-11.7-.2-2,0-4-.3-6-.8-2.6-.7-4.8-2-6.5-4.1-.8-1-1.6-2.1-2.3-3.1-.9-1.3-1.7-2.7-2.5-4.1-9.6-17.3-19.8-34.3-29.7-51.4-2.9-5-5.9-9.9-9.3-14.7-.5-.7-1-1.4-1.6-2-.2-.2-.5-.2-.8-.2-.1,0-.2.2-.2.3-.2.5-.4,1.1-.5,1.6-.1,1.7-.2,3.5-.2,5.2v66.3c0,1.4,0,2.9-.1,4.3-.1,1.5-1.1,2.4-2.5,2.6-1,.1-2,.1-3,.1-5.4,0-10.7-.1-16.1-.1-2.5,0-4.9.1-7.4.1-1.2,0-2.3-.1-3.5-.2-1.2-.2-2.1-.9-2.5-2.1-.3-.8-.5-1.7-.6-2.5-.1-1,0-2,0-3v-101.9c0-1-.1-2,0-3,.1-.9.3-1.7.6-2.5.4-1.2,1.3-1.9,2.6-2,1-.1,2-.2,3-.2h38.6c2.2,0,4.3.2,6.5.2,3,0,5.2,1.5,7,3.7.9,1.1,1.5,2.4,2.2,3.7,11,19.3,22,38.7,33.1,58,.8,1.4,1.5,2.8,2.4,4.1.6,1,1.2,1.9,1.9,2.9.5.7,1.3.8,1.9.3,1.4-1.3,2.6-2.7,3.6-4.3.5-.7.9-1.5,1.3-2.2,7.1-12.6,14.3-25.1,21.4-37.7,2.6-4.5,4.9-9.2,7.2-13.8,1.3-2.6,2.5-5.2,3.8-7.8.8-1.5,1.7-3,2.9-4.3,1.6-1.6,3.5-2.6,5.7-2.7,1-.1,2-.1,3-.1,14.8.1,29.5.1,44.3.2,1,0,2,.1,3,.2,1.2.2,2.4,1.4,2.5,2.7.1,1.3.1,2.6.1,3.9v40.3c.4,3.7.4,7.6.4,11.6Z"/>
      <path class="cls-1" d="M522.59,384.34h-40.8c-6.4,0-12.7.1-19.1.2-1.4,0-2.9-.1-4.3-.3-1.6-.2-2.6-1.2-3.1-2.7-.3-1.1-.5-2.3-.5-3.4v-13c0-2,.1-4,.1-6.1v-61.6c0-7.5-.1-15-.1-22.5,0-1.2,0-2.3.1-3.5.1-.7.2-1.4.5-2.1.4-1.1,1.3-1.9,2.5-2.2.7-.1,1.4-.2,2.1-.3h118.9c1.4,0,2.9,0,4.3.1,2.6.1,4.9,1.5,5,5.4,0,.9,0,1.7-.1,2.6-.4,3.6-.3,7.2,0,10.8.1,1.4,0,2.9-.2,4.3-.3,1.9-1.5,3.1-3.3,3.6-1.1.3-2.3.4-3.4.4h-11.3c-5.4,0-10.7-.1-16.1-.1h-26c-9,0-17.9.1-26.9.1-2.2,0-4.3.4-6.4,1-.9.3-1.5.9-1.6,1.9-.4,4.5-.3,8.9.2,13.4.1.8.6,1.3,1.3,1.6.5.2,1.1.3,1.7.4,2,.1,4,.2,6.1.2h72c1.2,0,2.3-.1,3.5,0,1,.1,2,.2,3,.5,1.7.4,2.7,1.6,3.1,3.2.3,1.1.2,2.3.1,3.4-.4,4-.6,8.1-.1,12.1.1.4.1.9,0,1.3-.3,2.3-1.2,4.2-4.4,4.5-1.4.1-2.9.1-4.3.1h-79c-.7,0-1.4.2-2.1.4-.8.2-1.2.8-1.4,1.5-.1.6-.2,1.1-.2,1.7v11.3c0,2.4,1,3.4,3.5,3.5,1.2.1,2.3.1,3.5.1h29.1c5.2,0,10.4.2,15.6.2,12.6,0,25.2-.1,37.7-.2,1.2,0,2.3,0,3.5.1.7,0,1.5.2,2.1.4,1.3.5,2.2,1.4,2.5,2.8.2.8.3,1.7.3,2.6-.4,5.5-.3,11,0,16.5,0,.7,0,1.4-.2,2.2-.4,1.9-1.6,3.1-3.4,3.5-1,.2-2,.3-3,.3-3.8,0-7.5-.1-11.3-.1-1.4,0-2.9-.1-4.3-.1h-45.4Z"/>
      <path class="cls-1" d="M429.19,326.14v50.7c0,1.4,0,2.9-.2,4.3-.2,1.8-1.3,2.9-3.1,3.1-1.1.1-2.3.2-3.5.2h-24.3c-1.2,0-2.3-.1-3.5-.2-1.7-.2-2.8-1.5-3-3.2-.1-1.1-.1-2.3-.1-3.5v-29.5c0-1.3,0-2.6-.1-3.9-.2-1.9-1.5-3.2-3.4-3.3-1.3-.1-2.6-.1-3.9-.1h-52.1c-3.5,0-6.9-.2-10.4-.2-1.9,0-3.8.1-5.6.2-1.7.2-2.9,1.3-3.3,3-.1.4-.1.9-.2,1.3v1.3c0,10.5,0,21.1.1,31.6,0,1,0,2-.1,3-.2,1.8-1.3,3-3,3.2-1.3.2-2.6.2-3.9.2-7.7-.2-15.3-.2-23,0-1.3,0-2.6,0-3.9-.1-2.1-.2-3.3-1.6-3.5-3.7-.1-.6-.1-1.2-.1-1.7v-103.6c0-1.3,0-2.6.1-3.9,0-.7.2-1.4.5-2.1.5-1.1,1.3-1.9,2.6-2.1.7-.1,1.4-.2,2.1-.3h27.7c.7,0,1.4.1,2.1.3,1,.3,1.8,1,2,2s.3,2,.3,3c0,9.4,0,18.8-.1,28.2,0,1.2-.1,2.3.1,3.5.1.8.3,1.7.6,2.5.3.7.8,1.2,1.5,1.5,1.1.5,2.2.8,3.4.8h6.1c3,0,6.1-.2,9.1-.2h39.1c3.3,0,6.6.1,10,.2,1.2,0,2.3.1,3.5,0,1-.1,2-.3,3-.6,1.5-.5,2.4-1.6,2.7-3.1.1-1,.2-2,.2-3,0-9.5-.1-19.1-.1-28.6,0-1,0-2,.1-3,.2-2,1.5-3.2,3.4-3.4.9-.1,1.7-.1,2.6-.1h25.2c1.2,0,2.3.1,3.4.3,1.2.2,2.1,1.1,2.4,2.2.3.8.4,1.7.4,2.5.1,1.3,0,2.6,0,3.9.1,16.9.1,33.6.1,50.4Z"/>
      <path class="cls-1" d="M476.69,480.44v-37.3c0-4.9.2-9.8.2-14.7,0-4.2,2.2-7,6.4-8,7.2-1.6,14.9,2.1,17.9,8.9,2,4.5,3.8,9.1,5.7,13.6,9.3,22.1,18.6,44.2,27.9,66.3.6,1.5,1.4,2.9,2.1,4.3.3.6,1,.7,1.3.1.6-1.2,1.2-2.3,1.7-3.5,8.9-20.4,17.9-40.7,26.8-61.1,2.6-6,5.2-11.9,7.8-17.9.6-1.3,1.1-2.7,1.9-3.9,2.2-3.8,5.5-6.2,9.9-7.1,3.3-.7,6.3,0,9.2,1.5,1.7.9,2.9,2.4,3.4,4.3.3,1.1.5,2.3.6,3.4.1,1,0,2,0,3v96.7c0,1.2.1,2.3,0,3.5-.1,1.1-.4,2.3-.8,3.3-.6,1.5-1.8,2.5-3.5,2.9-2.5.6-4.9.2-7.2-.6-1.6-.6-2.6-1.8-2.9-3.5-.2-1.3-.3-2.6-.3-3.9,0-2,0-4,.1-6.1.1-15.2.2-30.3.2-45.5,0-10.7-.1-21.4-.2-32.1,0-.9-.1-1.7-.2-2.6,0-.1-.2-.2-.3-.2-.3,0-.7-.1-.8.1-.6,1-1.2,2-1.6,3-4.2,9.7-8.3,19.4-12.5,29-7.8,17.9-15.5,35.8-23.3,53.6-.5,1.1-.9,2.1-1.4,3.2-1.1,2.4-2.9,4-5.2,5-2.8,1.2-6.4.9-9-2.2-1-1.2-1.7-2.7-2.3-4.2-1.5-3.7-3-7.5-4.6-11.2-9.6-23.5-19.2-47.1-28.8-70.6-.5-1.2-1.1-2.4-1.7-3.5-.1-.2-.4-.4-.7-.5-.2,0-.6.1-.8.3s-.2.5-.2.8v84.9c0,.7-.1,1.4-.3,2.1-.8,3-3.1,5-6.2,5.2-1.6.1-3.2,0-4.7-.6-2-.7-3-2.1-3.4-4.1-.2-1-.1-2-.1-3v-14.3c-.1-12.2-.1-24.5-.1-36.8h0Z"/>
      <path class="cls-1" d="M456.79,473.34c-.1,6.8,0,12.5-.3,18.1-.3,6.5-1,13-2.5,19.3-.9,3.7-2.2,7.2-3.9,10.5-4.1,8-10.4,13.3-19.1,15.9-6.6,2-13.3,2.9-20.1,2.6-9.5-.4-17.3-4.4-23.1-11.9-3-3.8-5.1-8.1-6.6-12.6-1.9-5.6-3.3-11.4-3.6-17.3-.3-5.2-.8-10.4-.9-15.6-.1-8.8.1-17.6,1.8-26.3,1.4-7,3.7-13.6,7.5-19.7,2.3-3.7,5.1-7,8.6-9.7,5.2-4,11-6.2,17.5-6.8,4.2-.4,8.4-.4,12.6.1,6.2.7,11.9,2.6,16.7,6.6,1.3,1.1,2.6,2.3,3.8,3.6,6.4,7.3,10.1,15.8,10.7,25.5.4,6.2.7,12.5.9,17.7ZM391.49,479.64c.2,3.1.5,7.7.8,12.3.4,7.3,2,14.3,4.3,21.1.4,1.2.9,2.4,1.5,3.6,2.3,4.5,5.9,7.4,10.6,9,3.8,1.2,7.7,1.3,11.6.9,5.4-.5,9.9-3,13.3-7.3,1.1-1.5,2.1-3.1,3-4.8,2.1-4.1,3.5-8.5,4.4-13.1,1.4-7,1.8-14,2.1-21.1,0-1-.1-2-.2-3-.4-4.3-.7-8.6-1.2-12.9-.4-3.6-.9-7.2-1.5-10.7-.6-3.4-1.6-6.7-3.2-9.8-2.5-4.8-6.3-8.2-11.4-10-1.6-.6-3.3-1-5-1.3-6.5-1.3-12.3.5-17.3,4.8-2.3,2-4.1,4.4-5.5,7.2-1.1,2.2-2,4.5-2.7,6.8-2.9,8.6-3.6,17.6-3.6,28.3Z"/>
      <path class="cls-1" d="M698.79,473.34c.3,10.3,0,19.4-.9,28.4-.5,5.6-1.9,11.1-4.4,16.2-5.2,10.8-13.6,17.8-25.3,20.6-7.9,1.8-15.8,1.8-23.5-.9-9.9-3.4-16.7-10.1-20.5-19.8-1.1-2.8-1.8-5.8-2.4-8.8-.8-4.4-1.4-8.8-2-13.3-.5-3.6-.9-7.2-1.4-10.7-.3-1.9-.4-3.7-.3-5.6.4-6.5.8-13,1.7-19.4.9-6,2.4-11.9,4.9-17.5,1.9-4.2,4.3-8.2,7.4-11.7,6-6.8,13.6-10.6,22.7-11.3,4-.3,8.1-.3,12.1.1,8.5.9,15.8,4.4,21.3,11.2,5,6.1,8.1,12.9,9.5,20.6.2,1.3.3,2.6.4,3.9.3,6.5.8,12.9.7,18ZM633.59,477.74c.3,4.6.6,9.2.9,13.8.4,7.4,2.1,14.6,4.5,21.6.4,1.1.8,2.2,1.3,3.2,3,6.1,7.9,9.5,14.6,10.2,2.3.2,4.6.3,6.9.1,6.5-.4,11.5-3.4,15.2-8.8,1.3-1.9,2.3-4,3.2-6.1,2-4.8,3.2-9.9,4-15,.5-3.7.9-7.5,1.4-11.2s.7-7.5-.3-11.2c-.1-.6-.1-1.1-.2-1.7-.9-5.7-1.8-11.4-2.8-17.1-.6-3.1-1.3-6.2-2.1-9.3-1.8-6.3-6-10.4-12.2-12.5-3.2-1.1-6.4-1.6-9.8-1.5-6,.2-10.9,2.6-14.8,7.1-2.1,2.5-3.6,5.2-4.7,8.2-1.3,3.4-2.3,6.8-3,10.4-1.6,6.5-2.1,13.1-2.1,19.8Z"/>
      <path class="cls-1" d="M121.49,420.64h3.5c1.5,0,2.8.8,3.8,1.9,1.1,1.2,1.7,2.7,2.3,4.2,1.1,2.8,2.1,5.7,3.1,8.5,11.6,31,23.2,61.9,34.7,92.9.4.9.8,1.9,1,2.8.3,1.1.5,2.3.5,3.4.1,1.4-.5,2.6-1.6,3.4-4.3,3.1-9.9,2.3-12.8-2.4-.6-1-1-2.1-1.4-3.1-2.3-6.4-4.7-12.7-7-19.1-.4-1.2-.8-2.5-1.4-3.7-.7-1.7-2-2.8-3.9-3.2-.7-.1-1.4-.3-2.1-.3-2.5,0-4.9-.1-7.4,0-5.3.3-16.5.3-22.1,0-2.7-.1-5.5-.1-8.2,0-.6,0-1.1.1-1.7.2-1.7.3-2.9,1.3-3.6,2.8-.4.8-.6,1.6-.9,2.4-2.4,6.8-4.7,13.6-7.1,20.5-.7,2.1-1.7,4-3.3,5.5-3.1,2.9-7.8,2.7-10.5,1.1-1.8-1.1-2.6-2.7-2.3-4.8.1-1,.4-2,.7-2.9,1-3,2-6,3.1-9,7.5-20.3,15-40.6,22.5-60.9,3.9-10.6,7.7-21.1,11.6-31.7.5-1.4,1-2.7,1.6-4,.4-.8.8-1.6,1.3-2.2,1.1-1.4,2.6-2.3,4.5-2.3,1,0,2,0,3.1,0h0ZM121.69,492.94h15.2c1,0,2-.1,3-.2.3,0,.7-.7.6-1-.2-.7-.4-1.4-.7-2.1-5.5-14.9-11.1-29.7-16.6-44.6-.3-.7-.5-1.3-.8-2-.2-.4-.5-.7-1-.8s-1.1.3-1.4.8c-.4,1.1-.8,2.2-1.2,3.2-3.1,8.7-6.3,17.4-9.4,26-2.1,5.8-4.2,11.7-6.3,17.5-.2.7-.3,1.4-.5,2.1-.1.3.1.6.5.6.9.1,1.7.3,2.6.3,5.3.2,10.6.2,16,.2Z"/>
      <path class="cls-1" d="M184.69,465.54c.1-6.6.2-13.3.2-19.9,0-5.8-.1-11.6-.1-17.3,0-1.3,0-2.6.2-3.9.2-1.7,1.3-2.9,3-3.4,2.4-.7,4.9-.6,7.3,0,1.5.4,2.6,1.4,2.9,2.9.2,1.1.5,2.3.5,3.4,0,2.3-.1,4.6-.2,6.9,0,1.2-.1,2.3-.1,3.5,0,13.3-.1,26.6,0,39.9,0,5.1.3,10.1.3,15.2.1,4.8.8,9.5,2,14.1,1.1,4.7,3.2,9,6.7,12.4,2,1.9,4.2,3.5,6.8,4.6,3.6,1.6,7.4,2.5,11.3,2.6,1.3,0,2.6.1,3.9,0,10.8-.4,18.3-5.5,22.6-15.3.6-1.4,1.1-3,1.5-4.5,1.1-4.4,1.7-8.8,1.7-13.3,0-19.8.1-39.6.1-59.4,0-1.6-.1-3.2-.1-4.8,0-1.4.1-2.9.4-4.3.5-2.4,2.1-3.8,4.5-4.1,1.7-.2,3.5-.2,5.2,0,2.6.3,4.4,2.2,4.7,4.9.1,1,.1,2,.1,3v62c0,4.8-.2,9.5-.9,14.3-.7,4.3-1.8,8.5-3.6,12.4-3.8,8.2-9.9,14.1-18,18-5.7,2.7-11.7,4-18,4.3-6.9.3-13.6-.4-20-2.8-13.8-5.3-21.7-15.3-24.3-29.7-.5-2.7-.4-5.5-.4-8.2-.2-11.2-.2-22.4-.2-33.5h0Z"/>
      <path class="cls-1" d="M946.59,479.04v-47.2c0-2,.1-4,.4-6,.4-2.6,1.9-4.2,4.4-4.7.8-.2,1.7-.3,2.6-.3,1-.1,2,0,3,0h26.5c5.5,0,11-.1,16.5-.1,1.4,0,2.9.1,4.3.2,1.2.1,2.3.5,3.3,1.1.9.5,1.6,1.3,2,2.2.9,2.2.9,4.5,0,6.7-.5,1.3-1.4,2.2-2.7,2.7-1.2.5-2.5.9-3.8.9h-31.2c-1.4,0-2.9-.1-4.3-.1-1.2,0-2.3.1-3.4.3-1.2.2-2,1.1-2.4,2.3-.4,1.1-.3,2.3-.4,3.4v25.6c0,.7.2,1.4.4,2.1.3,1,1,1.7,2,2.1,1.7.5,3.4.6,5.1.5,5.5-.5,11-.3,16.5,0,1.6.1,3.2,0,4.8,0,2.2-.1,4.3-.2,6.5-.2,1.1,0,2.3.2,3.4.5,2,.5,3.2,1.9,3.6,3.9.3,1.4.3,2.9.1,4.3-.2,1.9-1.4,3.1-3.2,3.7-.8.3-1.7.3-2.6.3-1.9.1-3.8,0-5.6,0h-26.9c-2.6.1-3.9,1.5-4.1,4.1v31.2c0,.9,0,1.7.1,2.6.2,1.7,1.3,2.9,3,3.3.6.1,1.1.2,1.7.2h36c1.2,0,2.3,0,3.5.1,2.3.3,4,1.5,4.9,3.8.7,1.8.8,3.7.5,5.5-.4,2.2-1.8,3.6-4,4-1,.2-2,.2-3,.2h-46.8c-2,0-4-.1-6-.6-2.1-.6-3.5-1.9-4-4.1-.4-2.1-.6-4.3-.5-6.5v-32.5c-.2-5.1-.2-10.3-.2-15.5Z"/>
      <path class="cls-1" d="M883.09,516.24c.7-.1,1-.6,1.2-1.1,1-2.4,2-4.8,2.8-7.3,5.5-16.3,11-32.6,16.6-48.8,3.1-9.3,6.3-18.6,9.4-27.9.6-1.8,1.2-3.6,1.9-5.3.4-.9.8-1.9,1.4-2.7.8-1.3,2-2.1,3.5-2.3,2.7-.3,5.5-.3,8.2.1.3,0,.5.2.8.3,1.6.6,2.5,2,2.1,3.8-.5,1.8-1,3.6-1.7,5.4-5.2,14.4-10.4,28.8-15.6,43.2-6.8,18.9-13.6,37.8-20.4,56.7-.3,1-.7,1.9-1,2.8-1.4,3.5-4,5.6-7.8,6.2-1.1.2-2.3.2-3.5.2-3-.2-5.3-1.5-6.7-4.1-.8-1.5-1.5-3.1-2-4.8-3.2-9-6.4-18-9.6-26.9-9-25-18-50-27.1-75-.3-.9-.7-1.9-.9-2.9-.3-1.6.2-2.9,1.4-3.8.6-.4,1.2-.8,1.9-1,3-.7,6-.6,8.9.8,1.4.7,2.4,1.7,2.9,3.1,1.4,3.8,2.9,7.5,4.3,11.4,7,19.8,13.9,39.5,20.8,59.3,1.6,4.5,3.1,9,4.7,13.5,1,2.3,1.9,4.9,3.5,7.1Z"/>
      <path class="cls-1" d="M739.79,485.54c-.1-6.9-.2-13.9-.2-20.8,0-7.5.1-15,.1-22.5,0-1.2,0-2.3-.1-3.5,0-.6-.2-1.1-.4-1.7-.5-1.3-1.5-2.2-2.8-2.4s-2.6-.3-3.9-.3c-7.2,0-14.5.1-21.7.1-1.3,0-2.6-.3-3.8-.8-1.4-.6-2.4-1.6-2.9-3-.6-1.8-.8-3.6-.3-5.5.6-2.4,2.2-3.7,4.5-4.2,1.1-.3,2.3-.3,3.4-.3h7.8c20.1,0,40.2.1,60.3.1,1.3,0,2.6-.1,3.9-.1,1,0,2,0,3,.2,2.3.5,3.9,1.9,4.5,4.2.4,1.5.4,3.2,0,4.7-.5,2.1-1.8,3.6-3.9,4.2-1.1.4-2.3.5-3.4.5-7.4,0-14.8-.1-22.1-.1-.9,0-1.7,0-2.6.1-2,.2-3.2,1.2-3.6,3.2-.2,1-.4,2-.4,3-.1,1.9,0,3.8,0,5.6,0,2.5.2,4.9.2,7.4v73.3c0,1.9-.1,3.8-.2,5.6,0,.6-.1,1.2-.3,1.7-.6,2.4-2,4.1-4.6,4.7-2.2.6-4.3.5-6.4-.2-1.8-.6-3-1.8-3.6-3.5-.4-1.2-.6-2.5-.8-3.8-.1-1.1,0-2.3,0-3.5.2-14.1.2-28.3.3-42.4h0Z"/>
      <path class="cls-1" d="M320.99,485.64v-43.3c0-1.6.1-3.2-.4-4.7-.6-1.9-1.7-3-3.7-3.2-1-.1-2-.1-3-.1-7.2,0-14.5.1-21.7.1-1.2,0-2.3-.2-3.4-.5-2.3-.8-3.6-2.4-4-4.7-.2-1.3-.2-2.6,0-3.9.2-1.7,1.1-3,2.6-3.7,1-.5,2.1-.9,3.3-.9h76.3c1.2,0,2.3.5,3.3,1.1.9.5,1.6,1.3,1.9,2.3.7,1.9.9,3.9.2,5.9-.6,1.8-1.7,3-3.4,3.7-.8.3-1.7.5-2.5.6-1.6.1-3.2.2-4.8.2h-19.1c-1,0-2,0-3,.1-1.4.2-2.3,1.1-2.7,2.5-.2.7-.3,1.4-.3,2.1v89.3c0,2,0,4-.5,6-.7,2.5-2.2,4-4.7,4.6-2,.5-4,.5-6-.2-1.8-.6-3-1.7-3.6-3.5-.3-.9-.6-1.9-.7-2.9-.1-1.4-.1-2.9-.1-4.3,0-14.2,0-28.4,0-42.6h0Z"/>
      <path class="cls-1" d="M804.19,479.24v-50.7c0-1.3,0-2.6.1-3.9.2-2.2,1.7-3.8,3.9-3.9,1.9-.1,3.8,0,5.6.1.7,0,1.4.3,2.1.6,1.4.5,2.1,1.5,2.5,2.8.2.5.2,1.1.3,1.7.1,2,.3,4,.3,6.1v98c0,1.6-.1,3.2-.3,4.7s-1.1,2.7-2.4,3.4c-2.7,1.3-5.5,1.8-8.4.8-1.6-.6-2.7-1.7-3.1-3.3-.2-.8-.4-1.7-.4-2.6-.1-1.2,0-2.3,0-3.5-.2-16.8-.2-33.6-.2-50.3Z"/>
      <path class="cls-1" d="M548.39,36.94c-3,.2-5.6.1-8.2.1-1,0-1.6-.7-1.8-1.6-.3-1.1-.7-2.2-1-3.3-1.7-5.7-3.5-11.3-5.2-17-.2-.5-.4-1.1-.7-1.5-.1-.1-.5-.1-.9-.1v2.2c.2,5,.1,10.1.5,15.1.1,1.7,0,3.5-.1,5.2,0,.5-.6,1.1-1.1,1.1-2.7.1-5.5.1-8.2.2-.5,0-1.1-.6-1.1-1.1-.2-3.3-.3-6.6-.5-9.9-.2-4.8-.4-9.5-.6-14.3-.1-3.3-.2-6.6-.2-10,0-1,.6-1.6,1.6-1.7,2.6-.1,5.2-.3,7.8-.3s4.9,0,7.4.1c.6,0,1.1.3,1.3.9,1.2,3.8,2.5,7.7,3.7,11.6.7,2.2,1.3,4.4,2,6.6.2.5.4,1,1.2,1,.4-1.1.7-2.1,1.1-3.2,1.5-4.7,2.9-9.4,4.3-14.1.3-.9.7-1.8,1.1-2.8,1-.1,1.9-.2,2.7-.1,3.6,0,7.2.1,10.8.2,1.1,0,2.3.3,3.4.6.2,0,.5.4.6.6.1.8.3,1.7.2,2.6-.5,6.3-.6,12.7-.9,19-.2,3.9-.4,7.8-.6,11.7,0,.6-.1,1.2-.2,1.7-.1.4-.4.9-.8.9-2.7,0-5.5-.1-8.2-.1-.7,0-1.3-.7-1.3-1.4,0-2.6,0-5.2.1-7.8.1-4.2.2-8.4.3-12.5,0-.6-.1-1.1-.2-1.7,0-.1-.2-.2-.3-.2s-.4,0-.4.1c-.4,1.1-.8,2.1-1.2,3.2-1.7,5.4-3.3,10.7-5,16.1-.5,1.1-.9,2.3-1.4,3.9Z"/>
      <path class="cls-1" d="M763.59,44.64c3.8,1.5,7.6,3.1,11.3,4.9,1.5,4.9,2.6,9.7,3.8,14.4.7,2.9,1.5,5.9,2.3,8.8,0,.1.2.2.3.3.3.2.5.2.7-.1.4-.6.7-1.2,1-1.9,1.4-2.8,2.8-5.7,4.2-8.6.7-1.4,1.4-2.9,2.1-4.3.3-.5.7-.9,1.1-1.3.7.2,1.3.4,1.8.6,2.7,1.3,5.4,2.7,8.1,4.1,1.3.7,1.5,1.3,1,2.4-5.1,10-10.3,20-15.4,30-.2.4-.5.7-.8,1-2.6-.7-6.6-2.6-11.1-5.3-.4-1.7-.8-3.5-1.3-5.3-1.2-5.2-2.4-10.4-3.7-15.6-.2-.8-.4-1.7-1.1-2.3-.8.5-1.1,1.3-1.4,2.1-1.8,3.9-3.5,7.9-5.3,11.8-.3.7-.6,1.3-.9,1.9-.2.4-1,.7-1.5.4-1.5-.6-2.9-1.3-4.4-1.9-1.6-.7-3.2-1.4-4.7-2.1-.4-.2-.7-1-.6-1.5.1-.4.3-.8.4-1.2,4.2-10,8.4-19.9,12.6-29.9.3-.5.6-1.1,1.5-1.4Z"/>
      <path class="cls-1" d="M429.99,11.84c.5-.3.8-.6,1.2-.7,3.4-.9,6.8-1.5,10.2-1.9.5-.1,1.2.4,1.3.9.5,2.3.9,4.5,1.3,6.8,1.6,8.5,3.1,17,4.6,25.5.1.4.1.9.2,1.3.1,1-.4,1.7-1.3,1.9-3.1.6-6.2,1.2-9.4,1.8-.5.1-1.2-.2-1.6-.4-.7-.5-1.3-1.1-2-1.6-4.5-3.8-9.1-7.6-13.6-11.4-.5-.5-1.2-.8-1.8-1.2-.3-.2-.6,0-.7.3,0,.7,0,1.4.1,2.1.9,4.1,1.9,8.1,2.9,12.2.2.7.3,1.4.4,2.1.1.8-.2,1.4-1,1.6-3.1.8-6.2,1.6-9.2,2.3-.1,0-.3.1-.4,0-.3-.1-.6-.2-.7-.4-.3-.6-.6-1.3-.8-2-2.1-8-4.1-15.9-6.2-23.9-.7-2.7-1.4-5.3-2-8-.2-.8.2-1.5.9-1.7,3.6-.9,7.3-1.8,10.7-2.6,1.5.5,2.5,1.4,3.5,2.2,4.5,3.6,9,7.3,13.5,10.9.7.5,1.3,1.1,2.1,1.6.2.1.5,0,.8,0,.1,0,.2-.3.2-.4-.1-1-.2-2-.4-3-.8-4.2-1.7-8.5-2.6-12.7-.1-.5-.1-1-.2-1.6Z"/>
      <path class="cls-1" d="M218.29,129.74c-.6.4-1.1.6-1.6,1-3,2.3-6,4.6-8.9,6.9-.2.2-.3.5-.5.8.1.3.2.8.5,1.1.8,1.1,1.6,2.1,2.4,3.1,1.4,1.8,2.9,3.6,4.3,5.5,1.4,1.8,1.4,2.2-.3,3.5-2.2,1.8-4.5,3.6-6.8,5.4-.2.2-.4.4-.7.5-.9.7-1.6.6-2.3-.1-.3-.3-.6-.7-.8-1-6.6-8-13.3-16-19.9-24-.5-.6-.9-1.1-1.2-1.8-.2-.4-.2-.8.2-1.2l.3-.3c3-2.4,6.1-4.9,9.1-7.3.6-.5,1.4-.4,1.9.3.9,1.1,1.8,2.2,2.7,3.4,1.3,1.6,2.5,3.2,3.8,4.7.3.3.7.4,1.2.3.1-.1.3-.1.4-.2,3.3-2.5,6.7-5.1,10-7.6.2-.2.3-.5.6-.8-.4-.7-.9-1.4-1.4-2.1-1.7-2.3-3.4-4.7-5.1-7-.5-.7-.4-1.3.3-1.9,3.3-2.5,6.7-5,10.2-7.3.4.3.8.5,1.1.8.4.4.7.9,1,1.4l18,25.5c.2.4.5.7.7,1.1.6.9.5,1.5-.5,2.2-2.8,2-5.6,4.1-8.4,6.1-.7.5-1.5.4-1.9-.2-1.4-1.8-2.8-3.7-4.2-5.5-1-1.3-1.9-2.6-2.9-3.8-.3-.8-.8-1.1-1.3-1.5Z"/>
      <path class="cls-1" d="M344.19,74.94c-.3.4-.5.9-.8,1-3.4,1.5-6.9,2.9-10.3,4.3-.7-.2-1.1-.6-1.4-1.2-.8-1.9-1.6-3.7-2.4-5.6-.6-1.5-1.3-2.9-1.9-4.4-.8-1.8-1.3-2.1-3-1.3-3.2,1.4-6.3,2.8-9.5,4.3-.6.3-.9.7-1.2,1.4.9,2,1.9,4.1,2.9,6.2.9,2.1,2.1,4.1,2.8,6.3-.4.4-.7.7-1.1.9-3.1,1.5-6.2,3-9.4,4.5-.8.4-1.3.2-1.8-.6-.2-.4-.4-.8-.6-1.1-4.5-9.2-9.1-18.4-13.6-27.6-.4-.8-.8-1.6-1.1-2.4-.2-.4-.1-.8.3-1.2.1-.1.2-.2.3-.3,3.5-1.7,7-3.4,10.5-5.1.5-.2,1.2.1,1.5.6,1.1,2.2,2.1,4.4,3.2,6.7.4.9.9,1.8,1.3,2.7.4.8.9,1,1.8.6,3.6-1.6,7.1-3.2,10.7-4.8.7-.3,1-1.1.6-1.8-1-2.4-2-4.8-3-7.2-.3-.8-.7-1.6-1-2.4-.1-.4.1-1,.4-1.1.6-.3,1.3-.7,1.9-1,2.9-1.2,5.9-2.4,8.8-3.6.7-.3,1.5,0,1.8.7s.6,1.3.9,2c3.8,9.4,7.6,18.7,11.4,28.1.4.8.7,1.6,1,2.4Z"/>
      <path class="cls-1" d="M670.09,14.34c2.8.7,6.3,1.5,9.8,2.4,1,.2,1.5,1,1.2,1.9-.6,2.5-1.3,5-1.9,7.6-.2.7-.3,1.4-.4,2.1-.1.7.3,1.4,1.1,1.6,3.8,1,7.5,2,11.3,3,.5.1,1.2-.3,1.4-.8.7-2.2,1.3-4.4,1.9-6.7.4-1.2.7-2.5,1.2-3.7.1-.3.8-.6,1.1-.5,3.8,1,7.5,2.2,11.2,3.3.5.2.9.9.8,1.4-.2.7-.3,1.4-.5,2.1-3,9.7-5.9,19.3-8.9,29-.2.7-.4,1.4-.7,2.1-.2.6-1,1-1.8.8-3.3-1-6.6-1.9-10-2.9-.5-.1-.9-.9-.8-1.4.9-3.3,1.8-6.7,2.8-10,.2-.7.3-1.4.5-2.1.1-.5-.3-1.3-.8-1.4-3.6-1-7.2-1.9-10.9-2.9-.9-.2-1.7.3-1.9,1.3-.8,3.1-1.5,6.2-2.3,9.2-.1.6-.3,1.1-.5,1.7-.5,1.6-.8,1.7-2.5,1.3-.7-.2-1.4-.3-2.1-.5-2.4-.6-4.8-1.2-7.1-1.8-.8-.2-1.1-.7-.9-1.7.1-.4.2-.8.3-1.3.9-4.2,1.9-8.5,2.8-12.7,1.4-6.1,2.8-12.1,4.2-18.1.1-.4.2-.8.3-1.3,0-.9.6-1.3,2.1-1Z"/>
      <path class="cls-1" d="M298.39,90.64c-2.1,4-4.8,7.5-8,10.2-4,3.4-8.5,6-13.4,7.9-2.3.9-4.7,1.4-7.2,1.5-2.4.1-4.7-.3-6.8-1.2-7.2-3.2-11.3-8.7-12.3-16.6-.4-2.9.2-5.8,1.5-8.4,1.3-2.8,3.1-5.2,5.5-7.2,4.4-3.6,9.3-6.3,14.6-8.4,1.6-.6,3.3-.9,5.1-1,3.6-.2,6.8.8,9.6,3.2.6.5.6,1.3-.1,1.8-2.9,2.1-5.8,4.3-8.7,6.4-.2.2-.5.2-.8.3-.9.1-1.6-.5-2.4-.7-1.1-.4-2.3-.4-3.4-.1-2.4.7-4.5,1.9-6.2,3.8-1.7,2-2.4,4.3-1.9,6.8.7,3.3,2.4,6.2,4.8,8.6,2.4,2.4,5.3,2.9,8.4,1.9,3.7-1.2,6.6-3.5,8.6-6.9.5-.9,0-1.7-.5-2.4-.4-.6-.9-.8-1.5-.5-1.5.8-3.1,1.6-4.6,2.4-.5.3-1,.6-1.6.7-.4.1-1-.1-1.1-.4-1-1.6-1.9-3.2-2.8-4.9-.2-.4,0-1.3.4-1.6.1-.1.2-.2.4-.2,5.2-2.8,10.4-5.6,15.6-8.4.2-.1.6-.2.8-.2.5-.1.8.2,1.1.5.2.2.4.4.5.7,1.9,3.7,3.8,7.5,5.7,11.2.5.4.6.8.7,1.2Z"/>
      <path class="cls-1" d="M458.09,43.74c-1-1.1-1.1-2.2-1.2-3.1-1.3-7.7-2.5-15.4-3.7-23.1-.4-2.6-.8-5.1-1.3-7.7-.1-.4-.1-.9-.2-1.3-.1-.5.5-1.2,1-1.3,1.8-.3,3.7-.7,5.6-1,4.1-.6,8.3-1.2,12.4-1.7,2.7-.4,5.5-.4,8.2-.2,5.6.5,9.8,3.2,12.4,8.3,1,1.9,1.7,4,1.9,6.2.3,2.9.7,5.7.1,8.6-1,5.5-4.1,9.5-9.2,11.7-2.7,1.2-5.5,1.8-8.4,2.2-5,.8-10,1.4-15,2.1-.8.1-1.7.2-2.6.3ZM480.19,25.14c-.1-1.2-.1-2.2-.2-3.2-.1-1.6-.5-3.1-1.1-4.6-.8-2-2.3-3.3-4.4-3.8-2.5-.6-4.9-.3-7.3.4-.5.1-.9.7-.8,1.3.8,5.6,1.5,11.1,2.3,16.7,0,.3.1.6.3.8s.4.5.7.5c2.5.1,4.9-.3,7.2-1.3,1.7-.7,2.7-2.1,3.1-3.9.2-1.1.2-2.1.2-2.9Z"/>
      <path class="cls-1" d="M395.29,27.34c-.6.7-1.4.9-2.2,1.2-5.1,1.5-10.3,3-15.4,4.5-1.1.3-2.2.6-3.1,1.3-.3.8.1,1.4.3,2.1.9,2.9,1,3,4,2.1,5-1.5,10-3,15-4.4.4-.1.9-.2,1.3-.1.3,0,.6.2.7.4.6,1.8,1.1,3.6,1.6,5.4.2.7-.2,1.4-1,1.7-5.1,1.5-10.2,3-15.4,4.6-.7.2-1.4.5-2,.8-.2.1-.4.5-.4.7.1,1.9.7,3.7,1.7,5.3.1.2.5.4.7.3,1-.2,2-.4,2.9-.7,5-1.5,10-2.9,15-4.4.7-.2,1.4-.3,2.1-.3.2,0,.5.2.7.4.1.1.2.2.2.4.6,1.9,1.1,3.9,1.6,5.8.2.6-.2,1.2-.7,1.4-.4.2-.8.4-1.2.5-9.8,2.7-19.4,5.7-29,8.9-.5.2-1.1.3-1.7.4-.2,0-.6-.2-.7-.4-.5-1-.9-2.1-1.3-3.2-2.6-7.6-5.3-15.3-7.9-22.9-.8-2.3-1.6-4.6-2.4-7-.2-.6.1-1.2.6-1.5.5-.2,1.1-.5,1.6-.6,9.7-3.3,19.5-6.3,29.4-9,.7-.2,1.4-.4,2.1-.5.5-.1,1.2.3,1.4.8.5,2,1,3.9,1.5,5.9.1-.2,0,0,0,.1Z"/>
      <path class="cls-1" d="M896.39,136.74c-.5-.2-.9-.3-1.2-.5-2.8-2-5.6-4.1-8.4-6.1-.8-.6-1.1-1.3-.7-2.2.6-2-.2-3.7-1.5-5.1-1-1.1-2.1-2-3.5-2.6-.4-.2-.8-.3-1.2-.4-.8-.1-1.4.1-2,.7-.5.6-.6,1.3-.3,2,.4,1.3,1.4,2.2,2.2,3.2,1.5,1.8,3.1,3.4,4.6,5.2,1.2,1.4,2.3,3,3.3,4.5,1,1.4,1.7,3,2.3,4.7,1.9,5.7-1.7,11.3-7.3,12.6-2.8.6-5.4.4-8.1-.4-.3-.1-.5-.2-.8-.3-6.7-2.7-12.2-7.1-16.6-12.8-3.1-4.1-3.3-8.8-1.1-13.5.2-.5,1-.8,1.5-.5,3,1.9,6.1,3.9,9.1,5.9.5.4.7.9.6,1.5-.1.4-.2.8-.4,1.2-.6,1.8-.2,3.5.8,4.9,1.3,2,3.1,3.4,5.4,4.1.7.2,1.4.2,2.1.1,1.6-.3,2.6-2.1,2.1-3.7-.4-1.1-1-2.1-1.7-3-1.1-1.3-2.3-2.6-3.3-4-1.5-1.9-3.1-3.8-4.5-5.8-1.1-1.5-1.9-3.2-2.5-5-1.7-5.2,1.6-10.6,7.5-11.2,1.6-.2,3.2-.1,4.7.4,1.7.5,3.3,1.1,4.8,1.9,4.5,2.4,8.5,5.5,11.9,9.3,1.9,2.1,3.3,4.4,3.9,7.1.5,2.8.1,5.4-1.7,7.8Z"/>
      <path class="cls-1" d="M577.29,1.24c1.5-.4,2.9-.1,4.4,0,5.5.4,10.9.9,16.4,1.4,4.2.4,8.3.9,12.5,1.4.6.1,1.1.2,1.7.3.4.1.7.5.7.9,0,.7,0,1.4-.1,2.2-.5,5.3-.3,4.9-5.4,4.3-5-.6-10.1-1-15.1-1.5-2.1-.2-2.4.2-2.7,2.4-.1.6,0,1.1-.1,1.7,0,.6.4,1.1,1,1.2.6.1,1.1.2,1.7.3,4.7.5,9.5,1,14.2,1.5.7.1,1.5.1,2.1.4.3.1.8.6.8.9.1,2,.1,4-.6,5.9-.1.2-.4.5-.6.5-1.1,0-2.3.1-3.4-.1-3.9-.4-7.8-.9-11.6-1.3-.9-.1-1.7-.1-2.6-.2-1.3-.1-1.8.4-1.9,1.7-.1,1.4-.1,2.9-.1,4.3,0,.2.3.6.5.6.5.2,1.1.3,1.7.3,5,.5,10.1,1,15.1,1.6,1.1.1,2.3.4,3.4.6.5.1.9.8.9,1.3v.9c-.1.6-.1,1.1-.2,1.7-.8,4.8.1,4.5-5.4,4-2.4-.2-4.9-.6-7.3-.8-4.7-.5-9.5-.9-14.2-1.3-2.3-.2-4.6-.3-6.9-.5-.8-.1-1.3-.7-1.3-1.5.1-2.5.3-4.9.4-7.3.1-1,.2-2,.2-3,.4-7.1.8-14.1,1.2-21.2-.1-1.1-.1-2.4.6-3.6Z"/>
      <path class="cls-1" d="M702.79,61.14c.3-1,1.1-1.7,1.7-2.5,6.6-7.7,13.3-15.2,20.2-22.6,1.3-1.4,2.6-2.7,3.9-4,.4-.4,1-.6,1.6-.4,3.9,1.4,7.9,2.8,11.8,4.3.9.3,1.3,1,1.4,2,.1,2.2.4,4.3.5,6.5.3,6.3.6,12.7.8,19,.1,3.9.1,7.8.2,11.7,0,.8-.7,1.4-1.4,1.1-3.4-1.3-6.7-2.6-10.1-3.9-.9-.4-1.3-1.1-1.2-2.1v-.4c.6-4.9.2-4.3-3.7-5.8-2.8-1.1-5.7-2.1-8.5-3.1-.7-.3-1.4-.1-1.9.6-.1.1-.2.2-.3.3-3.3,4.2-2.5,3.8-7.4,2.3-1.9-.6-3.8-1.2-5.8-1.9-.7-.2-1.4-.4-1.8-1.1ZM732.49,55.94c.2-3.5.5-7.1.2-10.7,0-.2-.3-.4-.5-.6-.1-.1-.3,0-.4.1-2.5,2.5-4.8,5.3-6.8,8.3-.2.3.1.9.5,1,2,.7,4,1.5,6.1,2.1.2.2.5,0,.9-.2Z"/>
      <path class="cls-1" d="M844.69,113.44c.4.2.7.2.9.4,2.2,2.5,4.4,4.9,6.6,7.4.5.6.3,1.5-.3,1.9-4.8,3.4-10.1,4.3-15.6,2.2-5.6-2.1-10.5-5.4-14.5-9.9-2.8-3.1-4.1-6.9-4.2-11.1,0-7.2,3.1-12.8,8.7-17.1,3.2-2.5,7-3.2,11.1-2.7,3,.4,5.9,1.3,8.6,2.7,3.1,1.6,6,3.5,8.6,5.8,1.6,1.4,3.1,3,4.2,4.9,2.2,3.6,2.8,7.5,1.9,11.7-.1.3-.7.6-1.1.5-.1,0-.3,0-.4-.1-3-1.3-6.1-2.7-9.1-4.1-.5-.2-.9-.7-.9-1.4.6-4-2.5-7.5-6.7-8.9-2.5-.8-4.9-.4-6.9,1.3-3,2.5-4.8,5.8-5.8,9.5-.6,2.1,0,4,1.4,5.7.8,1,1.9,1.8,3,2.5,2.7,1.6,5.4,1.8,8.2.1.9-.5,1.7-.9,2.3-1.3Z"/>
      <path class="cls-1" d="M652.59,23.04h-4.3c-.6,0-1.1-.3-1.4-.9-.3-.5-.5-1.1-.7-1.6-1.8-3.9-7.9-5.3-11.3-3.3-1.3.7-2.4,1.7-3,3-1.8,3.8-2.5,7.7-1.6,11.8.4,1.8,1.6,3.1,3.2,3.9,1.6.8,3.2,1.2,5,1.2s3.4-.7,4.7-1.9c.3-.3.6-.6.9-1,2.3-3.4,2.2-2.7,5.5-1.1,1.7.8,3.4,1.6,5.1,2.5,1.9,1,1.9,1.4.7,3.3-1.9,2.9-4.4,4.9-7.6,6.1-1.2.5-2.5.8-3.8.9-5.9.5-11.6-.4-16.9-2.9-5.7-2.6-9-7.2-10-13.3-.7-4.1-.2-8.1,1.3-11.9,2.3-5.9,6.7-9.3,12.9-10.3,5.7-.9,11.2-.2,16.6,1.8,1.5.5,2.9,1.3,4.3,2.1,3.7,2.4,5.9,5.8,6.7,10.2.1.5-.4,1.2-1,1.2-1.9.2-3.6.2-5.3.2h0Z"/>
      <path class="cls-1" d="M246.19,127.64c-.8-.2-1.2-.8-1.6-1.4-2.6-3.8-5.2-7.7-7.8-11.5-3.2-4.8-6.5-9.6-9.7-14.3-.5-.7-.9-1.4-1.4-2.2-.2-.4-.2-.8.1-1.2.1-.1.2-.2.3-.3,3.2-2.2,6.5-4.3,9.8-6.4.6-.4,1.4-.2,1.9.4.3.4.5.7.7,1.1,5.8,9,11.5,18,17.3,27,.4.6.8,1.2.7,2-2.2,1.9-7.5,5.4-10.3,6.8Z"/>
      <path class="cls-1" d="M822.59,74.14c-.4.8-.7,1.4-1,2-5.2,9.1-10.4,18.3-15.6,27.4-.4.6-.8,1.2-1.2,1.8-.1.2-.5.2-.8.2s-.5-.2-.8-.3c-2.9-1.6-5.8-3.2-8.7-4.8-.5-.3-.8-.8-1.3-1.2.3-.8.6-1.4.9-2.1,4.9-9.1,9.8-18.3,14.7-27.4.3-.6.7-1.2,1.1-1.9.3-.4,1-.6,1.5-.4.3.1.5.2.8.3,3,1.7,6.1,3.3,9.1,5,.5.5.9,1,1.3,1.4Z"/>
    </g>
  </g>
</svg>