<?xml version="1.0" encoding="utf-8"?>
<!-- Generator: Adobe Illustrator 28.2.0, SVG Export Plug-In . SVG Version: 6.00 Build 0)  -->
<svg version="1.1" id="Layer_1" xmlns="http://www.w3.org/2000/svg" xmlns:xlink="http://www.w3.org/1999/xlink" x="0px" y="0px"
	 viewBox="0 0 1348.9 841.9" style="enable-background:new 0 0 1348.9 841.9;" xml:space="preserve">
<g>
	<path d="M1011.2,347.3c0.9,0,1.3-0.4,1.7-0.8c3.5-3.4,7-6.9,10.6-10.3c7-6.8,11.7-15,14.5-24.3c1.6-5.1,2.6-10.4,3.5-15.6
		c2.1-12,4.1-23.9,6.1-35.9c0.8-5.1,2.7-9.7,5.8-13.9c1.3-1.7,2.6-3.5,4.1-5c10.2-10.8,21.7-19.9,34.8-27
		c6.8-3.6,13.5-7.2,20.4-10.6c3.1-1.6,6.4-2.7,9.8-3.3c2.3-0.4,4.6-0.3,6.8,0.7c1.5,0.7,2.7,1.7,3.5,3.2c1,1.9,1.1,3.9,0.1,5.8
		c-1,1.8-2.1,3.4-3.2,5.1c-6.1,9.2-12.2,18.3-18.2,27.5c-2.8,4.2-5.6,8.4-8.4,12.7c-0.4,0.6-0.8,1.2-1.2,1.8c-1.5,2.4-2.2,5-2.1,7.8
		c0.2,4.6,1.3,8.9,3.5,12.8c1.2,2.1,2.6,4.2,4,6.1c6.2,8.1,13.4,15.1,22,20.7c3,2,6,4,9.1,5.9c2.3,1.4,4.8,2.7,7.2,4
		c3.9,2.1,8,2.4,12.2,1.7c2.3-0.4,4.5-1.1,6.6-2.1c2.3-1.1,4.1-2.6,5.5-4.7c0.1-0.1,0.2-0.2,0.2-0.4c4-7.4,9-14.1,13.5-21.2
		c6-9.4,12.1-18.7,18.2-28c0.7-1.1,1.5-2.2,2.3-3.2c0.8-1.1,2.3-1.3,3.5-0.5c0.2,0.1,0.5,0.3,0.7,0.5c3.8,2.9,5.9,6.7,6,11.4
		c0.1,2.9-0.1,5.8-0.3,8.7c-1,11.3-3.1,22.3-6.2,33.2c-1.9,6.8-4,13.6-6,20.4c-1,3.2-2.3,6.2-3.8,9.2c-2.7,5.4-5.8,10.7-9.2,15.7
		c-2.6,3.9-5.5,7.4-9,10.5c-4.3,3.8-9.1,6.7-14.6,8.2c-4.9,1.4-9.9,1.9-15,1c-4.6-0.8-9.1-1.4-13.8-1.5c-8.9-0.3-17.6,0.9-26.1,3.2
		c-9.6,2.6-18.5,6.5-26.9,11.8c-3.3,2.1-6.4,4.4-9.3,7.1c-2.4,2.3-4.8,4.6-7,6.8c0,1,0.5,1.6,1,2.1c2,2.5,4.1,4.9,6.1,7.4
		c6.8,8.3,12.9,17,19.2,25.7c0.6,0.8,1.1,1.7,1.6,2.6c0.9,1.8,0.6,3.4-0.9,4.7c-1.1,0.9-2.3,1.7-3.6,2.5c-3.2,1.9-6.5,3.8-9.7,5.7
		c-1,0.6-2,1.2-2.9,1.9c-1.2,0.9-1.6,2.6-1.1,3.9c0.3,0.8,0.6,1.6,1.1,2.4c5.3,9.8,10.6,19.6,15.9,29.4c0.3,0.6,0.7,1.3,1.1,1.9
		c0.7,1,1.6,1.6,2.8,1.8c1.2,0.2,2.3,0.2,3.4-0.3c2.1-0.9,4.3-1.8,6.4-2.7c2.6-1.2,5.2-2.5,7.8-3.7c0.7-0.3,1.3-0.7,2-0.8
		c3-0.7,4.7-0.3,6.2,2.5c0.5,0.9,0.9,1.8,1.2,2.8c7.2,17.5,14.5,35,21.7,52.5c0.5,1.3,1,2.7,1.4,4.1c0.4,1.3-0.5,2.7-1.9,2.9
		c-0.6,0.1-1.1,0.2-1.7,0.2c-1.3,0-2.6,0-3.9,0c-28.8,0-57.6,0-86.4,0c-0.9,0-1.7,0-2.6,0c-2.1-0.1-3.6-1.1-4.5-2.9
		c-0.7-1.3-1.2-2.6-1.6-4c-2.3-6.5-4.9-13-7.7-19.3c-10.5-23.8-23.8-45.9-39.9-66.3c-9.7-12.3-19.7-24.2-30.4-35.6
		c-16.4-17.6-34.5-33.3-54.3-47.1c-17.1-12-35-22.5-53.7-31.7c-23.6-11.7-48.2-20.9-73.7-27.7c-12.3-3.3-24.7-5.9-37.3-7.9
		c-5.4-0.9-10.9-1.4-16.4-2c-7-0.8-14.1-1.5-21.1-2.3c-6.8-0.7-13.5-1.3-20.3-1.7c-3.5-0.2-6.9,0-10.4,0c-8.5-0.1-17.1,0.4-25.6,0.9
		c-7.9,0.4-15.8,1.2-23.7,2.2c-10.9,1.3-21.8,3-32.5,5.2c-18.3,3.6-36.3,8.5-53.9,14.7c-38.8,13.5-74.7,32.5-107.5,57.2
		c-12.7,9.6-24.8,19.9-36.3,30.9c-25.9,24.8-47.7,52.7-65.2,83.9c-4.6,8.2-8.7,16.7-12.5,25.2c-3.3,7.4-6.6,14.8-9.9,22.2
		c-0.6,1.3-1.2,2.6-2,3.8c-1,1.5-2.4,2.5-4.3,2.6c-1.2,0.1-2.3,0.2-3.5,0.1c-2.7,0-5.5-0.1-8.2-0.1c-24.9,0-49.8,0-74.6,0
		c-2.5,0-4.9,0.1-7.4,0.1c-1.9,0-3.8-0.1-5.6-0.3c-1.5-0.2-2.5-1.7-2.3-3.2c0.1-0.4,0.1-0.9,0.2-1.3c0.3-0.8,0.5-1.6,0.9-2.5
		c5.1-12.9,10.2-25.8,15.2-38.7c0.4-1.1,0.9-2.1,1.5-3.1c1.3-2.4,4.2-3.4,6.3-2.5c0.9,0.4,1.9,0.7,2.8,1.1c4.3,1.8,8.5,3.6,12.7,5.5
		c1.1,0.5,2.2,0.8,3.3,0.9c1.4,0.1,2.6-0.4,3.4-1.5c0.7-0.9,1.3-1.9,1.7-3c4.4-9.6,9.2-19,14.1-28.3c0.6-1.1,1.1-2.3,1.6-3.6
		c0.5-1.5,0.1-2.9-1.1-3.9c-0.8-0.6-1.6-1.2-2.5-1.6c-3.6-1.9-7.2-3.7-10.8-5.5c-0.9-0.5-1.8-1-2.6-1.5c-2.3-1.7-2.8-3.8-1.5-6.5
		c0.3-0.6,0.8-1.2,1.1-1.9c4.5-7.4,9.5-14.5,14.8-21.4c5.3-6.8,10.6-13.8,15.8-20.6c0.7-0.9,1.4-1.9,2-2.8c-0.2-0.5-0.3-1-0.5-1.2
		c-7.4-7.6-15.5-14.3-24.8-19.4c-8-4.4-16.6-7.4-25.6-9.3c-7.4-1.6-14.9-2.2-22.4-2c-1.7,0-3.5,0.2-5.2,0.4
		c-2.6,0.4-5.1,0.9-7.7,1.2c-4.8,0.6-9.5,0-14.2-1.2c-3.1-0.8-6-2.2-8.6-3.9c-5.4-3.4-10-7.8-13.8-13c-5.6-7.6-10.1-15.8-13.2-24.8
		c-4.1-12-7.7-24.2-10.3-36.7c-1-4.8-1.6-9.7-2.3-14.6c-0.3-2.4-0.5-4.9-0.7-7.3c-0.1-1.9-0.3-3.8-0.1-5.6c0.4-4.7,2.3-8.6,6.2-11.4
		c0.3-0.2,0.7-0.5,1.1-0.6c0.9-0.4,2.2-0.2,2.8,0.6c0.6,0.7,1.1,1.3,1.6,2.1c9.2,14.7,19.1,28.9,28.1,43.8c1.3,2.2,2.8,4.4,4.3,6.5
		c2.6,3.7,6.2,5.9,10.7,6.9c4.2,0.9,8.3,1.1,12.4-0.1c2.1-0.6,4.1-1.5,5.9-2.7c5.6-3.8,11.3-7.6,16.7-11.6
		c5.3-3.8,10.1-8.2,14.3-13.2c3.3-3.9,6.1-8.1,8.2-12.7c1.1-2.4,1.9-4.8,2.2-7.5c0.4-3.5,0-6.9-1.7-10.1c-0.8-1.5-1.6-3.1-2.7-4.4
		c-9-12.1-17.1-24.7-25.2-37.4c-1-1.6-2-3.2-3-4.8c-0.4-0.6-0.8-1.2-1.1-1.9c-0.7-1.6-0.6-3.1,0.3-4.5c1.9-2.9,4.7-4.2,8-4.5
		c2.9-0.3,5.8,0.3,8.5,1.3c1.8,0.7,3.5,1.4,5.2,2.2c7.9,4.2,15.8,8.4,23.5,13c7.8,4.7,15.3,9.9,22.1,16c4,3.6,7.7,7.4,11.1,11.6
		c4.1,5.1,6.6,10.8,7.7,17.2c0.9,5.4,1.7,10.8,2.6,16.3c1.4,8.4,2.8,16.8,4.3,25.2c0.7,4.1,2,8.1,3.4,12.1
		c2.8,7.6,6.8,14.4,12.5,20.1c4.2,4.2,8.6,8.2,12.9,12.2c0.3,0.3,0.8,0.4,1.2,0.6c0.6-0.4,1.2-0.8,1.7-1.3
		c6-5.6,12.7-10.6,19.3-15.5c8.7-6.5,17.4-13,26.1-19.5c0.8-0.6,1.7-1.2,2.5-1.7c1-0.7,2.1-0.9,3.3-0.9c1,0,2,0.3,2.8,1
		c0.8,0.8,1.6,1.6,2.4,2.5c1.2,1.5,2.2,3,3.4,4.5c0.8,1,1.7,2,2.6,2.9c1.6,1.5,3.5,1.9,5.6,1c1.1-0.5,2.1-1,3.1-1.6
		c1.3-0.7,2.5-1.5,3.7-2.3c7.8-5,15.7-9.8,23.9-14.1c0.9-0.5,1.8-1,2.6-1.6c0.5-0.3,0.9-0.7,1.3-1.1c1-1.2,1.5-2.5,0.8-4
		c-0.5-1-1.1-2.1-1.7-3c-1.1-1.8-2.4-3.6-3.5-5.5c-0.4-0.6-0.8-1.2-1.1-1.9c-0.8-1.9-0.7-4.2,1.7-5.7c1-0.6,2-1.1,3.1-1.6
		c14.6-7.4,29.6-13.7,44.9-19.6c3-1.1,5.9-2.3,8.9-3.4c3.7-1.3,7.4-2.5,11.3-3c0.6-0.1,1.2-0.2,1.7-0.2c1.5,0.1,2.8,0.6,3.7,2
		c0.7,1.1,1.3,2.3,1.8,3.4c0.7,1.4,1.2,2.9,1.9,4.4c0.4,0.8,0.8,1.5,1.3,2.3c0.6,0.9,1.5,1.4,2.6,1.4c1.3,0,2.6-0.2,3.8-0.6
		c4.7-1.3,9.5-2.5,14.2-3.9c6.1-1.7,12.2-3.4,18.4-5.1c1.5-0.4,3-0.9,4.4-1.8c2-1.3,2.8-3.2,2.5-5.6c-0.3-2-0.9-3.9-1.6-5.9
		c-0.5-1.4-0.8-2.8-1-4.2c-0.1-1.3,0.7-2.6,1.9-3.1c1.2-0.4,2.5-0.8,3.7-1.1c10.9-2,21.9-4.1,32.9-5.9c6.3-1.1,12.6-1.8,19-2.1
		c6.2-0.3,12.4-0.8,18.6-1.3c1.2-0.1,2.3,0,3.4,0.4c1.2,0.4,2,1.2,2.3,2.4c0.2,0.8,0.4,1.7,0.4,2.6c0.2,1.7,0.3,3.5,0.5,5.2
		c0.1,1,0.3,2,0.7,2.9c0.7,2,1.8,2.8,3.9,2.8c1,0,2,0,3-0.2c4.5-0.7,8.9-0.6,13.4-0.6c5.6,0,11.3,0,16.9,0c1.6,0,3.2,0,4.8,0.2
		c1.5,0.1,2.9-0.2,4.3-0.5c0.9-0.2,1.5-0.9,1.8-1.7c0.3-0.8,0.6-1.6,0.7-2.5c0.1-1.3-0.1-2.6-0.1-3.9c0-1.7,0-3.5,0.2-5.2
		c0.1-1.5,1.3-2.7,2.8-2.9c0.6-0.1,1.2-0.1,1.7-0.1c2.3,0.1,4.6,0.1,6.9,0.2c6.1,0.4,12.1,0.9,18.2,1.5c3.9,0.3,7.8,0.7,11.7,1.1
		c4.5,0.5,8.9,1,13.4,1.5c4.6,0.5,9.2,1.1,13.7,2c2.8,0.5,5.7,1,8.5,1.6c0.9,0.2,1.7,0.4,2.5,0.6c1.5,0.4,2.9,1.6,2.9,3.8
		c0,1.3-0.2,2.6-0.3,3.9c-0.2,1.7-0.4,3.4-0.6,5.2c-0.1,0.7,0,1.4,0,2.2c0.1,1.8,1,3,2.6,3.7c0.7,0.3,1.3,0.5,2,0.7
		c1.5,0.4,3.1,0.8,4.6,1.2c8.9,1.9,17.7,4.4,26.4,6.8c1.7,0.5,3.3,1,5,1.3c2.6,0.4,4.4,0.2,5.8-3.2c0.6-1.5,1-3,1.3-4.6
		c0.4-1.8,0.9-3.6,1.8-5.3c0.2-0.5,0.6-1,0.9-1.4c0.5-0.6,1.1-0.9,1.9-0.9c0.9,0.1,1.7,0.2,2.5,0.4c2.2,0.7,4.4,1.5,6.6,2.2
		c6.9,2.3,13.7,4.5,20.6,6.9c7.5,2.6,14.8,5.7,22.1,8.9c6.1,2.7,12.2,5.4,18.2,8.1c1.1,0.5,2.1,1,3.1,1.6c1.1,0.7,1.6,2.3,1.2,3.5
		c-0.3,0.8-0.6,1.6-1.1,2.4c-1.2,2.1-2.5,4.2-3.8,6.3c-0.5,0.9-1,1.8-1.3,2.7c-0.6,1.6-0.1,3.2,1.2,4.3c0.4,0.4,0.9,0.7,1.4,1
		c0.7,0.5,1.5,0.8,2.3,1.3c9.2,5.2,18.4,10.4,27.6,15.6c1.1,0.6,2.3,1.3,3.4,1.8c0.5,0.3,1.1,0.5,1.6,0.6c1.7,0.3,3.2,0,4.4-1.3
		c0.7-0.7,1.2-1.6,1.8-2.4c1.8-2.5,3.5-5,5.3-7.4c1.6-2.2,3.8-2.9,6.4-1.1c0.6,0.4,1.2,0.8,1.8,1.2c17.1,12.4,34.1,24.9,51.2,37.3
		c0.9,0.7,1.8,1.4,2.8,2.1C1008.4,343.8,1010.2,345.3,1011.2,347.3z M241.2,361.7c0.6,0.1,1.1-0.1,1.6-0.4c3.1-1.9,6.2-3.7,9.2-5.6
		c1.1-0.7,2.1-1.5,3-2.4c8.5-8.3,16.9-16.6,25.3-24.8c3.3-3.3,5.7-7.2,7.9-11.3c0.1-0.2,0.2-0.5,0.2-0.8c0-0.1-0.1-0.3-0.1-0.3
		c-0.3,0-0.6-0.1-0.8,0c-0.4,0.2-0.7,0.5-1,0.8c-5.5,5.6-11,11.1-16.3,16.7c-5.3,5.5-10.7,10.9-16.3,16.1
		c-3.8,3.5-7.7,6.9-11.6,10.4C241.9,360.5,241.2,360.9,241.2,361.7c-0.2-0.1-0.4-0.2-0.5-0.1c-0.7,0.3-0.8,0.8-0.3,0.8
		c0.3,0,0.5-0.1,0.8-0.3C241.3,362.1,241.3,361.9,241.2,361.7z M1146.5,370.1c4.5,0.4,9,0.5,13.5,0.1c2.1-0.2,4.3-0.8,6.3-1.4
		c4.7-1.3,8.6-4,11.8-7.7c1-1.2,2.1-2.4,3-3.7c7.2-10.3,13.3-21.3,17.7-33.2c4.7-12.9,8.2-26.2,10.1-39.8c0.6-4.4,1-8.9,1.4-13.3
		c0.2-2.2,0.1-4.3-0.3-6.5c0-0.2-0.3-0.5-0.5-0.6c-0.2-0.1-0.6,0-0.8,0.2c-2.4,2.1-3.5,4.9-3.9,8c-0.3,2.1-0.5,4.3-0.8,6.4
		c-0.4,3.3-0.7,6.6-1.2,9.9c-2.1,13-5.7,25.6-10.5,37.9c-3.5,8.9-7.7,17.4-12.6,25.6c-4.8,8.2-11.7,13.4-20.9,15.6
		c-3.5,0.9-7.1,1.5-10.7,1.7C1147.6,369.6,1147,369.5,1146.5,370.1z M203.3,370.1c-1-0.7-1.7-0.6-2.4-0.6c-3.9-0.2-7.8-0.7-11.5-1.8
		c-8-2.2-14.4-6.6-18.9-13.6c-1.1-1.7-2.1-3.5-3.1-5.2c-4.4-7.8-8.1-16-11.3-24.3c-6.2-16-10.2-32.4-11.5-49.6
		c-0.1-1.6-0.3-3.2-0.7-4.7c-0.5-2.4-1.7-4.6-3.8-6.1c-0.3-0.2-1,0-1.1,0.4c-0.1,1-0.4,2-0.3,3c0.3,4.9,0.7,9.8,1.1,14.7
		c0.2,2.3,0.6,4.6,1.1,6.8c2.1,10.5,4.9,20.8,8,31c4.1,13.5,10.6,25.9,18.8,37.3c0.6,0.8,1.2,1.6,1.9,2.4
		c5.3,6.5,12.3,9.8,20.6,10.5C194.5,370.7,198.7,370.6,203.3,370.1z M296.8,333.1c-0.3,3.3,0.7,5.6,2.8,7.5c2.1,1.9,4.1,4.1,6.1,6.1
		c5.5,5.3,11,10.6,16.5,16c2.2,2.1,4.5,4.1,6.9,5.9c3,2.3,5.9,4.7,8.8,7c0.6,0.5,1.1,0.9,1.7,1.4c0.4,0.3,0.9,0.3,1.2,0
		c0.5-0.5,1.1-1,1.5-1.6c0.9-1.3,0.7-2.9-0.4-4c-0.5-0.5-1.1-1-1.6-1.5c-5.2-4.8-10.4-9.5-15.6-14.3c-7.1-6.5-14.2-13.1-21.4-19.6
		c-1.3-1.2-2.6-2.3-4-3.4c-0.4-0.3-1-0.5-1.5-0.7c-0.2-0.1-0.6,0.2-0.7,0.4C296.8,332.8,296.8,333.3,296.8,333.1z M1007,372.5
		c0.6,1.2,1.6,2,2.6,2.8c0.4,0.3,1.1,0.3,1.6,0c0.3-0.3,0.7-0.5,1-0.8c2.4-1.9,4.7-3.9,7.1-5.6c5-3.5,9.4-7.7,13.5-12.1
		c5.4-5.8,10.7-11.8,16.9-16.8c0.3-0.3,0.6-0.6,0.9-0.9c1.3-1.2,1.7-2.7,1.5-4.3c-0.1-0.8,0-1.8-0.9-2.3c-1-0.5-1.6,0.4-2.2,0.9
		c-0.5,0.4-0.8,0.8-1.3,1.2c-6.6,6-13.2,12.1-19.8,18.1c-6.5,5.9-13,11.9-19.5,17.9C1007.9,371,1007.2,371.5,1007,372.5z
		 M1108.9,362c-0.8-0.7-1.5-1.4-2.2-2c-4.9-4.1-9.6-8.3-14.1-12.8c-8-7.9-15.9-15.9-23.6-24.2c-2.5-2.6-5-5.2-7.6-7.8
		c-0.1-0.1-0.5-0.1-0.7-0.1c-0.1,0-0.2,0.2-0.2,0.3c0.2,0.8,0.3,1.7,0.6,2.5c1,2.6,2.4,4.9,4.3,7c1.8,2,3.7,4.1,5.6,6
		c5.9,5.9,11.8,11.9,17.8,17.8c2.3,2.2,4.6,4.4,7.3,6.2c3.9,2.5,7.8,4.9,11.8,7.3c0.2,0.1,0.5,0.1,0.8,0
		C1108.7,362.3,1108.7,362.2,1108.9,362z M300.2,279.4c-0.1-0.8-0.3-2.2-0.5-3.7c0-0.1-0.2-0.1-0.3-0.1c-0.1,0-0.3,0.1-0.3,0.1
		c-0.2,1.7-0.3,3.4-0.5,5.1c-0.6,7.4-2.2,14.5-5.1,21.3c-0.6,1.3-1.1,2.6-1.6,4c-0.2,0.5-0.2,1.1-0.2,1.7c0,0.1,0.1,0.3,0.2,0.4
		c0.1,0,0.3,0,0.3,0c1.5-1.2,2.2-3,2.9-4.7C298.4,296,299.7,288.1,300.2,279.4z M296.6,273.8c-0.1-4-0.5-8.3-1.6-12.5
		c-0.2-0.8-0.6-1.6-0.9-2.4c-0.1-0.3-0.4-0.5-0.7-0.4c-0.2,0.1-0.4,0.5-0.4,0.7c0.1,2,0.1,4,0.8,6c0.9,2.8,1,5.6,0.7,8.5
		c-0.3,2.4-0.5,4.9,0.1,7.3c0.2,0.8,0,1.7-0.1,2.6c-0.3,1.6-1,3-2,4.3c-0.4,0.5-0.3,1.4,0.1,1.5c0.4,0.1,1.1-0.3,1.3-0.8
		c0.3-0.8,0.7-1.6,0.9-2.4C296.1,282.2,296.6,278.2,296.6,273.8z M1049.7,276.1c-0.6,1.9-1.1,3.8-0.6,5.9c0.1,0.4,0,0.9,0.1,1.3
		c0.2,5.4,1.4,10.6,3,15.7c0.7,2.2,1.7,4.3,2.7,6.4c0.3,0.6,0.8,1.2,1.3,1.7c0.1,0.1,0.2,0.1,0.4,0.2c0.1-0.2,0.3-0.5,0.2-0.7
		c-0.5-1.5-1-3-1.6-4.5c-2.8-7.9-4.7-16-5.2-24.5C1050,277.1,1050.2,276.5,1049.7,276.1z M1055.7,258.6c-0.2,0.2-0.5,0.3-0.7,0.5
		c-0.7,1.1-1.1,2.3-1.4,3.6c-1,5.1-1.6,10.2-1,15.4c0.4,3.5,1.1,6.8,2.2,10.1c0.2,0.5,0.4,1.1,1.1,1.2c0.1,0,0.3,0,0.4,0
		c0.1-0.1,0.3-0.2,0.3-0.3c0-0.4-0.1-0.9-0.3-1.2c-1.5-2.4-1.7-5.1-1.7-7.9c0-0.7,0-1.4,0-2.2c0-1.9,0-3.7-0.6-5.6c-0.3-1-0.2-2,0-3
		c0.7-3.2,1.4-6.5,2.1-9.7c0.1-0.3,0-0.6-0.1-0.8C1056,258.7,1055.8,258.7,1055.7,258.6z M291.2,302.6c-0.1-0.4,0-0.8-0.2-0.9
		c-0.1-0.1-0.6-0.2-0.7-0.1c-2.2,1.2-2.6,2.1-1.9,4.5c0.1,0.3,0.3,0.5,0.7,0.4c0.1,0,0.3-0.1,0.4-0.2
		C290,305,290.6,303.7,291.2,302.6z M1060.9,304.3c0-1.7-0.7-2.6-2.3-3.4c-0.1-0.1-0.4-0.1-0.4,0c-0.2,0.2-0.4,0.5-0.3,0.7
		c0.5,1.3,1,2.6,1.5,3.9c0,0.1,0.2,0.2,0.3,0.3c0.3,0,0.7,0.1,0.7,0C1060.6,305.2,1060.7,304.7,1060.9,304.3z M1055.4,334.1
		c0-0.6,0-0.9-0.1-1.1c-0.1-0.2-0.3-0.4-0.4-0.6c-0.2,0.2-0.5,0.3-0.6,0.5c-0.4,0.7-0.5,1.6-0.2,2.4c0.1,0.2,0.4,0.2,0.7,0.3
		c0.1,0,0.3-0.1,0.3-0.1C1055.2,334.9,1055.4,334.3,1055.4,334.1z M295,334.1c-0.1-0.4,0-0.7-0.2-1c-0.1-0.2-0.4-0.2-0.6-0.3
		c0,0-0.2,0.2-0.2,0.3c0,0.7,0.1,1.4,0.2,2.1c0,0.1,0.2,0.2,0.4,0.2c0.1,0,0.2-0.1,0.2-0.2C294.9,334.7,295,334.3,295,334.1z
		 M214.1,369.1c-0.6-0.4-1.3-0.2-1.9-0.2c-0.1,0-0.2,0.2-0.3,0.3c0.1,0.1,0.2,0.2,0.3,0.2C212.8,369.4,213.5,369.6,214.1,369.1z
		 M1136.1,369.3c0.2-0.1,0.4-0.2,0.6-0.3c-0.2-0.1-0.5-0.2-0.7-0.2c-0.2,0-0.4,0.1-0.6,0.2C1135.7,369.2,1135.9,369.3,1136.1,369.3z
		"/>
	<path d="M947,476.9c0,17.1,0,34.1,0,51.2c0,1.3,0,2.6-0.1,3.9c-0.1,1.9-1.3,3.2-3.3,3.4c-1.1,0.1-2.3,0.1-3.5,0.1
		c-7.1,0-14.2,0-21.2,0c-1.4,0-2.9-0.1-4.3-0.3c-1.2-0.2-2.1-1-2.5-2.1c-0.3-1.1-0.6-2.2-0.6-3.4c-0.1-2.2,0-4.3,0-6.5
		c0-2.6,0.2-5.2,0.2-7.8c0-17.2,0-34.4,0-51.6c0-2.9-0.3-5.8-0.5-8.6c0-0.2-0.3-0.5-0.5-0.6c-0.3-0.2-0.9-0.2-1.2,0.1
		c-1.8,1.9-3.3,4-4.6,6.3c-5.4,9.4-10.8,18.8-16.3,28.2c-7.7,13.4-15.5,26.8-23.3,40.1c-0.4,0.8-0.9,1.5-1.3,2.2
		c-1.3,2.3-3.5,3.4-6,3.9c-1,0.2-2,0.2-3,0.2c-3.9,0-7.8-0.1-11.7-0.2c-2,0-4-0.3-6-0.8c-2.6-0.7-4.8-2-6.5-4.1
		c-0.8-1-1.6-2.1-2.3-3.1c-0.9-1.3-1.7-2.7-2.5-4.1c-9.6-17.3-19.8-34.3-29.7-51.4c-2.9-5-5.9-9.9-9.3-14.7c-0.5-0.7-1-1.4-1.6-2
		c-0.2-0.2-0.5-0.2-0.8-0.2c-0.1,0-0.2,0.2-0.2,0.3c-0.2,0.5-0.4,1.1-0.5,1.6c-0.1,1.7-0.2,3.5-0.2,5.2c0,22.1,0,44.2,0,66.3
		c0,1.4,0,2.9-0.1,4.3c-0.1,1.5-1.1,2.4-2.5,2.6c-1,0.1-2,0.1-3,0.1c-5.4,0-10.7-0.1-16.1-0.1c-2.5,0-4.9,0.1-7.4,0.1
		c-1.2,0-2.3-0.1-3.5-0.2c-1.2-0.2-2.1-0.9-2.5-2.1c-0.3-0.8-0.5-1.7-0.6-2.5c-0.1-1,0-2,0-3c0-34,0-67.9,0-101.9c0-1-0.1-2,0-3
		c0.1-0.9,0.3-1.7,0.6-2.5c0.4-1.2,1.3-1.9,2.6-2c1-0.1,2-0.2,3-0.2c12.9,0,25.7,0,38.6,0c2.2,0,4.3,0.2,6.5,0.2c3,0,5.2,1.5,7,3.7
		c0.9,1.1,1.5,2.4,2.2,3.7c11,19.3,22,38.7,33.1,58c0.8,1.4,1.5,2.8,2.4,4.1c0.6,1,1.2,1.9,1.9,2.9c0.5,0.7,1.3,0.8,1.9,0.3
		c1.4-1.3,2.6-2.7,3.6-4.3c0.5-0.7,0.9-1.5,1.3-2.2c7.1-12.6,14.3-25.1,21.4-37.7c2.6-4.5,4.9-9.2,7.2-13.8c1.3-2.6,2.5-5.2,3.8-7.8
		c0.8-1.5,1.7-3,2.9-4.3c1.6-1.6,3.5-2.6,5.7-2.7c1-0.1,2-0.1,3-0.1c14.8,0.1,29.5,0.1,44.3,0.2c1,0,2,0.1,3,0.2
		c1.2,0.2,2.4,1.4,2.5,2.7c0.1,1.3,0.1,2.6,0.1,3.9c0,13.4,0,26.9,0,40.3C947,469,947,472.9,947,476.9z"/>
	<path d="M657,535.3c-13.6,0-27.2,0-40.8,0c-6.4,0-12.7,0.1-19.1,0.2c-1.4,0-2.9-0.1-4.3-0.3c-1.6-0.2-2.6-1.2-3.1-2.7
		c-0.3-1.1-0.5-2.3-0.5-3.4c0-4.3,0-8.7,0-13c0-2,0.1-4,0.1-6.1c0-20.5,0-41,0-61.6c0-7.5-0.1-15-0.1-22.5c0-1.2,0-2.3,0.1-3.5
		c0.1-0.7,0.2-1.4,0.5-2.1c0.4-1.1,1.3-1.9,2.5-2.2c0.7-0.1,1.4-0.2,2.1-0.3c1.2,0,2.3,0,3.5,0c38.5,0,77,0,115.4,0
		c1.4,0,2.9,0,4.3,0.1c2.6,0.1,4.9,1.5,5,5.4c0,0.9,0,1.7-0.1,2.6c-0.4,3.6-0.3,7.2,0,10.8c0.1,1.4,0,2.9-0.2,4.3
		c-0.3,1.9-1.5,3.1-3.3,3.6c-1.1,0.3-2.3,0.4-3.4,0.4c-3.8,0-7.5,0-11.3,0c-5.4,0-10.7-0.1-16.1-0.1c-8.7,0-17.4,0-26,0
		c-9,0-17.9,0.1-26.9,0.1c-2.2,0-4.3,0.4-6.4,1c-0.9,0.3-1.5,0.9-1.6,1.9c-0.4,4.5-0.3,8.9,0.2,13.4c0.1,0.8,0.6,1.3,1.3,1.6
		c0.5,0.2,1.1,0.3,1.7,0.4c2,0.1,4,0.2,6.1,0.2c24,0,48,0,72,0c1.2,0,2.3-0.1,3.5,0c1,0.1,2,0.2,3,0.5c1.7,0.4,2.7,1.6,3.1,3.2
		c0.3,1.1,0.2,2.3,0.1,3.4c-0.4,4-0.6,8.1-0.1,12.1c0.1,0.4,0.1,0.9,0,1.3c-0.3,2.3-1.2,4.2-4.4,4.5c-1.4,0.1-2.9,0.1-4.3,0.1
		c-25,0-50.1,0-75.1,0c-1.3,0-2.6,0-3.9,0c-0.7,0-1.4,0.2-2.1,0.4c-0.8,0.2-1.2,0.8-1.4,1.5c-0.1,0.6-0.2,1.1-0.2,1.7
		c0,3.8,0,7.5,0,11.3c0,2.4,1,3.4,3.5,3.5c1.2,0.1,2.3,0.1,3.5,0.1c9.7,0,19.4,0,29.1,0c5.2,0,10.4,0.2,15.6,0.2
		c12.6,0,25.2-0.1,37.7-0.2c1.2,0,2.3,0,3.5,0.1c0.7,0,1.5,0.2,2.1,0.4c1.3,0.5,2.2,1.4,2.5,2.8c0.2,0.8,0.3,1.7,0.3,2.6
		c-0.4,5.5-0.3,11,0,16.5c0,0.7,0,1.4-0.2,2.2c-0.4,1.9-1.6,3.1-3.4,3.5c-1,0.2-2,0.3-3,0.3c-3.8,0-7.5-0.1-11.3-0.1
		c-1.4,0-2.9-0.1-4.3-0.1C687.4,535.3,672.2,535.3,657,535.3z"/>
	<path d="M563.6,477.1c0,16.9,0,33.8,0,50.7c0,1.4,0,2.9-0.2,4.3c-0.2,1.8-1.3,2.9-3.1,3.1c-1.1,0.1-2.3,0.2-3.5,0.2
		c-8.1,0-16.2,0-24.3,0c-1.2,0-2.3-0.1-3.5-0.2c-1.7-0.2-2.8-1.5-3-3.2c-0.1-1.1-0.1-2.3-0.1-3.5c0-9.8,0-19.7,0-29.5
		c0-1.3,0-2.6-0.1-3.9c-0.2-1.9-1.5-3.2-3.4-3.3c-1.3-0.1-2.6-0.1-3.9-0.1c-17.4,0-34.7,0-52.1,0c-3.5,0-6.9-0.2-10.4-0.2
		c-1.9,0-3.8,0.1-5.6,0.2c-1.7,0.2-2.9,1.3-3.3,3c-0.1,0.4-0.1,0.9-0.2,1.3c0,0.4,0,0.9,0,1.3c0,10.5,0,21.1,0.1,31.6c0,1,0,2-0.1,3
		c-0.2,1.8-1.3,3-3,3.2c-1.3,0.2-2.6,0.2-3.9,0.2c-7.7-0.2-15.3-0.2-23,0c-1.3,0-2.6,0-3.9-0.1c-2.1-0.2-3.3-1.6-3.5-3.7
		c-0.1-0.6-0.1-1.2-0.1-1.7c0-0.9,0-1.7,0-2.6c0-33.7,0-67.3,0-101c0-1.3,0-2.6,0.1-3.9c0-0.7,0.2-1.4,0.5-2.1
		c0.5-1.1,1.3-1.9,2.6-2.1c0.7-0.1,1.4-0.2,2.1-0.3c2.7,0,5.5,0,8.2,0c3.6,0,7.2,0,10.8,0c2.9,0,5.8,0,8.7,0c0.7,0,1.4,0.1,2.1,0.3
		c1,0.3,1.8,1,2,2c0.2,1,0.3,2,0.3,3c0,9.4,0,18.8-0.1,28.2c0,1.2-0.1,2.3,0.1,3.5c0.1,0.8,0.3,1.7,0.6,2.5c0.3,0.7,0.8,1.2,1.5,1.5
		c1.1,0.5,2.2,0.8,3.4,0.8c2,0,4,0,6.1,0c3,0,6.1-0.2,9.1-0.2c13,0,26,0,39.1,0c3.3,0,6.6,0.1,10,0.2c1.2,0,2.3,0.1,3.5,0
		c1-0.1,2-0.3,3-0.6c1.5-0.5,2.4-1.6,2.7-3.1c0.1-1,0.2-2,0.2-3c0-9.5-0.1-19.1-0.1-28.6c0-1,0-2,0.1-3c0.2-2,1.5-3.2,3.4-3.4
		c0.9-0.1,1.7-0.1,2.6-0.1c8.4,0,16.8,0,25.2,0c1.2,0,2.3,0.1,3.4,0.3c1.2,0.2,2.1,1.1,2.4,2.2c0.3,0.8,0.4,1.7,0.4,2.5
		c0.1,1.3,0,2.6,0,3.9C563.6,443.6,563.6,460.3,563.6,477.1z"/>
	<path d="M611.1,631.4c0-12.4,0-24.9,0-37.3c0-4.9,0.2-9.8,0.2-14.7c0-4.2,2.2-7,6.4-8c7.2-1.6,14.9,2.1,17.9,8.9
		c2,4.5,3.8,9.1,5.7,13.6c9.3,22.1,18.6,44.2,27.9,66.3c0.6,1.5,1.4,2.9,2.1,4.3c0.3,0.6,1,0.7,1.3,0.1c0.6-1.2,1.2-2.3,1.7-3.5
		c8.9-20.4,17.9-40.7,26.8-61.1c2.6-6,5.2-11.9,7.8-17.9c0.6-1.3,1.1-2.7,1.9-3.9c2.2-3.8,5.5-6.2,9.9-7.1c3.3-0.7,6.3,0,9.2,1.5
		c1.7,0.9,2.9,2.4,3.4,4.3c0.3,1.1,0.5,2.3,0.6,3.4c0.1,1,0,2,0,3c0,32.2,0,64.4,0,96.7c0,1.2,0.1,2.3,0,3.5
		c-0.1,1.1-0.4,2.3-0.8,3.3c-0.6,1.5-1.8,2.5-3.5,2.9c-2.5,0.6-4.9,0.2-7.2-0.6c-1.6-0.6-2.6-1.8-2.9-3.5c-0.2-1.3-0.3-2.6-0.3-3.9
		c0-2,0-4,0.1-6.1c0.1-15.2,0.2-30.3,0.2-45.5c0-10.7-0.1-21.4-0.2-32.1c0-0.9-0.1-1.7-0.2-2.6c0-0.1-0.2-0.2-0.3-0.2
		c-0.3,0-0.7-0.1-0.8,0.1c-0.6,1-1.2,2-1.6,3c-4.2,9.7-8.3,19.4-12.5,29c-7.8,17.9-15.5,35.8-23.3,53.6c-0.5,1.1-0.9,2.1-1.4,3.2
		c-1.1,2.4-2.9,4-5.2,5c-2.8,1.2-6.4,0.9-9-2.2c-1-1.2-1.7-2.7-2.3-4.2c-1.5-3.7-3-7.5-4.6-11.2c-9.6-23.5-19.2-47.1-28.8-70.6
		c-0.5-1.2-1.1-2.4-1.7-3.5c-0.1-0.2-0.4-0.4-0.7-0.5c-0.2,0-0.6,0.1-0.8,0.3c-0.2,0.2-0.2,0.5-0.2,0.8c0,1.4,0,2.9,0,4.3
		c0,25.6,0,51.1,0,76.7c0,1.3,0,2.6,0,3.9c0,0.7-0.1,1.4-0.3,2.1c-0.8,3-3.1,5-6.2,5.2c-1.6,0.1-3.2,0-4.7-0.6c-2-0.7-3-2.1-3.4-4.1
		c-0.2-1-0.1-2-0.1-3c0-4.8,0-9.5,0-14.3C611.1,656,611.1,643.7,611.1,631.4C611.1,631.4,611.1,631.4,611.1,631.4z"/>
	<path d="M591.2,624.3c-0.1,6.8,0,12.5-0.3,18.1c-0.3,6.5-1,13-2.5,19.3c-0.9,3.7-2.2,7.2-3.9,10.5c-4.1,8-10.4,13.3-19.1,15.9
		c-6.6,2-13.3,2.9-20.1,2.6c-9.5-0.4-17.3-4.4-23.1-11.9c-3-3.8-5.1-8.1-6.6-12.6c-1.9-5.6-3.3-11.4-3.6-17.3
		c-0.3-5.2-0.8-10.4-0.9-15.6c-0.1-8.8,0.1-17.6,1.8-26.3c1.4-7,3.7-13.6,7.5-19.7c2.3-3.7,5.1-7,8.6-9.7c5.2-4,11-6.2,17.5-6.8
		c4.2-0.4,8.4-0.4,12.6,0.1c6.2,0.7,11.9,2.6,16.7,6.6c1.3,1.1,2.6,2.3,3.8,3.6c6.4,7.3,10.1,15.8,10.7,25.5
		C590.7,612.8,591,619.1,591.2,624.3z M525.9,630.6c0.2,3.1,0.5,7.7,0.8,12.3c0.4,7.3,2,14.3,4.3,21.1c0.4,1.2,0.9,2.4,1.5,3.6
		c2.3,4.5,5.9,7.4,10.6,9c3.8,1.2,7.7,1.3,11.6,0.9c5.4-0.5,9.9-3,13.3-7.3c1.1-1.5,2.1-3.1,3-4.8c2.1-4.1,3.5-8.5,4.4-13.1
		c1.4-7,1.8-14,2.1-21.1c0-1-0.1-2-0.2-3c-0.4-4.3-0.7-8.6-1.2-12.9c-0.4-3.6-0.9-7.2-1.5-10.7c-0.6-3.4-1.6-6.7-3.2-9.8
		c-2.5-4.8-6.3-8.2-11.4-10c-1.6-0.6-3.3-1-5-1.3c-6.5-1.3-12.3,0.5-17.3,4.8c-2.3,2-4.1,4.4-5.5,7.2c-1.1,2.2-2,4.5-2.7,6.8
		C526.6,610.9,525.9,619.9,525.9,630.6z"/>
	<path d="M833.2,624.3c0.3,10.3,0,19.4-0.9,28.4c-0.5,5.6-1.9,11.1-4.4,16.2c-5.2,10.8-13.6,17.8-25.3,20.6
		c-7.9,1.8-15.8,1.8-23.5-0.9c-9.9-3.4-16.7-10.1-20.5-19.8c-1.1-2.8-1.8-5.8-2.4-8.8c-0.8-4.4-1.4-8.8-2-13.3
		c-0.5-3.6-0.9-7.2-1.4-10.7c-0.3-1.9-0.4-3.7-0.3-5.6c0.4-6.5,0.8-13,1.7-19.4c0.9-6,2.4-11.9,4.9-17.5c1.9-4.2,4.3-8.2,7.4-11.7
		c6-6.8,13.6-10.6,22.7-11.3c4-0.3,8.1-0.3,12.1,0.1c8.5,0.9,15.8,4.4,21.3,11.2c5,6.1,8.1,12.9,9.5,20.6c0.2,1.3,0.3,2.6,0.4,3.9
		C832.8,612.8,833.3,619.2,833.2,624.3z M768,628.7c0.3,4.6,0.6,9.2,0.9,13.8c0.4,7.4,2.1,14.6,4.5,21.6c0.4,1.1,0.8,2.2,1.3,3.2
		c3,6.1,7.9,9.5,14.6,10.2c2.3,0.2,4.6,0.3,6.9,0.1c6.5-0.4,11.5-3.4,15.2-8.8c1.3-1.9,2.3-4,3.2-6.1c2-4.8,3.2-9.9,4-15
		c0.5-3.7,0.9-7.5,1.4-11.2c0.5-3.7,0.7-7.5-0.3-11.2c-0.1-0.6-0.1-1.1-0.2-1.7c-0.9-5.7-1.8-11.4-2.8-17.1
		c-0.6-3.1-1.3-6.2-2.1-9.3c-1.8-6.3-6-10.4-12.2-12.5c-3.2-1.1-6.4-1.6-9.8-1.5c-6,0.2-10.9,2.6-14.8,7.1c-2.1,2.5-3.6,5.2-4.7,8.2
		c-1.3,3.4-2.3,6.8-3,10.4C768.5,615.4,768,622,768,628.7z"/>
	<path d="M255.9,571.6c1.2,0,2.3,0,3.5,0c1.5,0,2.8,0.8,3.8,1.9c1.1,1.2,1.7,2.7,2.3,4.2c1.1,2.8,2.1,5.7,3.1,8.5
		c11.6,31,23.2,61.9,34.7,92.9c0.4,0.9,0.8,1.9,1,2.8c0.3,1.1,0.5,2.3,0.5,3.4c0.1,1.4-0.5,2.6-1.6,3.4c-4.3,3.1-9.9,2.3-12.8-2.4
		c-0.6-1-1-2.1-1.4-3.1c-2.3-6.4-4.7-12.7-7-19.1c-0.4-1.2-0.8-2.5-1.4-3.7c-0.7-1.7-2-2.8-3.9-3.2c-0.7-0.1-1.4-0.3-2.1-0.3
		c-2.5,0-4.9-0.1-7.4,0c-5.3,0.3-16.5,0.3-22.1,0c-2.7-0.1-5.5-0.1-8.2,0c-0.6,0-1.1,0.1-1.7,0.2c-1.7,0.3-2.9,1.3-3.6,2.8
		c-0.4,0.8-0.6,1.6-0.9,2.4c-2.4,6.8-4.7,13.6-7.1,20.5c-0.7,2.1-1.7,4-3.3,5.5c-3.1,2.9-7.8,2.7-10.5,1.1c-1.8-1.1-2.6-2.7-2.3-4.8
		c0.1-1,0.4-2,0.7-2.9c1-3,2-6,3.1-9c7.5-20.3,15-40.6,22.5-60.9c3.9-10.6,7.7-21.1,11.6-31.7c0.5-1.4,1-2.7,1.6-4
		c0.4-0.8,0.8-1.6,1.3-2.2c1.1-1.4,2.6-2.3,4.5-2.3C253.8,571.6,254.8,571.6,255.9,571.6C255.9,571.6,255.9,571.6,255.9,571.6z
		 M256.1,643.9c5.1,0,10.1,0,15.2,0c1,0,2-0.1,3-0.2c0.3,0,0.7-0.7,0.6-1c-0.2-0.7-0.4-1.4-0.7-2.1c-5.5-14.9-11.1-29.7-16.6-44.6
		c-0.3-0.7-0.5-1.3-0.8-2c-0.2-0.4-0.5-0.7-1-0.8c-0.5-0.1-1.1,0.3-1.4,0.8c-0.4,1.1-0.8,2.2-1.2,3.2c-3.1,8.7-6.3,17.4-9.4,26
		c-2.1,5.8-4.2,11.7-6.3,17.5c-0.2,0.7-0.3,1.4-0.5,2.1c-0.1,0.3,0.1,0.6,0.5,0.6c0.9,0.1,1.7,0.3,2.6,0.3
		C245.4,643.9,250.7,643.9,256.1,643.9z"/>
	<path d="M319.1,616.5c0.1-6.6,0.2-13.3,0.2-19.9c0-5.8-0.1-11.6-0.1-17.3c0-1.3,0-2.6,0.2-3.9c0.2-1.7,1.3-2.9,3-3.4
		c2.4-0.7,4.9-0.6,7.3,0c1.5,0.4,2.6,1.4,2.9,2.9c0.2,1.1,0.5,2.3,0.5,3.4c0,2.3-0.1,4.6-0.2,6.9c0,1.2-0.1,2.3-0.1,3.5
		c0,13.3-0.1,26.6,0,39.9c0,5.1,0.3,10.1,0.3,15.2c0.1,4.8,0.8,9.5,2,14.1c1.1,4.7,3.2,9,6.7,12.4c2,1.9,4.2,3.5,6.8,4.6
		c3.6,1.6,7.4,2.5,11.3,2.6c1.3,0,2.6,0.1,3.9,0c10.8-0.4,18.3-5.5,22.6-15.3c0.6-1.4,1.1-3,1.5-4.5c1.1-4.4,1.7-8.8,1.7-13.3
		c0-19.8,0.1-39.6,0.1-59.4c0-1.6-0.1-3.2-0.1-4.8c0-1.4,0.1-2.9,0.4-4.3c0.5-2.4,2.1-3.8,4.5-4.1c1.7-0.2,3.5-0.2,5.2,0
		c2.6,0.3,4.4,2.2,4.7,4.9c0.1,1,0.1,2,0.1,3c0,20.7,0,41.3,0,62c0,4.8-0.2,9.5-0.9,14.3c-0.7,4.3-1.8,8.5-3.6,12.4
		c-3.8,8.2-9.9,14.1-18,18c-5.7,2.7-11.7,4-18,4.3c-6.9,0.3-13.6-0.4-20-2.8c-13.8-5.3-21.7-15.3-24.3-29.7
		c-0.5-2.7-0.4-5.5-0.4-8.2C319.1,638.8,319.1,627.6,319.1,616.5C319.1,616.5,319.1,616.5,319.1,616.5z"/>
	<path d="M1081,630c0-15.7,0-31.5,0-47.2c0-2,0.1-4,0.4-6c0.4-2.6,1.9-4.2,4.4-4.7c0.8-0.2,1.7-0.3,2.6-0.3c1-0.1,2,0,3,0
		c8.8,0,17.6,0,26.5,0c5.5,0,11-0.1,16.5-0.1c1.4,0,2.9,0.1,4.3,0.2c1.2,0.1,2.3,0.5,3.3,1.1c0.9,0.5,1.6,1.3,2,2.2
		c0.9,2.2,0.9,4.5,0,6.7c-0.5,1.3-1.4,2.2-2.7,2.7c-1.2,0.5-2.5,0.9-3.8,0.9c-1,0-2,0-3,0c-9.4,0-18.8,0-28.2,0
		c-1.4,0-2.9-0.1-4.3-0.1c-1.2,0-2.3,0.1-3.4,0.3c-1.2,0.2-2,1.1-2.4,2.3c-0.4,1.1-0.3,2.3-0.4,3.4c0,6.9,0,13.9,0,20.8
		c0,1.6,0,3.2,0,4.8c0,0.7,0.2,1.4,0.4,2.1c0.3,1,1,1.7,2,2.1c1.7,0.5,3.4,0.6,5.1,0.5c5.5-0.5,11-0.3,16.5,0c1.6,0.1,3.2,0,4.8,0
		c2.2-0.1,4.3-0.2,6.5-0.2c1.1,0,2.3,0.2,3.4,0.5c2,0.5,3.2,1.9,3.6,3.9c0.3,1.4,0.3,2.9,0.1,4.3c-0.2,1.9-1.4,3.1-3.2,3.7
		c-0.8,0.3-1.7,0.3-2.6,0.3c-1.9,0.1-3.8,0-5.6,0c-8,0-15.9,0-23.9,0c-1,0-2,0-3,0c-2.6,0.1-3.9,1.5-4.1,4.1c0,0.6,0,1.2,0,1.7
		c0,9.8,0,19.6,0,29.5c0,0.9,0,1.7,0.1,2.6c0.2,1.7,1.3,2.9,3,3.3c0.6,0.1,1.1,0.2,1.7,0.2c1.2,0,2.3,0,3.5,0c10.8,0,21.7,0,32.5,0
		c1.2,0,2.3,0,3.5,0.1c2.3,0.3,4,1.5,4.9,3.8c0.7,1.8,0.8,3.7,0.5,5.5c-0.4,2.2-1.8,3.6-4,4c-1,0.2-2,0.2-3,0.2c-3.9,0-7.8,0-11.7,0
		c-11.7,0-23.4,0-35.1,0c-2,0-4-0.1-6-0.6c-2.1-0.6-3.5-1.9-4-4.1c-0.4-2.1-0.6-4.3-0.5-6.5c0-10.8,0-21.7,0-32.5
		C1081,640.4,1081,635.2,1081,630z"/>
	<path d="M1017.5,667.2c0.7-0.1,1-0.6,1.2-1.1c1-2.4,2-4.8,2.8-7.3c5.5-16.3,11-32.6,16.6-48.8c3.1-9.3,6.3-18.6,9.4-27.9
		c0.6-1.8,1.2-3.6,1.9-5.3c0.4-0.9,0.8-1.9,1.4-2.7c0.8-1.3,2-2.1,3.5-2.3c2.7-0.3,5.5-0.3,8.2,0.1c0.3,0,0.5,0.2,0.8,0.3
		c1.6,0.6,2.5,2,2.1,3.8c-0.5,1.8-1,3.6-1.7,5.4c-5.2,14.4-10.4,28.8-15.6,43.2c-6.8,18.9-13.6,37.8-20.4,56.7c-0.3,1-0.7,1.9-1,2.8
		c-1.4,3.5-4,5.6-7.8,6.2c-1.1,0.2-2.3,0.2-3.5,0.2c-3-0.2-5.3-1.5-6.7-4.1c-0.8-1.5-1.5-3.1-2-4.8c-3.2-9-6.4-18-9.6-26.9
		c-9-25-18-50-27.1-75c-0.3-0.9-0.7-1.9-0.9-2.9c-0.3-1.6,0.2-2.9,1.4-3.8c0.6-0.4,1.2-0.8,1.9-1c3-0.7,6-0.6,8.9,0.8
		c1.4,0.7,2.4,1.7,2.9,3.1c1.4,3.8,2.9,7.5,4.3,11.4c7,19.8,13.9,39.5,20.8,59.3c1.6,4.5,3.1,9,4.7,13.5
		C1015,662.4,1015.9,665,1017.5,667.2z"/>
	<path d="M874.2,636.5c-0.1-6.9-0.2-13.9-0.2-20.8c0-7.5,0.1-15,0.1-22.5c0-1.2,0-2.3-0.1-3.5c0-0.6-0.2-1.1-0.4-1.7
		c-0.5-1.3-1.5-2.2-2.8-2.4c-1.3-0.2-2.6-0.3-3.9-0.3c-7.2,0-14.5,0.1-21.7,0.1c-1.3,0-2.6-0.3-3.8-0.8c-1.4-0.6-2.4-1.6-2.9-3
		c-0.6-1.8-0.8-3.6-0.3-5.5c0.6-2.4,2.2-3.7,4.5-4.2c1.1-0.3,2.3-0.3,3.4-0.3c2.6,0,5.2,0,7.8,0c20.1,0,40.2,0.1,60.3,0.1
		c1.3,0,2.6-0.1,3.9-0.1c1,0,2,0,3,0.2c2.3,0.5,3.9,1.9,4.5,4.2c0.4,1.5,0.4,3.2,0,4.7c-0.5,2.1-1.8,3.6-3.9,4.2
		c-1.1,0.4-2.3,0.5-3.4,0.5c-7.4,0-14.8-0.1-22.1-0.1c-0.9,0-1.7,0-2.6,0.1c-2,0.2-3.2,1.2-3.6,3.2c-0.2,1-0.4,2-0.4,3
		c-0.1,1.9,0,3.8,0,5.6c0,2.5,0.2,4.9,0.2,7.4c0,24.4,0,48.8,0,73.3c0,1.9-0.1,3.8-0.2,5.6c0,0.6-0.1,1.2-0.3,1.7
		c-0.6,2.4-2,4.1-4.6,4.7c-2.2,0.6-4.3,0.5-6.4-0.2c-1.8-0.6-3-1.8-3.6-3.5c-0.4-1.2-0.6-2.5-0.8-3.8c-0.1-1.1,0-2.3,0-3.5
		C874.1,664.8,874.1,650.6,874.2,636.5C874.2,636.5,874.2,636.5,874.2,636.5z"/>
	<path d="M455.4,636.6c0-14.4,0-28.9,0-43.3c0-1.6,0.1-3.2-0.4-4.7c-0.6-1.9-1.7-3-3.7-3.2c-1-0.1-2-0.1-3-0.1
		c-7.2,0-14.5,0.1-21.7,0.1c-1.2,0-2.3-0.2-3.4-0.5c-2.3-0.8-3.6-2.4-4-4.7c-0.2-1.3-0.2-2.6,0-3.9c0.2-1.7,1.1-3,2.6-3.7
		c1-0.5,2.1-0.9,3.3-0.9c0.9,0,1.7,0,2.6,0c23.6,0,47.1,0,70.7,0c1,0,2,0,3,0c1.2,0,2.3,0.5,3.3,1.1c0.9,0.5,1.6,1.3,1.9,2.3
		c0.7,1.9,0.9,3.9,0.2,5.9c-0.6,1.8-1.7,3-3.4,3.7c-0.8,0.3-1.7,0.5-2.5,0.6c-1.6,0.1-3.2,0.2-4.8,0.2c-6.4,0-12.7,0-19.1,0
		c-1,0-2,0-3,0.1c-1.4,0.2-2.3,1.1-2.7,2.5c-0.2,0.7-0.3,1.4-0.3,2.1c0,1.3,0,2.6,0,3.9c0,28.5,0,56.9,0,85.4c0,2,0,4-0.5,6
		c-0.7,2.5-2.2,4-4.7,4.6c-2,0.5-4,0.5-6-0.2c-1.8-0.6-3-1.7-3.6-3.5c-0.3-0.9-0.6-1.9-0.7-2.9c-0.1-1.4-0.1-2.9-0.1-4.3
		C455.4,665,455.4,650.8,455.4,636.6C455.4,636.6,455.4,636.6,455.4,636.6z"/>
	<path d="M938.6,630.2c0-16.9,0-33.8,0-50.7c0-1.3,0-2.6,0.1-3.9c0.2-2.2,1.7-3.8,3.9-3.9c1.9-0.1,3.8,0,5.6,0.1
		c0.7,0,1.4,0.3,2.1,0.6c1.4,0.5,2.1,1.5,2.5,2.8c0.2,0.5,0.2,1.1,0.3,1.7c0.1,2,0.3,4,0.3,6.1c0,32.7,0,65.3,0,98
		c0,1.6-0.1,3.2-0.3,4.7c-0.2,1.5-1.1,2.7-2.4,3.4c-2.7,1.3-5.5,1.8-8.4,0.8c-1.6-0.6-2.7-1.7-3.1-3.3c-0.2-0.8-0.4-1.7-0.4-2.6
		c-0.1-1.2,0-2.3,0-3.5C938.6,663.7,938.6,646.9,938.6,630.2z"/>
	<path d="M682.8,187.9c-3,0.2-5.6,0.1-8.2,0.1c-1,0-1.6-0.7-1.8-1.6c-0.3-1.1-0.7-2.2-1-3.3c-1.7-5.7-3.5-11.3-5.2-17
		c-0.2-0.5-0.4-1.1-0.7-1.5c-0.1-0.1-0.5-0.1-0.9-0.1c0,0.7,0,1.5,0,2.2c0.2,5,0.1,10.1,0.5,15.1c0.1,1.7,0,3.5-0.1,5.2
		c0,0.5-0.6,1.1-1.1,1.1c-2.7,0.1-5.5,0.1-8.2,0.2c-0.5,0-1.1-0.6-1.1-1.1c-0.2-3.3-0.3-6.6-0.5-9.9c-0.2-4.8-0.4-9.5-0.6-14.3
		c-0.1-3.3-0.2-6.6-0.2-10c0-1,0.6-1.6,1.6-1.7c2.6-0.1,5.2-0.3,7.8-0.3c2.5,0,4.9,0,7.4,0.1c0.6,0,1.1,0.3,1.3,0.9
		c1.2,3.8,2.5,7.7,3.7,11.6c0.7,2.2,1.3,4.4,2,6.6c0.2,0.5,0.4,1,1.2,1c0.4-1.1,0.7-2.1,1.1-3.2c1.5-4.7,2.9-9.4,4.3-14.1
		c0.3-0.9,0.7-1.8,1.1-2.8c1-0.1,1.9-0.2,2.7-0.1c3.6,0,7.2,0.1,10.8,0.2c1.1,0,2.3,0.3,3.4,0.6c0.2,0,0.5,0.4,0.6,0.6
		c0.1,0.8,0.3,1.7,0.2,2.6c-0.5,6.3-0.6,12.7-0.9,19c-0.2,3.9-0.4,7.8-0.6,11.7c0,0.6-0.1,1.2-0.2,1.7c-0.1,0.4-0.4,0.9-0.8,0.9
		c-2.7,0-5.5-0.1-8.2-0.1c-0.7,0-1.3-0.7-1.3-1.4c0-2.6,0-5.2,0.1-7.8c0.1-4.2,0.2-8.4,0.3-12.5c0-0.6-0.1-1.1-0.2-1.7
		c0-0.1-0.2-0.2-0.3-0.2c-0.1,0-0.4,0-0.4,0.1c-0.4,1.1-0.8,2.1-1.2,3.2c-1.7,5.4-3.3,10.7-5,16.1
		C683.7,185.1,683.3,186.3,682.8,187.9z"/>
	<path d="M898,195.6c3.8,1.5,7.6,3.1,11.3,4.9c1.5,4.9,2.6,9.7,3.8,14.4c0.7,2.9,1.5,5.9,2.3,8.8c0,0.1,0.2,0.2,0.3,0.3
		c0.3,0.2,0.5,0.2,0.7-0.1c0.4-0.6,0.7-1.2,1-1.9c1.4-2.8,2.8-5.7,4.2-8.6c0.7-1.4,1.4-2.9,2.1-4.3c0.3-0.5,0.7-0.9,1.1-1.3
		c0.7,0.2,1.3,0.4,1.8,0.6c2.7,1.3,5.4,2.7,8.1,4.1c1.3,0.7,1.5,1.3,1,2.4c-5.1,10-10.3,20-15.4,30c-0.2,0.4-0.5,0.7-0.8,1
		c-2.6-0.7-6.6-2.6-11.1-5.3c-0.4-1.7-0.8-3.5-1.3-5.3c-1.2-5.2-2.4-10.4-3.7-15.6c-0.2-0.8-0.4-1.7-1.1-2.3
		c-0.8,0.5-1.1,1.3-1.4,2.1c-1.8,3.9-3.5,7.9-5.3,11.8c-0.3,0.7-0.6,1.3-0.9,1.9c-0.2,0.4-1,0.7-1.5,0.4c-1.5-0.6-2.9-1.3-4.4-1.9
		c-1.6-0.7-3.2-1.4-4.7-2.1c-0.4-0.2-0.7-1-0.6-1.5c0.1-0.4,0.3-0.8,0.4-1.2c4.2-10,8.4-19.9,12.6-29.9
		C896.8,196.5,897.1,195.9,898,195.6z"/>
	<path d="M564.4,162.8c0.5-0.3,0.8-0.6,1.2-0.7c3.4-0.9,6.8-1.5,10.2-1.9c0.5-0.1,1.2,0.4,1.3,0.9c0.5,2.3,0.9,4.5,1.3,6.8
		c1.6,8.5,3.1,17,4.6,25.5c0.1,0.4,0.1,0.9,0.2,1.3c0.1,1-0.4,1.7-1.3,1.9c-3.1,0.6-6.2,1.2-9.4,1.8c-0.5,0.1-1.2-0.2-1.6-0.4
		c-0.7-0.5-1.3-1.1-2-1.6c-4.5-3.8-9.1-7.6-13.6-11.4c-0.5-0.5-1.2-0.8-1.8-1.2c-0.3-0.2-0.6,0-0.7,0.3c0,0.7,0,1.4,0.1,2.1
		c0.9,4.1,1.9,8.1,2.9,12.2c0.2,0.7,0.3,1.4,0.4,2.1c0.1,0.8-0.2,1.4-1,1.6c-3.1,0.8-6.2,1.6-9.2,2.3c-0.1,0-0.3,0.1-0.4,0
		c-0.3-0.1-0.6-0.2-0.7-0.4c-0.3-0.6-0.6-1.3-0.8-2c-2.1-8-4.1-15.9-6.2-23.9c-0.7-2.7-1.4-5.3-2-8c-0.2-0.8,0.2-1.5,0.9-1.7
		c3.6-0.9,7.3-1.8,10.7-2.6c1.5,0.5,2.5,1.4,3.5,2.2c4.5,3.6,9,7.3,13.5,10.9c0.7,0.5,1.3,1.1,2.1,1.6c0.2,0.1,0.5,0,0.8,0
		c0.1,0,0.2-0.3,0.2-0.4c-0.1-1-0.2-2-0.4-3c-0.8-4.2-1.7-8.5-2.6-12.7C564.5,163.9,564.5,163.4,564.4,162.8z"/>
	<path d="M352.7,280.7c-0.6,0.4-1.1,0.6-1.6,1c-3,2.3-6,4.6-8.9,6.9c-0.2,0.2-0.3,0.5-0.5,0.8c0.1,0.3,0.2,0.8,0.5,1.1
		c0.8,1.1,1.6,2.1,2.4,3.1c1.4,1.8,2.9,3.6,4.3,5.5c1.4,1.8,1.4,2.2-0.3,3.5c-2.2,1.8-4.5,3.6-6.8,5.4c-0.2,0.2-0.4,0.4-0.7,0.5
		c-0.9,0.7-1.6,0.6-2.3-0.1c-0.3-0.3-0.6-0.7-0.8-1c-6.6-8-13.3-16-19.9-24c-0.5-0.6-0.9-1.1-1.2-1.8c-0.2-0.4-0.2-0.8,0.2-1.2
		c0.1-0.1,0.2-0.2,0.3-0.3c3-2.4,6.1-4.9,9.1-7.3c0.6-0.5,1.4-0.4,1.9,0.3c0.9,1.1,1.8,2.2,2.7,3.4c1.3,1.6,2.5,3.2,3.8,4.7
		c0.3,0.3,0.7,0.4,1.2,0.3c0.1-0.1,0.3-0.1,0.4-0.2c3.3-2.5,6.7-5.1,10-7.6c0.2-0.2,0.3-0.5,0.6-0.8c-0.4-0.7-0.9-1.4-1.4-2.1
		c-1.7-2.3-3.4-4.7-5.1-7c-0.5-0.7-0.4-1.3,0.3-1.9c3.3-2.5,6.7-5,10.2-7.3c0.4,0.3,0.8,0.5,1.1,0.8c0.4,0.4,0.7,0.9,1,1.4
		c6,8.5,12,17,18,25.5c0.2,0.4,0.5,0.7,0.7,1.1c0.6,0.9,0.5,1.5-0.5,2.2c-2.8,2-5.6,4.1-8.4,6.1c-0.7,0.5-1.5,0.4-1.9-0.2
		c-1.4-1.8-2.8-3.7-4.2-5.5c-1-1.3-1.9-2.6-2.9-3.8C353.7,281.4,353.2,281.1,352.7,280.7z"/>
	<path d="M478.6,225.9c-0.3,0.4-0.5,0.9-0.8,1c-3.4,1.5-6.9,2.9-10.3,4.3c-0.7-0.2-1.1-0.6-1.4-1.2c-0.8-1.9-1.6-3.7-2.4-5.6
		c-0.6-1.5-1.3-2.9-1.9-4.4c-0.8-1.8-1.3-2.1-3-1.3c-3.2,1.4-6.3,2.8-9.5,4.3c-0.6,0.3-0.9,0.7-1.2,1.4c0.9,2,1.9,4.1,2.9,6.2
		c0.9,2.1,2.1,4.1,2.8,6.3c-0.4,0.4-0.7,0.7-1.1,0.9c-3.1,1.5-6.2,3-9.4,4.5c-0.8,0.4-1.3,0.2-1.8-0.6c-0.2-0.4-0.4-0.8-0.6-1.1
		c-4.5-9.2-9.1-18.4-13.6-27.6c-0.4-0.8-0.8-1.6-1.1-2.4c-0.2-0.4-0.1-0.8,0.3-1.2c0.1-0.1,0.2-0.2,0.3-0.3c3.5-1.7,7-3.4,10.5-5.1
		c0.5-0.2,1.2,0.1,1.5,0.6c1.1,2.2,2.1,4.4,3.2,6.7c0.4,0.9,0.9,1.8,1.3,2.7c0.4,0.8,0.9,1,1.8,0.6c3.6-1.6,7.1-3.2,10.7-4.8
		c0.7-0.3,1-1.1,0.6-1.8c-1-2.4-2-4.8-3-7.2c-0.3-0.8-0.7-1.6-1-2.4c-0.1-0.4,0.1-1,0.4-1.1c0.6-0.3,1.3-0.7,1.9-1
		c2.9-1.2,5.9-2.4,8.8-3.6c0.7-0.3,1.5,0,1.8,0.7c0.3,0.7,0.6,1.3,0.9,2c3.8,9.4,7.6,18.7,11.4,28.1
		C478,224.3,478.3,225.1,478.6,225.9z"/>
	<path d="M804.5,165.3c2.8,0.7,6.3,1.5,9.8,2.4c1,0.2,1.5,1,1.2,1.9c-0.6,2.5-1.3,5-1.9,7.6c-0.2,0.7-0.3,1.4-0.4,2.1
		c-0.1,0.7,0.3,1.4,1.1,1.6c3.8,1,7.5,2,11.3,3c0.5,0.1,1.2-0.3,1.4-0.8c0.7-2.2,1.3-4.4,1.9-6.7c0.4-1.2,0.7-2.5,1.2-3.7
		c0.1-0.3,0.8-0.6,1.1-0.5c3.8,1,7.5,2.2,11.2,3.3c0.5,0.2,0.9,0.9,0.8,1.4c-0.2,0.7-0.3,1.4-0.5,2.1c-3,9.7-5.9,19.3-8.9,29
		c-0.2,0.7-0.4,1.4-0.7,2.1c-0.2,0.6-1,1-1.8,0.8c-3.3-1-6.6-1.9-10-2.9c-0.5-0.1-0.9-0.9-0.8-1.4c0.9-3.3,1.8-6.7,2.8-10
		c0.2-0.7,0.3-1.4,0.5-2.1c0.1-0.5-0.3-1.3-0.8-1.4c-3.6-1-7.2-1.9-10.9-2.9c-0.9-0.2-1.7,0.3-1.9,1.3c-0.8,3.1-1.5,6.2-2.3,9.2
		c-0.1,0.6-0.3,1.1-0.5,1.7c-0.5,1.6-0.8,1.7-2.5,1.3c-0.7-0.2-1.4-0.3-2.1-0.5c-2.4-0.6-4.8-1.2-7.1-1.8c-0.8-0.2-1.1-0.7-0.9-1.7
		c0.1-0.4,0.2-0.8,0.3-1.3c0.9-4.2,1.9-8.5,2.8-12.7c1.4-6.1,2.8-12.1,4.2-18.1c0.1-0.4,0.2-0.8,0.3-1.3
		C802.4,165.4,803,165,804.5,165.3z"/>
	<path d="M432.8,241.6c-2.1,4-4.8,7.5-8,10.2c-4,3.4-8.5,6-13.4,7.9c-2.3,0.9-4.7,1.4-7.2,1.5c-2.4,0.1-4.7-0.3-6.8-1.2
		c-7.2-3.2-11.3-8.7-12.3-16.6c-0.4-2.9,0.2-5.8,1.5-8.4c1.3-2.8,3.1-5.2,5.5-7.2c4.4-3.6,9.3-6.3,14.6-8.4c1.6-0.6,3.3-0.9,5.1-1
		c3.6-0.2,6.8,0.8,9.6,3.2c0.6,0.5,0.6,1.3-0.1,1.8c-2.9,2.1-5.8,4.3-8.7,6.4c-0.2,0.2-0.5,0.2-0.8,0.3c-0.9,0.1-1.6-0.5-2.4-0.7
		c-1.1-0.4-2.3-0.4-3.4-0.1c-2.4,0.7-4.5,1.9-6.2,3.8c-1.7,2-2.4,4.3-1.9,6.8c0.7,3.3,2.4,6.2,4.8,8.6c2.4,2.4,5.3,2.9,8.4,1.9
		c3.7-1.2,6.6-3.5,8.6-6.9c0.5-0.9,0-1.7-0.5-2.4c-0.4-0.6-0.9-0.8-1.5-0.5c-1.5,0.8-3.1,1.6-4.6,2.4c-0.5,0.3-1,0.6-1.6,0.7
		c-0.4,0.1-1-0.1-1.1-0.4c-1-1.6-1.9-3.2-2.8-4.9c-0.2-0.4,0-1.3,0.4-1.6c0.1-0.1,0.2-0.2,0.4-0.2c5.2-2.8,10.4-5.6,15.6-8.4
		c0.2-0.1,0.6-0.2,0.8-0.2c0.5-0.1,0.8,0.2,1.1,0.5c0.2,0.2,0.4,0.4,0.5,0.7c1.9,3.7,3.8,7.5,5.7,11.2
		C432.6,240.8,432.7,241.2,432.8,241.6z"/>
	<path d="M592.5,194.7c-1-1.1-1.1-2.2-1.2-3.1c-1.3-7.7-2.5-15.4-3.7-23.1c-0.4-2.6-0.8-5.1-1.3-7.7c-0.1-0.4-0.1-0.9-0.2-1.3
		c-0.1-0.5,0.5-1.2,1-1.3c1.8-0.3,3.7-0.7,5.6-1c4.1-0.6,8.3-1.2,12.4-1.7c2.7-0.4,5.5-0.4,8.2-0.2c5.6,0.5,9.8,3.2,12.4,8.3
		c1,1.9,1.7,4,1.9,6.2c0.3,2.9,0.7,5.7,0.1,8.6c-1,5.5-4.1,9.5-9.2,11.7c-2.7,1.2-5.5,1.8-8.4,2.2c-5,0.8-10,1.4-15,2.1
		C594.3,194.5,593.4,194.6,592.5,194.7z M614.6,176.1c-0.1-1.2-0.1-2.2-0.2-3.2c-0.1-1.6-0.5-3.1-1.1-4.6c-0.8-2-2.3-3.3-4.4-3.8
		c-2.5-0.6-4.9-0.3-7.3,0.4c-0.5,0.1-0.9,0.7-0.8,1.3c0.8,5.6,1.5,11.1,2.3,16.7c0,0.3,0.1,0.6,0.3,0.8c0.2,0.2,0.4,0.5,0.7,0.5
		c2.5,0.1,4.9-0.3,7.2-1.3c1.7-0.7,2.7-2.1,3.1-3.9C614.6,177.9,614.6,176.9,614.6,176.1z"/>
	<path d="M529.7,178.3c-0.6,0.7-1.4,0.9-2.2,1.2c-5.1,1.5-10.3,3-15.4,4.5c-1.1,0.3-2.2,0.6-3.1,1.3c-0.3,0.8,0.1,1.4,0.3,2.1
		c0.9,2.9,1,3,4,2.1c5-1.5,10-3,15-4.4c0.4-0.1,0.9-0.2,1.3-0.1c0.3,0,0.6,0.2,0.7,0.4c0.6,1.8,1.1,3.6,1.6,5.4
		c0.2,0.7-0.2,1.4-1,1.7c-5.1,1.5-10.2,3-15.4,4.6c-0.7,0.2-1.4,0.5-2,0.8c-0.2,0.1-0.4,0.5-0.4,0.7c0.1,1.9,0.7,3.7,1.7,5.3
		c0.1,0.2,0.5,0.4,0.7,0.3c1-0.2,2-0.4,2.9-0.7c5-1.5,10-2.9,15-4.4c0.7-0.2,1.4-0.3,2.1-0.3c0.2,0,0.5,0.2,0.7,0.4
		c0.1,0.1,0.2,0.2,0.2,0.4c0.6,1.9,1.1,3.9,1.6,5.8c0.2,0.6-0.2,1.2-0.7,1.4c-0.4,0.2-0.8,0.4-1.2,0.5c-9.8,2.7-19.4,5.7-29,8.9
		c-0.5,0.2-1.1,0.3-1.7,0.4c-0.2,0-0.6-0.2-0.7-0.4c-0.5-1-0.9-2.1-1.3-3.2c-2.6-7.6-5.3-15.3-7.9-22.9c-0.8-2.3-1.6-4.6-2.4-7
		c-0.2-0.6,0.1-1.2,0.6-1.5c0.5-0.2,1.1-0.5,1.6-0.6c9.7-3.3,19.5-6.3,29.4-9c0.7-0.2,1.4-0.4,2.1-0.5c0.5-0.1,1.2,0.3,1.4,0.8
		c0.5,2,1,3.9,1.5,5.9C529.8,178,529.7,178.2,529.7,178.3z"/>
	<path d="M1030.8,287.7c-0.5-0.2-0.9-0.3-1.2-0.5c-2.8-2-5.6-4.1-8.4-6.1c-0.8-0.6-1.1-1.3-0.7-2.2c0.6-2-0.2-3.7-1.5-5.1
		c-1-1.1-2.1-2-3.5-2.6c-0.4-0.2-0.8-0.3-1.2-0.4c-0.8-0.1-1.4,0.1-2,0.7c-0.5,0.6-0.6,1.3-0.3,2c0.4,1.3,1.4,2.2,2.2,3.2
		c1.5,1.8,3.1,3.4,4.6,5.2c1.2,1.4,2.3,3,3.3,4.5c1,1.4,1.7,3,2.3,4.7c1.9,5.7-1.7,11.3-7.3,12.6c-2.8,0.6-5.4,0.4-8.1-0.4
		c-0.3-0.1-0.5-0.2-0.8-0.3c-6.7-2.7-12.2-7.1-16.6-12.8c-3.1-4.1-3.3-8.8-1.1-13.5c0.2-0.5,1-0.8,1.5-0.5c3,1.9,6.1,3.9,9.1,5.9
		c0.5,0.4,0.7,0.9,0.6,1.5c-0.1,0.4-0.2,0.8-0.4,1.2c-0.6,1.8-0.2,3.5,0.8,4.9c1.3,2,3.1,3.4,5.4,4.1c0.7,0.2,1.4,0.2,2.1,0.1
		c1.6-0.3,2.6-2.1,2.1-3.7c-0.4-1.1-1-2.1-1.7-3c-1.1-1.3-2.3-2.6-3.3-4c-1.5-1.9-3.1-3.8-4.5-5.8c-1.1-1.5-1.9-3.2-2.5-5
		c-1.7-5.2,1.6-10.6,7.5-11.2c1.6-0.2,3.2-0.1,4.7,0.4c1.7,0.5,3.3,1.1,4.8,1.9c4.5,2.4,8.5,5.5,11.9,9.3c1.9,2.1,3.3,4.4,3.9,7.1
		C1033,282.7,1032.6,285.3,1030.8,287.7z"/>
	<path d="M711.7,152.2c1.5-0.4,2.9-0.1,4.4,0c5.5,0.4,10.9,0.9,16.4,1.4c4.2,0.4,8.3,0.9,12.5,1.4c0.6,0.1,1.1,0.2,1.7,0.3
		c0.4,0.1,0.7,0.5,0.7,0.9c0,0.7,0,1.4-0.1,2.2c-0.5,5.3-0.3,4.9-5.4,4.3c-5-0.6-10.1-1-15.1-1.5c-2.1-0.2-2.4,0.2-2.7,2.4
		c-0.1,0.6,0,1.1-0.1,1.7c0,0.6,0.4,1.1,1,1.2c0.6,0.1,1.1,0.2,1.7,0.3c4.7,0.5,9.5,1,14.2,1.5c0.7,0.1,1.5,0.1,2.1,0.4
		c0.3,0.1,0.8,0.6,0.8,0.9c0.1,2,0.1,4-0.6,5.9c-0.1,0.2-0.4,0.5-0.6,0.5c-1.1,0-2.3,0.1-3.4-0.1c-3.9-0.4-7.8-0.9-11.6-1.3
		c-0.9-0.1-1.7-0.1-2.6-0.2c-1.3-0.1-1.8,0.4-1.9,1.7c-0.1,1.4-0.1,2.9-0.1,4.3c0,0.2,0.3,0.6,0.5,0.6c0.5,0.2,1.1,0.3,1.7,0.3
		c5,0.5,10.1,1,15.1,1.6c1.1,0.1,2.3,0.4,3.4,0.6c0.5,0.1,0.9,0.8,0.9,1.3c0,0.3,0,0.6,0,0.9c-0.1,0.6-0.1,1.1-0.2,1.7
		c-0.8,4.8,0.1,4.5-5.4,4c-2.4-0.2-4.9-0.6-7.3-0.8c-4.7-0.5-9.5-0.9-14.2-1.3c-2.3-0.2-4.6-0.3-6.9-0.5c-0.8-0.1-1.3-0.7-1.3-1.5
		c0.1-2.5,0.3-4.9,0.4-7.3c0.1-1,0.2-2,0.2-3c0.4-7.1,0.8-14.1,1.2-21.2C711,154.7,711,153.4,711.7,152.2z"/>
	<path d="M837.2,212.1c0.3-1,1.1-1.7,1.7-2.5c6.6-7.7,13.3-15.2,20.2-22.6c1.3-1.4,2.6-2.7,3.9-4c0.4-0.4,1-0.6,1.6-0.4
		c3.9,1.4,7.9,2.8,11.8,4.3c0.9,0.3,1.3,1,1.4,2c0.1,2.2,0.4,4.3,0.5,6.5c0.3,6.3,0.6,12.7,0.8,19c0.1,3.9,0.1,7.8,0.2,11.7
		c0,0.8-0.7,1.4-1.4,1.1c-3.4-1.3-6.7-2.6-10.1-3.9c-0.9-0.4-1.3-1.1-1.2-2.1c0-0.1,0-0.3,0-0.4c0.6-4.9,0.2-4.3-3.7-5.8
		c-2.8-1.1-5.7-2.1-8.5-3.1c-0.7-0.3-1.4-0.1-1.9,0.6c-0.1,0.1-0.2,0.2-0.3,0.3c-3.3,4.2-2.5,3.8-7.4,2.3c-1.9-0.6-3.8-1.2-5.8-1.9
		C838.3,213,837.6,212.8,837.2,212.1z M866.9,206.9c0.2-3.5,0.5-7.1,0.2-10.7c0-0.2-0.3-0.4-0.5-0.6c-0.1-0.1-0.3,0-0.4,0.1
		c-2.5,2.5-4.8,5.3-6.8,8.3c-0.2,0.3,0.1,0.9,0.5,1c2,0.7,4,1.5,6.1,2.1C866.2,207.3,866.5,207.1,866.9,206.9z"/>
	<path d="M979.1,264.4c0.4,0.2,0.7,0.2,0.9,0.4c2.2,2.5,4.4,4.9,6.6,7.4c0.5,0.6,0.3,1.5-0.3,1.9c-4.8,3.4-10.1,4.3-15.6,2.2
		c-5.6-2.1-10.5-5.4-14.5-9.9c-2.8-3.1-4.1-6.9-4.2-11.1c0-7.2,3.1-12.8,8.7-17.1c3.2-2.5,7-3.2,11.1-2.7c3,0.4,5.9,1.3,8.6,2.7
		c3.1,1.6,6,3.5,8.6,5.8c1.6,1.4,3.1,3,4.2,4.9c2.2,3.6,2.8,7.5,1.9,11.7c-0.1,0.3-0.7,0.6-1.1,0.5c-0.1,0-0.3,0-0.4-0.1
		c-3-1.3-6.1-2.7-9.1-4.1c-0.5-0.2-0.9-0.7-0.9-1.4c0.6-4-2.5-7.5-6.7-8.9c-2.5-0.8-4.9-0.4-6.9,1.3c-3,2.5-4.8,5.8-5.8,9.5
		c-0.6,2.1,0,4,1.4,5.7c0.8,1,1.9,1.8,3,2.5c2.7,1.6,5.4,1.8,8.2,0.1C977.7,265.2,978.5,264.8,979.1,264.4z"/>
	<path d="M787,174c-1.4,0-2.9,0-4.3,0c-0.6,0-1.1-0.3-1.4-0.9c-0.3-0.5-0.5-1.1-0.7-1.6c-1.8-3.9-7.9-5.3-11.3-3.3
		c-1.3,0.7-2.4,1.7-3,3c-1.8,3.8-2.5,7.7-1.6,11.8c0.4,1.8,1.6,3.1,3.2,3.9c1.6,0.8,3.2,1.2,5,1.2c1.8,0,3.4-0.7,4.7-1.9
		c0.3-0.3,0.6-0.6,0.9-1c2.3-3.4,2.2-2.7,5.5-1.1c1.7,0.8,3.4,1.6,5.1,2.5c1.9,1,1.9,1.4,0.7,3.3c-1.9,2.9-4.4,4.9-7.6,6.1
		c-1.2,0.5-2.5,0.8-3.8,0.9c-5.9,0.5-11.6-0.4-16.9-2.9c-5.7-2.6-9-7.2-10-13.3c-0.7-4.1-0.2-8.1,1.3-11.9
		c2.3-5.9,6.7-9.3,12.9-10.3c5.7-0.9,11.2-0.2,16.6,1.8c1.5,0.5,2.9,1.3,4.3,2.1c3.7,2.4,5.9,5.8,6.7,10.2c0.1,0.5-0.4,1.2-1,1.2
		C790.4,174,788.7,174,787,174C787,174,787,174,787,174z"/>
	<path d="M380.6,278.6c-0.8-0.2-1.2-0.8-1.6-1.4c-2.6-3.8-5.2-7.7-7.8-11.5c-3.2-4.8-6.5-9.6-9.7-14.3c-0.5-0.7-0.9-1.4-1.4-2.2
		c-0.2-0.4-0.2-0.8,0.1-1.2c0.1-0.1,0.2-0.2,0.3-0.3c3.2-2.2,6.5-4.3,9.8-6.4c0.6-0.4,1.4-0.2,1.9,0.4c0.3,0.4,0.5,0.7,0.7,1.1
		c5.8,9,11.5,18,17.3,27c0.4,0.6,0.8,1.2,0.7,2C388.7,273.7,383.4,277.2,380.6,278.6z"/>
	<path d="M957,225.1c-0.4,0.8-0.7,1.4-1,2c-5.2,9.1-10.4,18.3-15.6,27.4c-0.4,0.6-0.8,1.2-1.2,1.8c-0.1,0.2-0.5,0.2-0.8,0.2
		c-0.3,0-0.5-0.2-0.8-0.3c-2.9-1.6-5.8-3.2-8.7-4.8c-0.5-0.3-0.8-0.8-1.3-1.2c0.3-0.8,0.6-1.4,0.9-2.1c4.9-9.1,9.8-18.3,14.7-27.4
		c0.3-0.6,0.7-1.2,1.1-1.9c0.3-0.4,1-0.6,1.5-0.4c0.3,0.1,0.5,0.2,0.8,0.3c3,1.7,6.1,3.3,9.1,5C956.2,224.2,956.6,224.7,957,225.1z"
		/>
</g>
</svg>
